{
copyright = "Copyright 2015 Mohamed Gaber (gaber@gaberism.net)Copyright 2015 Mohamed Gaber (gaber@gaberism.net)";
customParameters = (
{
name = licenseURL;
value = "http://scripts.sil.org/OFL";
},
{
name = description;
value = "Copyright 2015 Mohamed Gaber (gaber@gaberism.net)Copyright 2015 Mohamed Gaber (gaber@gaberism.net)";
},
{
name = license;
value = "Copyright 2015 Mohamed Gaber (gaber@gaberism.net)Copyright 2015 Mohamed Gaber (gaber@gaberism.net)\012\012This Font Software is licensed under the SIL Open Font License, Version 1.1. This license is copied below, and is also available with a FAQ at: http://scripts.sil.org/OFL";
},
{
name = openTypeOS2VendorID;
value = MONO;
},
{
name = glyphOrder;
value = (
    ".null",
    CR,
    space,
    exclam,
    quotedbl,
    numbersign,
    dollar,
    percent,
    ampersand,
    quotesingle,
    parenleft,
    parenright,
    asterisk,
    plus,
    comma,
    hyphen,
    period,
    slash,
    zero,
    one,
    two,
    three,
    four,
    five,
    six,
    seven,
    eight,
    nine,
    colon,
    semicolon,
    less,
    equal,
    greater,
    question,
    at,
    A,
    B,
    C,
    D,
    E,
    F,
    G,
    H,
    I,
    J,
    K,
    L,
    M,
    N,
    O,
    P,
    Q,
    R,
    S,
    T,
    U,
    V,
    W,
    X,
    Y,
    Z,
    bracketleft,
    backslash,
    bracketright,
    asciicircum,
    underscore,
    grave,
    a,
    b,
    c,
    d,
    e,
    f,
    g,
    h,
    i,
    j,
    k,
    l,
    m,
    n,
    o,
    p,
    q,
    r,
    s,
    t,
    u,
    v,
    w,
    x,
    y,
    z,
    braceleft,
    bar,
    braceright,
    asciitilde,
    uni00A0,
    exclamdown,
    cent,
    sterling,
    currency,
    yen,
    brokenbar,
    section,
    dieresis,
    copyright,
    ordfeminine,
    guillemotleft,
    logicalnot,
    uni00AD,
    registered,
    macron,
    degree,
    plusminus,
    twosuperior,
    threesuperior,
    acute,
    mu,
    paragraph,
    periodcentered,

glyphs = (
{
glyphname = exclam;
lastChange = "2015-07-31 18:27:42 +0000";
layers = (
{
layerId = UUID0;
name = Regular;
paths = (
{
closed = 1;
nodes = (
"169 155 LINE",
"75 155 LINE",
"56 660 LINE",
"189 660 LINE"
);
},
{
closed = 1;
nodes = (
"183 11 OFFCURVE",
"161 -14 OFFCURVE",
"122 -14 CURVE SMOOTH",
"83 -14 OFFCURVE",
"61 11 OFFCURVE",
"61 47 CURVE SMOOTH",
"61 83 OFFCURVE",
"83 108 OFFCURVE",
"122 108 CURVE SMOOTH",
"161 108 OFFCURVE",
"183 83 OFFCURVE",
"183 47 CURVE SMOOTH"
);
}
);
width = 245;
}
);
unicode = 0021;
},
{
glyphname = quotedbl;
lastChange = "2015-07-31 18:27:42 +0000";
layers = (
{
layerId = UUID0;
name = Regular;
paths = (
{
closed = 1;
nodes = (
"245 390 LINE",
"215 660 LINE",
"345 660 LINE",
"315 390 LINE"
);
},
{
closed = 1;
nodes = (
"75 390 LINE",
"45 660 LINE",
"175 660 LINE",
"145 390 LINE"
);
}
);
width = 390;
}
);
leftKerningGroup = quotedbl;
rightKerningGroup = quotedbl;
unicode = 0022;
},
{
glyphname = numbersign;
lastChange = "2015-07-31 18:27:42 +0000";
layers = (
{
layerId = UUID0;
name = Regular;
paths = (
{
closed = 1;
nodes = (
"116 0 LINE",
"152 172 LINE",
"29 172 LINE",
"29 237 LINE",
"165 237 LINE",
"202 413 LINE",
"89 413 LINE",
"89 478 LINE",
"216 478 LINE",
"257 675 LINE",
"356 675 LINE",
"315 478 LINE",
"442 478 LINE",
"483 675 LINE",
"582 675 LINE",
"541 478 LINE",
"669 478 LINE",
"669 413 LINE",
"527 413 LINE",
"491 237 LINE",
"609 237 LINE",
"609 172 LINE",
"477 172 LINE",
"441 0 LINE",
"342 0 LINE",
"378 172 LINE",
"251 172 LINE",
"215 0 LINE"
);
},
{
closed = 1;
nodes = (
"265 237 LINE",
"391 237 LINE",
"428 413 LINE",
"301 413 LINE"
);
}
);
width = 699;
}
);
unicode = 0023;
},
{
glyphname = dollar;
lastChange = "2015-07-31 18:27:42 +0000";
layers = (
{
layerId = UUID0;
name = Regular;
paths = (
{
closed = 1;
nodes = (
"305 676 LINE",
"401 668 OFFCURVE",
"493 623 OFFCURVE",
"493 558 CURVE SMOOTH",
"493 441 LINE",
"465 441 LINE",
"445 568 OFFCURVE",
"392 622 OFFCURVE",
"305 631 CURVE",
"305 390 LINE",
"388 341 LINE SMOOTH",
"479 288 OFFCURVE",
"519 242 OFFCURVE",
"519 169 CURVE SMOOTH",
"519 64 OFFCURVE",
"442 -5 OFFCURVE",
"305 -16 CURVE",
"305 -80 LINE",
"235 -80 LINE",
"235 -15 LINE",
"135 -7 OFFCURVE",
"42 34 OFFCURVE",
"42 103 CURVE SMOOTH",
"42 220 LINE",
"70 220 LINE",
"90 95 OFFCURVE",
"143 40 OFFCURVE",
"235 29 CURVE",
"235 287 LINE",
"167 328 LINE",
"76 381 OFFCURVE",
"43 434 OFFCURVE",
"43 507 CURVE SMOOTH",
"43 603 OFFCURVE",
"115 666 OFFCURVE",
"235 677 CURVE",
"235 735 LINE",
"305 735 LINE"
);
},
{
closed = 1;
nodes = (
"393 177 OFFCURVE",
"360 210 OFFCURVE",
"305 245 CURVE",
"305 31 LINE",
"358 42 OFFCURVE",
"393 73 OFFCURVE",
"393 125 CURVE SMOOTH"
);
},
{
closed = 1;
nodes = (
"161 488 OFFCURVE",
"188 463 OFFCURVE",
"235 432 CURVE",
"235 628 LINE",
"188 615 OFFCURVE",
"161 583 OFFCURVE",
"161 536 CURVE SMOOTH"
);
}
);
width = 550;
}
);
unicode = 0024;
},
{
glyphname = percent;
lastChange = "2015-07-31 18:27:42 +0000";
layers = (
{
layerId = UUID0;
name = Regular;
paths = (
{
closed = 1;
nodes = (
"83 0 LINE",
"567 660 LINE",
"673 660 LINE",
"189 0 LINE"
);
},
{
closed = 1;
nodes = (
"665 271 OFFCURVE",
"726 221 OFFCURVE",
"726 133 CURVE SMOOTH",
"726 45 OFFCURVE",
"665 -5 OFFCURVE",
"568 -5 CURVE SMOOTH",
"468 -5 OFFCURVE",
"408 45 OFFCURVE",
"408 133 CURVE SMOOTH",
"408 221 OFFCURVE",
"468 271 OFFCURVE",
"568 271 CURVE SMOOTH"
);
},
{
closed = 1;
nodes = (
"515 231 OFFCURVE",
"488 197 OFFCURVE",
"488 133 CURVE SMOOTH",
"488 69 OFFCURVE",
"515 35 OFFCURVE",
"567 35 CURVE SMOOTH",
"619 35 OFFCURVE",
"646 69 OFFCURVE",
"646 133 CURVE SMOOTH",
"646 197 OFFCURVE",
"618 231 OFFCURVE",
"566 231 CURVE SMOOTH"
);
},
{
closed = 1;
nodes = (
"287 665 OFFCURVE",
"348 615 OFFCURVE",
"348 527 CURVE SMOOTH",
"348 439 OFFCURVE",
"287 389 OFFCURVE",
"190 389 CURVE SMOOTH",
"90 389 OFFCURVE",
"30 439 OFFCURVE",
"30 527 CURVE SMOOTH",
"30 615 OFFCURVE",
"90 665 OFFCURVE",
"190 665 CURVE SMOOTH"
);
},
{
closed = 1;
nodes = (
"137 625 OFFCURVE",
"110 591 OFFCURVE",
"110 527 CURVE SMOOTH",
"110 463 OFFCURVE",
"137 429 OFFCURVE",
"189 429 CURVE SMOOTH",
"241 429 OFFCURVE",
"268 463 OFFCURVE",
"268 527 CURVE SMOOTH",
"268 591 OFFCURVE",
"240 625 OFFCURVE",
"188 625 CURVE SMOOTH"
);
}
);
width = 755;
}
);
unicode = 0025;
},
{
glyphname = ampersand;
lastChange = "2015-07-31 18:27:42 +0000";
layers = (
{
layerId = UUID0;
name = Regular;
paths = (
{
closed = 1;
nodes = (
"32 224 OFFCURVE",
"103 281 OFFCURVE",
"190 326 CURVE",
"171 343 OFFCURVE",
"79 430 OFFCURVE",
"79 524 CURVE SMOOTH",
"79 623 OFFCURVE",
"154 680 OFFCURVE",
"279 680 CURVE SMOOTH",
"400 680 OFFCURVE",
"464 623 OFFCURVE",
"464 540 CURVE SMOOTH",
"464 458 OFFCURVE",
"391 393 OFFCURVE",
"309 340 CURVE",
"494 140 LINE",
"518 167 OFFCURVE",
"539 198 OFFCURVE",
"554 221 CURVE SMOOTH",
"563 234 OFFCURVE",
"571 248 OFFCURVE",
"578 261 CURVE",
"616 236 LINE",
"610 222 OFFCURVE",
"603 208 OFFCURVE",
"594 193 CURVE SMOOTH",
"579 168 OFFCURVE",
"557 135 OFFCURVE",
"528 103 CURVE",
"625 0 LINE",
"489 0 LINE",
"451 38 LINE",
"452 38 OFFCURVE",
"379 -20 OFFCURVE",
"279 -20 CURVE SMOOTH",
"94 -20 OFFCURVE",
"32 51 OFFCURVE",
"32 135 CURVE SMOOTH"
);
},
{
closed = 1;
nodes = (
"328 20 OFFCURVE",
"362 33 OFFCURVE",
"385 46 CURVE SMOOTH",
"398 53 OFFCURVE",
"410 62 OFFCURVE",
"421 72 CURVE",
"353 147 OFFCURVE",
"298 203 OFFCURVE",
"230 278 CURVE",
"194 246 OFFCURVE",
"162 201 OFFCURVE",
"162 145 CURVE SMOOTH",
"162 69 OFFCURVE",
"204 20 OFFCURVE",
"288 20 CURVE SMOOTH"
);
},
{
closed = 1;
nodes = (
"209 451 OFFCURVE",
"248 405 OFFCURVE",
"272 381 CURVE",
"315 420 OFFCURVE",
"344 465 OFFCURVE",
"344 530 CURVE SMOOTH",
"344 613 OFFCURVE",
"308 640 OFFCURVE",
"279 640 CURVE SMOOTH",
"234 640 OFFCURVE",
"209 613 OFFCURVE",
"209 524 CURVE SMOOTH"
);
}
);
width = 636;
}
);
unicode = 0026;
},
{
glyphname = quotesingle;
lastChange = "2015-07-31 18:27:42 +0000";
layers = (
{
layerId = UUID0;
name = Regular;
paths = (
{
closed = 1;
nodes = (
"75 390 LINE",
"45 660 LINE",
"175 660 LINE",
"145 390 LINE"
);
}
);
width = 220;
}
);
leftKerningGroup = quotedbl;
rightKerningGroup = quotedbl;
unicode = 0027;
},
{
glyphname = parenleft;
lastChange = "2015-07-31 18:27:42 +0000";
layers = (
{
layerId = UUID0;
name = Regular;
paths = (
{
closed = 1;
nodes = (
"24 431 OFFCURVE",
"118 579 OFFCURVE",
"297 700 CURVE",
"311 680 LINE",
"194 576 OFFCURVE",
"154 419 OFFCURVE",
"154 240 CURVE SMOOTH",
"154 61 OFFCURVE",
"194 -96 OFFCURVE",
"311 -200 CURVE",
"297 -220 LINE",
"118 -99 OFFCURVE",
"24 49 OFFCURVE",
"24 240 CURVE SMOOTH"
);
}
);
width = 320;
}
);
unicode = 0028;
},
{
glyphname = parenright;
lastChange = "2015-07-31 18:27:42 +0000";
layers = (
{
layerId = UUID0;
name = Regular;
paths = (
{
closed = 1;
nodes = (
"297 49 OFFCURVE",
"203 -99 OFFCURVE",
"24 -220 CURVE",
"10 -200 LINE",
"127 -96 OFFCURVE",
"167 61 OFFCURVE",
"167 240 CURVE SMOOTH",
"167 419 OFFCURVE",
"127 576 OFFCURVE",
"10 680 CURVE",
"24 700 LINE",
"203 579 OFFCURVE",
"297 431 OFFCURVE",
"297 240 CURVE SMOOTH"
);
}
);
width = 321;
}
);
unicode = 0029;
},
{
glyphname = asterisk;
lastChange = "2015-07-31 18:27:42 +0000";
layers = (
{
layerId = UUID0;
name = Regular;
paths = (
{
closed = 1;
nodes = (
"161 660 LINE",
"273 660 LINE",
"249 539 LINE",
"347 628 LINE",
"396 542 LINE",
"252 492 LINE",
"396 442 LINE",
"347 356 LINE",
"248 446 LINE",
"273 324 LINE",
"161 324 LINE",
"185 445 LINE",
"87 356 LINE",
"38 442 LINE",
"182 492 LINE",
"38 542 LINE",
"87 628 LINE",
"185 539 LINE"
);
}
);
width = 434;
}
);
unicode = 002A;
},
{
glyphname = plus;
lastChange = "2015-07-31 18:27:42 +0000";
layers = (
{
layerId = UUID0;
name = Regular;
paths = (
{
closed = 1;
nodes = (
"228 295 LINE",
"31 295 LINE",
"31 365 LINE",
"228 365 LINE",
"228 560 LINE",
"318 560 LINE",
"318 365 LINE",
"515 365 LINE",
"515 295 LINE",
"318 295 LINE",
"318 100 LINE",
"228 100 LINE"
);
}
);
width = 546;
}
);
unicode = 002B;
},
{
glyphname = comma;
lastChange = "2015-07-31 18:27:42 +0000";
layers = (
{
layerId = UUID0;
name = Regular;
paths = (
{
closed = 1;
nodes = (
"112 -14 LINE",
"73 -14 OFFCURVE",
"51 11 OFFCURVE",
"51 47 CURVE SMOOTH",
"51 83 OFFCURVE",
"73 108 OFFCURVE",
"112 108 CURVE SMOOTH",
"156 108 OFFCURVE",
"178 70 OFFCURVE",
"178 30 CURVE SMOOTH",
"178 -46 OFFCURVE",
"148 -104 OFFCURVE",
"63 -160 CURVE",
"45 -136 LINE",
"78 -114 OFFCURVE",
"127 -71 OFFCURVE",
"127 -11 CURVE"
);
}
);
width = 228;
}
);
leftKerningGroup = quotedblbase;
rightKerningGroup = quotedblbase;
unicode = 002C;
},
{
glyphname = hyphen;
lastChange = "2015-07-31 18:27:42 +0000";
layers = (
{
layerId = UUID0;
name = Regular;
paths = (
{
closed = 1;
nodes = (
"58 312 LINE",
"337 312 LINE",
"337 217 LINE",
"58 217 LINE"
);
}
);
width = 395;
}
);
leftKerningGroup = emdash;
rightKerningGroup = emdash;
unicode = 002D;
},
{
glyphname = period;
lastChange = "2015-07-31 18:27:42 +0000";
layers = (
{
layerId = UUID0;
name = Regular;
paths = (
{
closed = 1;
nodes = (
"173 11 OFFCURVE",
"151 -14 OFFCURVE",
"112 -14 CURVE SMOOTH",
"73 -14 OFFCURVE",
"51 11 OFFCURVE",
"51 47 CURVE SMOOTH",
"51 83 OFFCURVE",
"73 108 OFFCURVE",
"112 108 CURVE SMOOTH",
"151 108 OFFCURVE",
"173 83 OFFCURVE",
"173 47 CURVE SMOOTH"
);
}
);
width = 224;
}
);
leftKerningGroup = quotedblbase;
rightKerningGroup = quotedblbase;
unicode = 002E;
},
{
glyphname = slash;
lastChange = "2015-07-31 18:27:42 +0000";
layers = (
{
layerId = UUID0;
name = Regular;
paths = (
{
closed = 1;
nodes = (
"21 0 LINE",
"342 660 LINE",
"454 660 LINE",
"133 0 LINE"
);
}
);
width = 475;
}
);
unicode = 002F;
},
{
glyphname = zero;
lastChange = "2015-07-31 18:27:42 +0000";
layers = (
{
layerId = UUID0;
name = Regular;
paths = (
{
closed = 1;
nodes = (
"219 635 OFFCURVE",
"183 541 OFFCURVE",
"183 330 CURVE SMOOTH",
"183 119 OFFCURVE",
"219 25 OFFCURVE",
"303 25 CURVE SMOOTH",
"387 25 OFFCURVE",
"423 119 OFFCURVE",
"423 330 CURVE SMOOTH",
"423 541 OFFCURVE",
"387 635 OFFCURVE",
"303 635 CURVE SMOOTH"
);
},
{
closed = 1;
nodes = (
"494 680 OFFCURVE",
"563 538 OFFCURVE",
"563 330 CURVE SMOOTH",
"563 122 OFFCURVE",
"494 -20 OFFCURVE",
"303 -20 CURVE SMOOTH",
"112 -20 OFFCURVE",
"43 122 OFFCURVE",
"43 330 CURVE SMOOTH",
"43 538 OFFCURVE",
"112 680 OFFCURVE",
"303 680 CURVE SMOOTH"
);
}
);
width = 606;
}
);
unicode = 0030;
},
{
glyphname = one;
lastChange = "2015-07-31 18:27:42 +0000";
layers = (
{
layerId = UUID0;
name = Regular;
paths = (
{
closed = 1;
nodes = (
"249 0 LINE",
"119 0 LINE",
"119 542 LINE",
"32 486 LINE",
"8 517 LINE",
"162 660 LINE",
"249 660 LINE"
);
}
);
width = 323;
}
);
unicode = 0031;
},
{
glyphname = two;
lastChange = "2015-07-31 18:27:42 +0000";
layers = (
{
layerId = UUID0;
name = Regular;
paths = (
{
closed = 1;
nodes = (
"41 0 LINE",
"41 65 LINE",
"126 150 OFFCURVE",
"350 335 OFFCURVE",
"350 487 CURVE SMOOTH",
"350 591 OFFCURVE",
"296 635 OFFCURVE",
"240 635 CURVE SMOOTH",
"156 635 OFFCURVE",
"96 581 OFFCURVE",
"76 460 CURVE",
"41 460 LINE",
"41 511 OFFCURVE",
"41 569 OFFCURVE",
"65 600 CURVE SMOOTH",
"101 644 OFFCURVE",
"176 680 OFFCURVE",
"260 680 CURVE SMOOTH",
"352 680 OFFCURVE",
"490 651 OFFCURVE",
"490 487 CURVE SMOOTH",
"490 300 OFFCURVE",
"192 109 OFFCURVE",
"128 45 CURVE",
"335 45 LINE SMOOTH",
"415 45 OFFCURVE",
"460 84 OFFCURVE",
"460 155 CURVE",
"490 155 LINE",
"490 80 LINE SMOOTH",
"490 40 OFFCURVE",
"474 0 OFFCURVE",
"405 0 CURVE SMOOTH"
);
}
);
width = 539;
}
);
unicode = 0032;
},
{
glyphname = three;
lastChange = "2015-07-31 18:27:42 +0000";
layers = (
{
layerId = UUID0;
name = Regular;
paths = (
{
closed = 1;
nodes = (
"209 615 LINE SMOOTH",
"129 615 OFFCURVE",
"84 576 OFFCURVE",
"84 505 CURVE",
"54 505 LINE",
"54 580 LINE SMOOTH",
"54 620 OFFCURVE",
"70 660 OFFCURVE",
"139 660 CURVE SMOOTH",
"477 660 LINE",
"477 615 LINE",
"228 381 LINE SMOOTH",
"229 382 OFFCURVE",
"268 385 OFFCURVE",
"292 385 CURVE SMOOTH",
"383 385 OFFCURVE",
"512 333 OFFCURVE",
"512 185 CURVE SMOOTH",
"512 17 OFFCURVE",
"353 -20 OFFCURVE",
"277 -20 CURVE SMOOTH",
"148 -20 OFFCURVE",
"83 23 OFFCURVE",
"27 88 CURVE",
"55 117 LINE",
"111 54 OFFCURVE",
"176 25 OFFCURVE",
"233 25 CURVE SMOOTH",
"310 25 OFFCURVE",
"372 72 OFFCURVE",
"372 185 CURVE SMOOTH",
"372 293 OFFCURVE",
"314 340 OFFCURVE",
"244 340 CURVE SMOOTH",
"213 340 OFFCURVE",
"188 335 OFFCURVE",
"169 330 CURVE SMOOTH",
"139 321 LINE",
"115 359 LINE",
"388 615 LINE"
);
}
);
width = 543;
}
);
unicode = 0033;
},
{
glyphname = four;
lastChange = "2015-07-31 18:27:42 +0000";
layers = (
{
layerId = UUID0;
name = Regular;
paths = (
{
closed = 1;
nodes = (
"459 0 LINE",
"329 0 LINE",
"329 170 LINE",
"9 170 LINE",
"9 210 LINE",
"355 660 LINE",
"459 660 LINE",
"459 215 LINE",
"549 215 LINE",
"549 170 LINE",
"459 170 LINE"
);
},
{
closed = 1;
nodes = (
"329 215 LINE",
"329 543 LINE",
"78 215 LINE"
);
}
);
width = 572;
}
);
unicode = 0034;
},
{
glyphname = five;
lastChange = "2015-07-31 18:27:42 +0000";
layers = (
{
layerId = UUID0;
name = Regular;
paths = (
{
closed = 1;
nodes = (
"367 390 OFFCURVE",
"520 348 OFFCURVE",
"520 190 CURVE SMOOTH",
"520 22 OFFCURVE",
"360 -20 OFFCURVE",
"265 -20 CURVE SMOOTH",
"155 -20 OFFCURVE",
"93 21 OFFCURVE",
"37 88 CURVE",
"66 114 LINE",
"117 51 OFFCURVE",
"185 25 OFFCURVE",
"242 25 CURVE SMOOTH",
"319 25 OFFCURVE",
"380 72 OFFCURVE",
"380 190 CURVE SMOOTH",
"380 294 OFFCURVE",
"322 344 OFFCURVE",
"222 344 CURVE SMOOTH",
"194 344 OFFCURVE",
"163 339 OFFCURVE",
"139 332 CURVE",
"125 329 OFFCURVE",
"111 325 OFFCURVE",
"97 321 CURVE",
"57 360 LINE",
"68 660 LINE",
"457 660 LINE",
"457 616 LINE",
"184 616 LINE",
"175 385 LINE",
"205 387 LINE SMOOTH",
"222 388 OFFCURVE",
"243 390 OFFCURVE",
"262 390 CURVE SMOOTH"
);
}
);
width = 546;
}
);
unicode = 0035;
},
{
glyphname = six;
lastChange = "2015-07-31 18:27:42 +0000";
layers = (
{
layerId = UUID0;
name = Regular;
paths = (
{
closed = 1;
nodes = (
"44 571 OFFCURVE",
"139 680 OFFCURVE",
"324 680 CURVE SMOOTH",
"369 680 OFFCURVE",
"409 671 OFFCURVE",
"438 663 CURVE SMOOTH",
"455 658 OFFCURVE",
"471 652 OFFCURVE",
"484 646 CURVE",
"478 618 LINE",
"432 626 LINE SMOOTH",
"405 630 OFFCURVE",
"372 635 OFFCURVE",
"344 635 CURVE SMOOTH",
"244 635 OFFCURVE",
"179 556 OFFCURVE",
"179 385 CURVE",
"190 394 OFFCURVE",
"203 402 OFFCURVE",
"217 409 CURVE SMOOTH",
"241 421 OFFCURVE",
"276 433 OFFCURVE",
"319 433 CURVE SMOOTH",
"475 433 OFFCURVE",
"529 341 OFFCURVE",
"529 205 CURVE SMOOTH",
"529 88 OFFCURVE",
"449 -20 OFFCURVE",
"294 -20 CURVE SMOOTH",
"127 -20 OFFCURVE",
"44 98 OFFCURVE",
"44 330 CURVE SMOOTH"
);
},
{
closed = 1;
nodes = (
"228 388 OFFCURVE",
"179 340 OFFCURVE",
"179 337 CURVE SMOOTH",
"179 115 OFFCURVE",
"224 25 OFFCURVE",
"294 25 CURVE SMOOTH",
"359 25 OFFCURVE",
"394 107 OFFCURVE",
"394 205 CURVE SMOOTH",
"394 324 OFFCURVE",
"365 388 OFFCURVE",
"289 388 CURVE SMOOTH"
);
}
);
width = 560;
}
);
unicode = 0036;
},
{
glyphname = seven;
lastChange = "2015-07-31 18:27:42 +0000";
layers = (
{
layerId = UUID0;
name = Regular;
paths = (
{
closed = 1;
nodes = (
"217 0 LINE",
"96 0 LINE",
"346 615 LINE",
"176 615 LINE SMOOTH",
"96 615 OFFCURVE",
"51 576 OFFCURVE",
"51 505 CURVE",
"21 505 LINE",
"21 580 LINE SMOOTH",
"21 620 OFFCURVE",
"37 660 OFFCURVE",
"106 660 CURVE SMOOTH",
"467 660 LINE",
"467 615 LINE"
);
}
);
width = 473;
}
);
unicode = 0037;
},
{
glyphname = eight;
lastChange = "2015-07-31 18:27:42 +0000";
layers = (
{
layerId = UUID0;
name = Regular;
paths = (
{
closed = 1;
nodes = (
"514 441 OFFCURVE",
"454 390 OFFCURVE",
"379 358 CURVE",
"462 313 OFFCURVE",
"539 261 OFFCURVE",
"539 162 CURVE SMOOTH",
"539 30 OFFCURVE",
"428 -20 OFFCURVE",
"289 -20 CURVE SMOOTH",
"153 -20 OFFCURVE",
"39 29 OFFCURVE",
"39 152 CURVE SMOOTH",
"39 247 OFFCURVE",
"119 298 OFFCURVE",
"206 335 CURVE",
"128 378 OFFCURVE",
"64 422 OFFCURVE",
"64 508 CURVE SMOOTH",
"64 640 OFFCURVE",
"166 680 OFFCURVE",
"289 680 CURVE SMOOTH",
"413 680 OFFCURVE",
"514 641 OFFCURVE",
"514 518 CURVE SMOOTH"
);
},
{
closed = 1;
nodes = (
"404 224 OFFCURVE",
"337 270 OFFCURVE",
"259 311 CURVE",
"208 284 OFFCURVE",
"174 243 OFFCURVE",
"174 152 CURVE SMOOTH",
"174 64 OFFCURVE",
"221 25 OFFCURVE",
"289 25 CURVE SMOOTH",
"357 25 OFFCURVE",
"404 65 OFFCURVE",
"404 142 CURVE SMOOTH"
);
},
{
closed = 1;
nodes = (
"199 466 OFFCURVE",
"258 416 OFFCURVE",
"327 384 CURVE",
"362 411 OFFCURVE",
"379 445 OFFCURVE",
"379 518 CURVE SMOOTH",
"379 610 OFFCURVE",
"327 635 OFFCURVE",
"289 635 CURVE SMOOTH",
"251 635 OFFCURVE",
"199 611 OFFCURVE",
"199 528 CURVE SMOOTH"
);
}
);
width = 578;
}
);
unicode = 0038;
},
{
glyphname = nine;
lastChange = "2015-07-31 18:27:42 +0000";
layers = (
{
layerId = UUID0;
name = Regular;
paths = (
{
closed = 1;
nodes = (
"516 87 OFFCURVE",
"421 -20 OFFCURVE",
"236 -20 CURVE SMOOTH",
"189 -20 OFFCURVE",
"151 -12 OFFCURVE",
"122 -3 CURVE SMOOTH",
"105 2 OFFCURVE",
"89 7 OFFCURVE",
"76 14 CURVE",
"82 42 LINE",
"128 33 LINE",
"155 29 OFFCURVE",
"187 25 OFFCURVE",
"216 25 CURVE SMOOTH",
"316 25 OFFCURVE",
"381 104 OFFCURVE",
"381 275 CURVE",
"370 266 OFFCURVE",
"357 258 OFFCURVE",
"343 251 CURVE SMOOTH",
"319 239 OFFCURVE",
"284 227 OFFCURVE",
"241 227 CURVE SMOOTH",
"85 227 OFFCURVE",
"31 319 OFFCURVE",
"31 455 CURVE SMOOTH",
"31 572 OFFCURVE",
"111 680 OFFCURVE",
"266 680 CURVE SMOOTH",
"433 680 OFFCURVE",
"516 562 OFFCURVE",
"516 330 CURVE SMOOTH"
);
},
{
closed = 1;
nodes = (
"330 272 OFFCURVE",
"381 320 OFFCURVE",
"381 323 CURVE SMOOTH",
"381 545 OFFCURVE",
"336 635 OFFCURVE",
"266 635 CURVE SMOOTH",
"201 635 OFFCURVE",
"166 553 OFFCURVE",
"166 455 CURVE SMOOTH",
"166 336 OFFCURVE",
"195 272 OFFCURVE",
"271 272 CURVE SMOOTH"
);
}
);
width = 560;
}
);
unicode = 0039;
},
{
glyphname = colon;
lastChange = "2015-07-31 18:27:42 +0000";
layers = (
{
layerId = UUID0;
name = Regular;
paths = (
{
closed = 1;
nodes = (
"180 11 OFFCURVE",
"158 -14 OFFCURVE",
"119 -14 CURVE SMOOTH",
"80 -14 OFFCURVE",
"58 11 OFFCURVE",
"58 47 CURVE SMOOTH",
"58 83 OFFCURVE",
"80 108 OFFCURVE",
"119 108 CURVE SMOOTH",
"158 108 OFFCURVE",
"180 83 OFFCURVE",
"180 47 CURVE SMOOTH"
);
},
{
closed = 1;
nodes = (
"180 364 OFFCURVE",
"158 339 OFFCURVE",
"119 339 CURVE SMOOTH",
"80 339 OFFCURVE",
"58 364 OFFCURVE",
"58 400 CURVE SMOOTH",
"58 436 OFFCURVE",
"80 461 OFFCURVE",
"119 461 CURVE SMOOTH",
"158 461 OFFCURVE",
"180 436 OFFCURVE",
"180 400 CURVE SMOOTH"
);
}
);
width = 238;
}
);
unicode = 003A;
},
{
glyphname = semicolon;
lastChange = "2015-07-31 18:27:42 +0000";
layers = (
{
layerId = UUID0;
name = Regular;
paths = (
{
closed = 1;
nodes = (
"185 364 OFFCURVE",
"163 339 OFFCURVE",
"124 339 CURVE SMOOTH",
"85 339 OFFCURVE",
"63 364 OFFCURVE",
"63 400 CURVE SMOOTH",
"63 436 OFFCURVE",
"85 461 OFFCURVE",
"124 461 CURVE SMOOTH",
"163 461 OFFCURVE",
"185 436 OFFCURVE",
"185 400 CURVE SMOOTH"
);
},
{
closed = 1;
nodes = (
"124 -14 LINE",
"85 -14 OFFCURVE",
"63 11 OFFCURVE",
"63 47 CURVE SMOOTH",
"63 83 OFFCURVE",
"85 108 OFFCURVE",
"124 108 CURVE SMOOTH",
"168 108 OFFCURVE",
"190 70 OFFCURVE",
"190 30 CURVE SMOOTH",
"190 -46 OFFCURVE",
"160 -104 OFFCURVE",
"75 -160 CURVE",
"57 -136 LINE",
"90 -114 OFFCURVE",
"139 -71 OFFCURVE",
"139 -11 CURVE"
);
}
);
width = 249;
}
);
unicode = 003B;
},
{
glyphname = less;
lastChange = "2015-07-31 18:27:42 +0000";
layers = (
{
layerId = UUID0;
name = Regular;
paths = (
{
closed = 1;
nodes = (
"29 370 LINE",
"549 596 LINE",
"549 505 LINE",
"157 335 LINE",
"549 165 LINE",
"549 74 LINE",
"29 300 LINE"
);
}
);
width = 610;
}
);
unicode = 003C;
},
{
glyphname = equal;
lastChange = "2015-07-31 18:27:42 +0000";
layers = (
{
layerId = UUID0;
name = Regular;
paths = (
{
closed = 1;
nodes = (
"58 455 LINE",
"607 455 LINE",
"607 385 LINE",
"58 385 LINE"
);
},
{
closed = 1;
nodes = (
"58 275 LINE",
"607 275 LINE",
"607 205 LINE",
"58 205 LINE"
);
}
);
width = 665;
}
);
unicode = 003D;
},
{
glyphname = greater;
lastChange = "2015-07-31 18:27:42 +0000";
layers = (
{
layerId = UUID0;
name = Regular;
paths = (
{
closed = 1;
nodes = (
"581 300 LINE",
"61 74 LINE",
"61 165 LINE",
"453 335 LINE",
"61 505 LINE",
"61 596 LINE",
"581 370 LINE"
);
}
);
width = 610;
}
);
unicode = 003E;
},
{
glyphname = question;
lastChange = "2015-07-31 18:27:42 +0000";
layers = (
{
layerId = UUID0;
name = Regular;
paths = (
{
closed = 1;
nodes = (
"146 635 OFFCURVE",
"84 582 OFFCURVE",
"59 447 CURVE",
"29 447 LINE",
"29 506 OFFCURVE",
"28 564 OFFCURVE",
"55 599 CURVE",
"92 641 OFFCURVE",
"172 680 OFFCURVE",
"255 680 CURVE SMOOTH",
"377 680 OFFCURVE",
"469 610 OFFCURVE",
"469 487 CURVE SMOOTH",
"469 320 OFFCURVE",
"282 298 OFFCURVE",
"270 156 CURVE",
"202 156 LINE",
"210 304 OFFCURVE",
"329 338 OFFCURVE",
"329 487 CURVE SMOOTH",
"329 600 OFFCURVE",
"285 635 OFFCURVE",
"225 635 CURVE SMOOTH"
);
},
{
closed = 1;
nodes = (
"297 11 OFFCURVE",
"275 -14 OFFCURVE",
"236 -14 CURVE SMOOTH",
"197 -14 OFFCURVE",
"175 11 OFFCURVE",
"175 47 CURVE SMOOTH",
"175 83 OFFCURVE",
"197 108 OFFCURVE",
"236 108 CURVE SMOOTH",
"275 108 OFFCURVE",
"297 83 OFFCURVE",
"297 47 CURVE SMOOTH"
);
}
);
width = 498;
}
);
unicode = 003F;
},
{
glyphname = at;
lastChange = "2015-07-31 18:27:42 +0000";
layers = (
{
layerId = UUID0;
name = Regular;
paths = (
{
closed = 1;
nodes = (
"369 450 OFFCURVE",
"329 425 OFFCURVE",
"314 360 CURVE",
"259 360 LINE",
"259 406 OFFCURVE",
"271 441 OFFCURVE",
"295 465 CURVE SMOOTH",
"315 485 OFFCURVE",
"374 495 OFFCURVE",
"434 495 CURVE SMOOTH",
"562 495 OFFCURVE",
"635 426 OFFCURVE",
"635 285 CURVE SMOOTH",
"635 102 LINE SMOOTH",
"635 73 OFFCURVE",
"647 51 OFFCURVE",
"675 51 CURVE SMOOTH",
"737 51 OFFCURVE",
"776 100 OFFCURVE",
"776 270 CURVE SMOOTH",
"776 508 OFFCURVE",
"641 635 OFFCURVE",
"440 635 CURVE SMOOTH",
"239 635 OFFCURVE",
"104 508 OFFCURVE",
"104 250 CURVE SMOOTH",
"104 -8 OFFCURVE",
"239 -135 OFFCURVE",
"440 -135 CURVE SMOOTH",
"567 -135 OFFCURVE",
"669 -101 OFFCURVE",
"757 -40 CURVE",
"783 -80 LINE",
"699 -139 OFFCURVE",
"591 -180 OFFCURVE",
"440 -180 CURVE SMOOTH",
"201 -180 OFFCURVE",
"34 -33 OFFCURVE",
"34 250 CURVE SMOOTH",
"34 533 OFFCURVE",
"201 680 OFFCURVE",
"440 680 CURVE SMOOTH",
"679 680 OFFCURVE",
"846 532 OFFCURVE",
"846 270 CURVE SMOOTH",
"846 95 OFFCURVE",
"780 5 OFFCURVE",
"635 5 CURVE SMOOTH",
"601 5 OFFCURVE",
"534 7 OFFCURVE",
"510 60 CURVE",
"505 60 LINE",
"498 49 OFFCURVE",
"490 40 OFFCURVE",
"479 32 CURVE SMOOTH",
"460 17 OFFCURVE",
"433 5 OFFCURVE",
"390 5 CURVE SMOOTH",
"279 5 OFFCURVE",
"220 60 OFFCURVE",
"220 140 CURVE SMOOTH",
"220 230 OFFCURVE",
"275 288 OFFCURVE",
"490 288 CURVE SMOOTH",
"505 288 LINE",
"505 419 OFFCURVE",
"469 450 OFFCURVE",
"414 450 CURVE SMOOTH"
);
},
{
closed = 1;
nodes = (
"505 242 LINE",
"490 242 LINE SMOOTH",
"381 242 OFFCURVE",
"350 210 OFFCURVE",
"350 140 CURVE SMOOTH",
"350 83 OFFCURVE",
"373 55 OFFCURVE",
"420 55 CURVE SMOOTH",
"451 55 OFFCURVE",
"470 71 OFFCURVE",
"485 87 CURVE SMOOTH",
"493 96 OFFCURVE",
"500 107 OFFCURVE",
"505 120 CURVE"
);
}
);
width = 877;
}
);
unicode = 0040;
},
{
glyphname = A;
lastChange = "2015-07-31 18:27:42 +0000";
layers = (
{
layerId = UUID0;
name = Regular;
paths = (
{
closed = 1;
nodes = (
"572 126 LINE SMOOTH",
"596 67 OFFCURVE",
"631 31 OFFCURVE",
"676 26 CURVE",
"676 1 LINE",
"665 -2 OFFCURVE",
"643 -4 OFFCURVE",
"628 -4 CURVE SMOOTH",
"562 -4 OFFCURVE",
"479 12 OFFCURVE",
"431 126 CURVE SMOOTH",
"408 182 LINE",
"142 182 LINE",
"60 0 LINE",
"8 0 LINE",
"303 660 LINE",
"348 660 LINE"
);
},
{
closed = 1;
nodes = (
"163 227 LINE",
"389 227 LINE",
"279 488 LINE"
);
}
);
width = 647;
}
);
leftKerningGroup = A;
rightKerningGroup = A;
unicode = 0041;
},
{
glyphname = B;
lastChange = "2015-07-31 18:27:42 +0000";
layers = (
{
layerId = UUID0;
name = Regular;
paths = (
{
closed = 1;
nodes = (
"269 620 OFFCURVE",
"254 619 OFFCURVE",
"243 616 CURVE",
"225 613 LINE",
"225 361 LINE",
"300 361 LINE SMOOTH",
"381 361 OFFCURVE",
"440 395 OFFCURVE",
"440 490 CURVE SMOOTH",
"440 589 OFFCURVE",
"362 620 OFFCURVE",
"285 620 CURVE SMOOTH"
);
},
{
closed = 1;
nodes = (
"95 530 LINE SMOOTH",
"95 590 OFFCURVE",
"85 630 OFFCURVE",
"25 630 CURVE SMOOTH",
"15 630 LINE",
"15 660 LINE",
"285 660 LINE SMOOTH",
"410 660 OFFCURVE",
"580 643 OFFCURVE",
"580 485 CURVE SMOOTH",
"580 428 OFFCURVE",
"534 365 OFFCURVE",
"441 341 CURVE",
"572 328 OFFCURVE",
"610 260 OFFCURVE",
"610 183 CURVE SMOOTH",
"610 30 OFFCURVE",
"457 0 OFFCURVE",
"315 0 CURVE SMOOTH",
"95 0 LINE"
);
},
{
closed = 1;
nodes = (
"300 40 LINE SMOOTH",
"411 40 OFFCURVE",
"470 90 OFFCURVE",
"470 178 CURVE SMOOTH",
"470 270 OFFCURVE",
"413 316 OFFCURVE",
"300 316 CURVE SMOOTH",
"225 316 LINE",
"225 50 LINE",
"231 48 OFFCURVE",
"238 46 OFFCURVE",
"245 45 CURVE SMOOTH",
"258 42 OFFCURVE",
"275 40 OFFCURVE",
"295 40 CURVE SMOOTH"
);
}
);
width = 644;
}
);
leftKerningGroup = B;
unicode = 0042;
},
{
glyphname = C;
lastChange = "2015-07-31 18:27:42 +0000";
layers = (
{
layerId = UUID0;
name = Regular;
paths = (
{
closed = 1;
nodes = (
"600 447 LINE",
"575 568 OFFCURVE",
"508 635 OFFCURVE",
"397 635 CURVE SMOOTH",
"274 635 OFFCURVE",
"177 563 OFFCURVE",
"177 320 CURVE SMOOTH",
"177 167 OFFCURVE",
"238 25 OFFCURVE",
"397 25 CURVE SMOOTH",
"489 25 OFFCURVE",
"572 75 OFFCURVE",
"620 168 CURVE",
"655 141 LINE",
"592 30 OFFCURVE",
"507 -20 OFFCURVE",
"367 -20 CURVE SMOOTH",
"156 -20 OFFCURVE",
"37 128 OFFCURVE",
"37 320 CURVE SMOOTH",
"37 522 OFFCURVE",
"178 680 OFFCURVE",
"367 680 CURVE SMOOTH",
"492 680 OFFCURVE",
"567 642 OFFCURVE",
"604 599 CURVE",
"631 564 OFFCURVE",
"630 506 OFFCURVE",
"630 447 CURVE"
);
}
);
width = 679;
}
);
leftKerningGroup = C;
rightKerningGroup = C;
unicode = 0043;
},
{
glyphname = D;
lastChange = "2015-07-31 18:27:42 +0000";
layers = (
{
layerId = UUID0;
name = Regular;
paths = (
{
closed = 1;
nodes = (
"300 620 LINE SMOOTH",
"280 620 OFFCURVE",
"262 619 OFFCURVE",
"247 616 CURVE SMOOTH",
"225 613 LINE",
"225 47 LINE",
"247 43 LINE SMOOTH",
"261 41 OFFCURVE",
"279 40 OFFCURVE",
"300 40 CURVE SMOOTH",
"310 40 LINE SMOOTH",
"449 40 OFFCURVE",
"550 150 OFFCURVE",
"550 330 CURVE SMOOTH",
"550 506 OFFCURVE",
"452 620 OFFCURVE",
"308 620 CURVE SMOOTH"
);
},
{
closed = 1;
nodes = (
"287 660 LINE SMOOTH",
"561 660 OFFCURVE",
"700 537 OFFCURVE",
"700 334 CURVE SMOOTH",
"700 137 OFFCURVE",
"565 0 OFFCURVE",
"313 0 CURVE SMOOTH",
"95 0 LINE",
"95 530 LINE SMOOTH",
"95 590 OFFCURVE",
"85 630 OFFCURVE",
"25 630 CURVE SMOOTH",
"15 630 LINE",
"15 660 LINE"
);
}
);
width = 736;
}
);
leftKerningGroup = B;
rightKerningGroup = D;
unicode = 0044;
},
{
glyphname = E;
lastChange = "2015-07-31 18:27:42 +0000";
layers = (
{
layerId = UUID0;
name = Regular;
paths = (
{
closed = 1;
nodes = (
"456 660 LINE SMOOTH",
"525 660 OFFCURVE",
"541 620 OFFCURVE",
"541 580 CURVE SMOOTH",
"541 495 LINE",
"511 495 LINE",
"511 580 OFFCURVE",
"466 615 OFFCURVE",
"386 615 CURVE SMOOTH",
"225 615 LINE",
"225 365 LINE",
"485 365 LINE",
"485 320 LINE",
"225 320 LINE",
"225 45 LINE",
"396 45 LINE SMOOTH",
"469 45 OFFCURVE",
"519 72 OFFCURVE",
"554 159 CURVE",
"581 149 LINE",
"552 70 LINE SMOOTH",
"537 27 OFFCURVE",
"520 0 OFFCURVE",
"465 0 CURVE SMOOTH",
"95 0 LINE",
"95 530 LINE SMOOTH",
"95 590 OFFCURVE",
"85 630 OFFCURVE",
"25 630 CURVE SMOOTH",
"15 630 LINE",
"15 660 LINE"
);
}
);
width = 600;
}
);
leftKerningGroup = B;
rightKerningGroup = E;
unicode = 0045;
},
{
glyphname = F;
lastChange = "2015-07-31 18:27:42 +0000";
layers = (
{
layerId = UUID0;
name = Regular;
paths = (
{
closed = 1;
nodes = (
"434 660 LINE SMOOTH",
"503 660 OFFCURVE",
"519 620 OFFCURVE",
"519 580 CURVE SMOOTH",
"519 495 LINE",
"489 495 LINE",
"489 582 OFFCURVE",
"444 615 OFFCURVE",
"364 615 CURVE SMOOTH",
"225 615 LINE",
"225 360 LINE",
"445 360 LINE",
"445 315 LINE",
"225 315 LINE",
"225 0 LINE",
"95 0 LINE",
"95 530 LINE SMOOTH",
"95 590 OFFCURVE",
"85 630 OFFCURVE",
"25 630 CURVE SMOOTH",
"15 630 LINE",
"15 660 LINE"
);
}
);
width = 539;
}
);
leftKerningGroup = B;
unicode = 0046;
},
{
glyphname = G;
lastChange = "2015-07-31 18:27:42 +0000";
layers = (
{
layerId = UUID0;
name = Regular;
paths = (
{
closed = 1;
nodes = (
"660 47 LINE",
"583 0 OFFCURVE",
"498 -20 OFFCURVE",
"395 -20 CURVE SMOOTH",
"187 -20 OFFCURVE",
"35 138 OFFCURVE",
"35 340 CURVE SMOOTH",
"35 532 OFFCURVE",
"166 680 OFFCURVE",
"365 680 CURVE SMOOTH",
"490 680 OFFCURVE",
"570 642 OFFCURVE",
"607 599 CURVE",
"633 565 OFFCURVE",
"633 505 OFFCURVE",
"633 460 CURVE",
"603 460 LINE",
"578 583 OFFCURVE",
"511 635 OFFCURVE",
"395 635 CURVE SMOOTH",
"236 635 OFFCURVE",
"175 493 OFFCURVE",
"175 340 CURVE SMOOTH",
"175 97 OFFCURVE",
"272 20 OFFCURVE",
"395 20 CURVE SMOOTH",
"455 20 OFFCURVE",
"495 30 OFFCURVE",
"530 46 CURVE",
"530 224 LINE SMOOTH",
"530 279 OFFCURVE",
"554 346 OFFCURVE",
"724 346 CURVE",
"724 321 LINE",
"679 321 OFFCURVE",
"660 286 OFFCURVE",
"660 226 CURVE SMOOTH"
);
}
);
width = 734;
}
);
leftKerningGroup = C;
rightKerningGroup = G;
unicode = 0047;
},
{
glyphname = H;
lastChange = "2015-07-31 18:27:42 +0000";
layers = (
{
layerId = UUID0;
name = Regular;
paths = (
{
closed = 1;
nodes = (
"495 660 LINE",
"625 660 LINE",
"625 130 LINE SMOOTH",
"625 70 OFFCURVE",
"635 30 OFFCURVE",
"695 30 CURVE SMOOTH",
"705 30 LINE",
"705 0 LINE",
"585 0 LINE SMOOTH",
"515 0 OFFCURVE",
"495 29 OFFCURVE",
"495 130 CURVE SMOOTH",
"495 320 LINE",
"225 320 LINE",
"225 0 LINE",
"95 0 LINE",
"95 530 LINE SMOOTH",
"95 590 OFFCURVE",
"85 630 OFFCURVE",
"25 630 CURVE SMOOTH",
"15 630 LINE",
"15 660 LINE",
"135 660 LINE SMOOTH",
"205 660 OFFCURVE",
"225 629 OFFCURVE",
"225 530 CURVE SMOOTH",
"225 365 LINE",
"495 365 LINE"
);
}
);
width = 720;
}
);
leftKerningGroup = B;
rightKerningGroup = H;
unicode = 0048;
},
{
glyphname = I;
lastChange = "2015-07-31 18:27:42 +0000";
layers = (
{
layerId = UUID0;
name = Regular;
paths = (
{
closed = 1;
nodes = (
"79 660 LINE",
"209 660 LINE",
"209 130 LINE SMOOTH",
"209 70 OFFCURVE",
"219 30 OFFCURVE",
"279 30 CURVE SMOOTH",
"289 30 LINE",
"289 0 LINE",
"169 0 LINE SMOOTH",
"99 0 OFFCURVE",
"79 29 OFFCURVE",
"79 130 CURVE SMOOTH"
);
}
);
width = 304;
}
);
leftKerningGroup = I;
rightKerningGroup = H;
unicode = 0049;
},
{
glyphname = J;
lastChange = "2015-07-31 18:27:42 +0000";
layers = (
{
layerId = UUID0;
name = Regular;
paths = (
{
closed = 1;
nodes = (
"204 83 LINE SMOOTH",
"204 -89 OFFCURVE",
"161 -137 OFFCURVE",
"-19 -137 CURVE",
"-19 -107 LINE",
"41 -99 OFFCURVE",
"74 -59 OFFCURVE",
"74 83 CURVE SMOOTH",
"74 660 LINE",
"204 660 LINE"
);
}
);
width = 278;
}
);
unicode = 004A;
},
{
glyphname = K;
lastChange = "2015-07-31 18:27:42 +0000";
layers = (
{
layerId = UUID0;
name = Regular;
paths = (
{
closed = 1;
nodes = (
"95 530 LINE SMOOTH",
"95 590 OFFCURVE",
"85 630 OFFCURVE",
"25 630 CURVE SMOOTH",
"15 630 LINE",
"15 660 LINE",
"135 660 LINE SMOOTH",
"204 660 OFFCURVE",
"226 629 OFFCURVE",
"226 530 CURVE SMOOTH",
"226 340 LINE",
"399 555 LINE",
"442 611 OFFCURVE",
"497 660 OFFCURVE",
"576 660 CURVE SMOOTH",
"646 660 LINE",
"646 625 LINE",
"570 625 OFFCURVE",
"508 610 OFFCURVE",
"463 554 CURVE SMOOTH",
"314 370 LINE",
"545 130 LINE",
"595 75 OFFCURVE",
"665 29 OFFCURVE",
"704 24 CURVE",
"704 0 LINE",
"689 -5 OFFCURVE",
"662 -10 OFFCURVE",
"631 -10 CURVE SMOOTH",
"557 -10 OFFCURVE",
"482 10 OFFCURVE",
"387 110 CURVE SMOOTH",
"226 278 LINE",
"226 0 LINE",
"96 0 LINE"
);
}
);
width = 693;
}
);
leftKerningGroup = B;
unicode = 004B;
},
{
glyphname = L;
lastChange = "2015-07-31 18:27:42 +0000";
layers = (
{
layerId = UUID0;
name = Regular;
paths = (
{
closed = 1;
nodes = (
"570 45 LINE",
"570 0 LINE",
"95 0 LINE",
"95 530 LINE SMOOTH",
"95 590 OFFCURVE",
"85 630 OFFCURVE",
"25 630 CURVE SMOOTH",
"15 630 LINE",
"15 660 LINE",
"135 660 LINE SMOOTH",
"205 660 OFFCURVE",
"225 629 OFFCURVE",
"225 530 CURVE SMOOTH",
"225 45 LINE"
);
}
);
width = 570;
}
);
leftKerningGroup = B;
unicode = 004C;
},
{
glyphname = M;
lastChange = "2015-07-31 18:27:42 +0000";
layers = (
{
layerId = UUID0;
name = Regular;
paths = (
{
closed = 1;
nodes = (
"774 170 LINE SMOOTH",
"774 49 OFFCURVE",
"791 -9 OFFCURVE",
"847 -20 CURVE",
"847 -45 LINE",
"702 -45 OFFCURVE",
"644 19 OFFCURVE",
"644 170 CURVE SMOOTH",
"644 524 LINE",
"425 0 LINE",
"392 0 LINE",
"124 544 LINE",
"124 0 LINE",
"74 0 LINE",
"74 660 LINE",
"196 660 LINE",
"438 169 LINE",
"643 660 LINE",
"774 660 LINE"
);
}
);
width = 867;
}
);
unicode = 004D;
},
{
glyphname = N;
lastChange = "2015-07-31 18:27:42 +0000";
layers = (
{
layerId = UUID0;
name = Regular;
paths = (
{
closed = 1;
nodes = (
"568 200 LINE",
"568 660 LINE",
"618 660 LINE",
"618 -3 LINE",
"572 -3 LINE",
"148 495 LINE",
"148 0 LINE",
"98 0 LINE",
"98 540 LINE SMOOTH",
"98 591 OFFCURVE",
"78 630 OFFCURVE",
"8 630 CURVE SMOOTH",
"3 630 LINE",
"3 660 LINE",
"73 660 LINE SMOOTH",
"149 660 OFFCURVE",
"193 640 OFFCURVE",
"224 600 CURVE"
);
}
);
width = 692;
}
);
leftKerningGroup = B;
unicode = 004E;
},
{
glyphname = O;
lastChange = "2015-07-31 18:27:42 +0000";
layers = (
{
layerId = UUID0;
name = Regular;
paths = (
{
closed = 1;
nodes = (
"558 525 OFFCURVE",
"488 635 OFFCURVE",
"367 635 CURVE SMOOTH",
"246 635 OFFCURVE",
"177 525 OFFCURVE",
"177 330 CURVE SMOOTH",
"177 135 OFFCURVE",
"246 25 OFFCURVE",
"367 25 CURVE SMOOTH",
"488 25 OFFCURVE",
"558 135 OFFCURVE",
"558 330 CURVE SMOOTH"
);
},
{
closed = 1;
nodes = (
"37 527 OFFCURVE",
"168 680 OFFCURVE",
"367 680 CURVE SMOOTH",
"566 680 OFFCURVE",
"696 527 OFFCURVE",
"696 330 CURVE SMOOTH",
"696 133 OFFCURVE",
"566 -20 OFFCURVE",
"367 -20 CURVE SMOOTH",
"168 -20 OFFCURVE",
"37 133 OFFCURVE",
"37 330 CURVE SMOOTH"
);
}
);
width = 733;
}
);
leftKerningGroup = C;
rightKerningGroup = O;
unicode = 004F;
},
{
glyphname = P;
lastChange = "2015-07-31 18:27:42 +0000";
layers = (
{
layerId = UUID0;
name = Regular;
paths = (
{
closed = 1;
nodes = (
"274 620 OFFCURVE",
"257 619 OFFCURVE",
"245 616 CURVE",
"225 613 LINE",
"225 307 LINE",
"285 307 LINE SMOOTH",
"353 307 OFFCURVE",
"420 340 OFFCURVE",
"420 464 CURVE SMOOTH",
"420 587 OFFCURVE",
"353 620 OFFCURVE",
"290 620 CURVE SMOOTH"
);
},
{
closed = 1;
nodes = (
"290 660 LINE SMOOTH",
"380 660 OFFCURVE",
"560 642 OFFCURVE",
"560 459 CURVE SMOOTH",
"560 286 OFFCURVE",
"379 267 OFFCURVE",
"320 267 CURVE SMOOTH",
"225 267 LINE",
"225 0 LINE",
"95 0 LINE",
"95 530 LINE SMOOTH",
"95 590 OFFCURVE",
"85 630 OFFCURVE",
"25 630 CURVE SMOOTH",
"15 630 LINE",
"15 660 LINE"
);
}
);
width = 577;
}
);
leftKerningGroup = B;
unicode = 0050;
},
{
glyphname = Q;
lastChange = "2015-07-31 18:27:42 +0000";
layers = (
{
layerId = UUID0;
name = Regular;
paths = (
{
closed = 1;
nodes = (
"38 527 OFFCURVE",
"169 680 OFFCURVE",
"368 680 CURVE SMOOTH",
"567 680 OFFCURVE",
"697 527 OFFCURVE",
"697 330 CURVE SMOOTH",
"697 164 OFFCURVE",
"607 33 OFFCURVE",
"463 -7 CURVE",
"498 -104 OFFCURVE",
"609 -179 OFFCURVE",
"693 -179 CURVE",
"693 -205 LINE",
"541 -205 OFFCURVE",
"386 -152 OFFCURVE",
"264 -4 CURVE",
"125 39 OFFCURVE",
"38 169 OFFCURVE",
"38 330 CURVE SMOOTH"
);
},
{
closed = 1;
nodes = (
"559 525 OFFCURVE",
"489 635 OFFCURVE",
"368 635 CURVE SMOOTH",
"247 635 OFFCURVE",
"178 525 OFFCURVE",
"178 330 CURVE SMOOTH",
"178 135 OFFCURVE",
"247 25 OFFCURVE",
"368 25 CURVE SMOOTH",
"489 25 OFFCURVE",
"559 135 OFFCURVE",
"559 330 CURVE SMOOTH"
);
}
);
width = 735;
}
);
leftKerningGroup = C;
rightKerningGroup = O;
unicode = 0051;
},
{
glyphname = R;
lastChange = "2015-07-31 18:27:42 +0000";
layers = (
{
layerId = UUID0;
name = Regular;
paths = (
{
closed = 1;
nodes = (
"275 620 OFFCURVE",
"258 619 OFFCURVE",
"246 616 CURVE",
"226 613 LINE",
"226 342 LINE",
"286 342 LINE SMOOTH",
"350 342 OFFCURVE",
"421 376 OFFCURVE",
"421 481 CURVE SMOOTH",
"421 585 OFFCURVE",
"350 620 OFFCURVE",
"291 620 CURVE SMOOTH"
);
},
{
closed = 1;
nodes = (
"266 302 LINE",
"226 302 LINE",
"226 0 LINE",
"95 0 LINE",
"95 530 LINE SMOOTH",
"95 590 OFFCURVE",
"85 630 OFFCURVE",
"25 630 CURVE SMOOTH",
"15 630 LINE",
"15 660 LINE",
"291 660 LINE SMOOTH",
"386 660 OFFCURVE",
"561 640 OFFCURVE",
"561 476 CURVE SMOOTH",
"561 371 OFFCURVE",
"475 329 OFFCURVE",
"399 310 CURVE",
"504 135 LINE SMOOTH",
"555 50 OFFCURVE",
"599 30 OFFCURVE",
"628 25 CURVE",
"628 0 LINE",
"617 -5 OFFCURVE",
"585 -10 OFFCURVE",
"560 -10 CURVE SMOOTH",
"489 -10 OFFCURVE",
"433 25 OFFCURVE",
"366 135 CURVE SMOOTH"
);
}
);
width = 616;
}
);
leftKerningGroup = B;
unicode = 0052;
},
{
glyphname = S;
lastChange = "2015-07-31 18:27:42 +0000";
layers = (
{
layerId = UUID0;
name = Regular;
paths = (
{
closed = 1;
nodes = (
"164 -17 OFFCURVE",
"47 27 OFFCURVE",
"47 103 CURVE SMOOTH",
"47 220 LINE",
"75 220 LINE",
"96 81 OFFCURVE",
"160 28 OFFCURVE",
"272 28 CURVE SMOOTH",
"348 28 OFFCURVE",
"398 61 OFFCURVE",
"398 125 CURVE SMOOTH",
"398 182 OFFCURVE",
"359 215 OFFCURVE",
"295 254 CURVE SMOOTH",
"172 328 LINE",
"81 381 OFFCURVE",
"48 434 OFFCURVE",
"48 507 CURVE SMOOTH",
"48 612 OFFCURVE",
"135 678 OFFCURVE",
"272 678 CURVE SMOOTH",
"381 678 OFFCURVE",
"498 634 OFFCURVE",
"498 558 CURVE SMOOTH",
"498 441 LINE",
"470 441 LINE",
"447 580 OFFCURVE",
"384 633 OFFCURVE",
"283 633 CURVE SMOOTH",
"211 633 OFFCURVE",
"166 596 OFFCURVE",
"166 536 CURVE SMOOTH",
"166 480 OFFCURVE",
"207 451 OFFCURVE",
"270 414 CURVE SMOOTH",
"393 341 LINE SMOOTH",
"484 288 OFFCURVE",
"524 242 OFFCURVE",
"524 169 CURVE SMOOTH",
"524 54 OFFCURVE",
"434 -17 OFFCURVE",
"273 -17 CURVE SMOOTH"
);
}
);
width = 561;
}
);
leftKerningGroup = S;
rightKerningGroup = S;
unicode = 0053;
},
{
glyphname = T;
lastChange = "2015-07-31 18:27:42 +0000";
layers = (
{
layerId = UUID0;
name = Regular;
paths = (
{
closed = 1;
nodes = (
"571 660 LINE",
"571 615 LINE",
"362 615 LINE",
"362 0 LINE",
"232 0 LINE",
"232 615 LINE",
"161 615 LINE SMOOTH",
"90 615 OFFCURVE",
"46 584 OFFCURVE",
"46 495 CURVE",
"16 495 LINE",
"16 580 LINE SMOOTH",
"16 620 OFFCURVE",
"32 660 OFFCURVE",
"101 660 CURVE SMOOTH"
);
}
);
width = 575;
}
);
unicode = 0054;
},
{
glyphname = U;
lastChange = "2015-07-31 18:27:42 +0000";
layers = (
{
layerId = UUID0;
name = Regular;
paths = (
{
closed = 1;
nodes = (
"223 258 LINE SMOOTH",
"224 119 OFFCURVE",
"277 35 OFFCURVE",
"382 35 CURVE SMOOTH",
"518 35 OFFCURVE",
"577 113 OFFCURVE",
"577 288 CURVE SMOOTH",
"577 660 LINE",
"627 660 LINE",
"627 288 LINE SMOOTH",
"627 100 OFFCURVE",
"557 -10 OFFCURVE",
"362 -10 CURVE SMOOTH",
"182 -10 OFFCURVE",
"92 89 OFFCURVE",
"92 288 CURVE SMOOTH",
"92 530 LINE SMOOTH",
"92 590 OFFCURVE",
"82 630 OFFCURVE",
"22 630 CURVE",
"22 660 LINE",
"132 660 LINE SMOOTH",
"202 660 OFFCURVE",
"222 629 OFFCURVE",
"222 530 CURVE SMOOTH"
);
}
);
width = 694;
}
);
leftKerningGroup = U;
rightKerningGroup = U;
unicode = 0055;
},
{
glyphname = V;
lastChange = "2015-07-31 18:27:42 +0000";
layers = (
{
layerId = UUID0;
name = Regular;
paths = (
{
closed = 1;
nodes = (
"66 543 LINE SMOOTH",
"34 618 OFFCURVE",
"7 643 OFFCURVE",
"-33 648 CURVE",
"-33 668 LINE",
"-28 668 OFFCURVE",
"0 670 OFFCURVE",
"9 670 CURVE SMOOTH",
"78 670 OFFCURVE",
"159 657 OFFCURVE",
"207 543 CURVE SMOOTH",
"365 169 LINE",
"576 660 LINE",
"627 660 LINE",
"339 -10 LINE",
"299 -10 LINE"
);
}
);
width = 635;
}
);
unicode = 0056;
},
{
glyphname = W;
lastChange = "2015-07-31 18:27:42 +0000";
layers = (
{
layerId = UUID0;
name = Regular;
paths = (
{
closed = 1;
nodes = (
"666 179 LINE",
"837 660 LINE",
"885 660 LINE",
"648 -9 LINE",
"608 -9 LINE",
"454 383 LINE",
"317 -9 LINE",
"277 -9 LINE",
"61 543 LINE",
"30 619 OFFCURVE",
"2 643 OFFCURVE",
"-38 648 CURVE",
"-38 668 LINE",
"-33 668 OFFCURVE",
"-5 670 OFFCURVE",
"4 670 CURVE SMOOTH",
"74 670 OFFCURVE",
"156 659 OFFCURVE",
"202 543 CURVE SMOOTH",
"337 198 LINE",
"427 454 LINE",
"392 543 LINE SMOOTH",
"361 619 OFFCURVE",
"326 643 OFFCURVE",
"286 648 CURVE",
"286 668 LINE",
"291 668 OFFCURVE",
"316 670 OFFCURVE",
"325 670 CURVE SMOOTH",
"395 670 OFFCURVE",
"477 658 OFFCURVE",
"523 543 CURVE SMOOTH"
);
}
);
width = 906;
}
);
unicode = 0057;
},
{
glyphname = X;
lastChange = "2015-07-31 18:27:42 +0000";
layers = (
{
layerId = UUID0;
name = Regular;
paths = (
{
closed = 1;
nodes = (
"347 416 LINE",
"540 660 LINE",
"605 660 LINE",
"376 371 LINE",
"533 130 LINE SMOOTH",
"566 78 OFFCURVE",
"622 25 OFFCURVE",
"667 20 CURVE",
"667 0 LINE",
"557 0 LINE SMOOTH",
"482 0 OFFCURVE",
"426 59 OFFCURVE",
"394 110 CURVE SMOOTH",
"293 266 LINE",
"82 0 LINE",
"17 0 LINE",
"263 311 LINE",
"121 530 LINE SMOOTH",
"88 582 OFFCURVE",
"32 635 OFFCURVE",
"-13 640 CURVE",
"-13 660 LINE",
"97 660 LINE SMOOTH",
"172 660 OFFCURVE",
"228 601 OFFCURVE",
"260 550 CURVE SMOOTH"
);
}
);
width = 647;
}
);
unicode = 0058;
},
{
glyphname = Y;
lastChange = "2015-07-31 18:27:42 +0000";
layers = (
{
layerId = UUID0;
name = Regular;
paths = (
{
closed = 1;
nodes = (
"377 345 LINE",
"571 660 LINE",
"636 660 LINE",
"409 291 LINE",
"409 0 LINE",
"279 0 LINE",
"279 264 LINE",
"102 530 LINE",
"67 581 OFFCURVE",
"15 635 OFFCURVE",
"-31 640 CURVE",
"-31 660 LINE",
"78 660 LINE SMOOTH",
"153 660 OFFCURVE",
"209 601 OFFCURVE",
"241 550 CURVE"
);
}
);
width = 638;
}
);
leftKerningGroup = Y;
rightKerningGroup = Y;
unicode = 0059;
},
{
glyphname = Z;
lastChange = "2015-07-31 18:27:42 +0000";
layers = (
{
layerId = UUID0;
name = Regular;
paths = (
{
closed = 1;
nodes = (
"581 660 LINE",
"189 45 LINE",
"576 45 LINE",
"576 0 LINE",
"31 0 LINE",
"31 32 LINE",
"403 616 LINE",
"186 616 LINE SMOOTH",
"115 616 OFFCURVE",
"71 584 OFFCURVE",
"71 495 CURVE",
"41 495 LINE",
"41 580 LINE SMOOTH",
"41 620 OFFCURVE",
"57 660 OFFCURVE",
"126 660 CURVE SMOOTH"
);
}
);
width = 599;
}
);
leftKerningGroup = Z;
rightKerningGroup = Z;
unicode = 005A;
},
{
glyphname = bracketleft;
lastChange = "2015-07-31 18:27:42 +0000";
layers = (
{
layerId = UUID0;
name = Regular;
paths = (
{
closed = 1;
nodes = (
"311 -200 LINE",
"66 -200 LINE",
"66 680 LINE",
"311 680 LINE",
"311 635 LINE",
"186 635 LINE",
"186 -155 LINE",
"311 -155 LINE"
);
}
);
width = 331;
}
);
unicode = 005B;
},
{
glyphname = backslash;
lastChange = "2015-07-31 18:27:42 +0000";
layers = (
{
layerId = UUID0;
name = Regular;
paths = (
{
closed = 1;
nodes = (
"342 0 LINE",
"21 660 LINE",
"133 660 LINE",
"454 0 LINE"
);
}
);
width = 475;
}
);
unicode = 005C;
},
{
glyphname = bracketright;
lastChange = "2015-07-31 18:27:42 +0000";
layers = (
{
layerId = UUID0;
name = Regular;
paths = (
{
closed = 1;
nodes = (
"20 -155 LINE",
"145 -155 LINE",
"145 635 LINE",
"20 635 LINE",
"20 680 LINE",
"265 680 LINE",
"265 -200 LINE",
"20 -200 LINE"
);
}
);
width = 331;
}
);
unicode = 005D;
},
{
glyphname = asciicircum;
lastChange = "2015-07-31 18:27:42 +0000";
layers = (
{
layerId = UUID0;
name = Regular;
paths = (
{
closed = 1;
nodes = (
"279 680 LINE",
"494 330 LINE",
"396 330 LINE",
"257 557 LINE",
"118 330 LINE",
"20 330 LINE",
"235 680 LINE"
);
}
);
width = 514;
}
);
unicode = 005E;
},
{
glyphname = underscore;
lastChange = "2015-07-31 18:27:42 +0000";
layers = (
{
layerId = UUID0;
name = Regular;
paths = (
{
closed = 1;
nodes = (
"428 -70 LINE",
"8 -70 LINE",
"8 0 LINE",
"428 0 LINE"
);
}
);
width = 436;
}
);
unicode = 005F;
},
{
glyphname = grave;
lastChange = "2015-07-31 18:27:42 +0000";
layers = (
{
layerId = UUID0;
name = Regular;
paths = (
{
closed = 1;
nodes = (
"20 680 LINE",
"145 680 LINE",
"207 477 LINE",
"133 477 LINE"
);
}
);
width = 227;
}
);
unicode = 0060;
},
{
glyphname = a;
lastChange = "2015-07-31 18:27:42 +0000";
layers = (
{
layerId = UUID0;
name = Regular;
paths = (
{
closed = 1;
nodes = (
"314 230 LINE",
"299 230 LINE SMOOTH",
"203 230 OFFCURVE",
"164 196 OFFCURVE",
"164 125 CURVE SMOOTH",
"164 69 OFFCURVE",
"189 40 OFFCURVE",
"229 40 CURVE SMOOTH",
"260 40 OFFCURVE",
"279 56 OFFCURVE",
"294 72 CURVE SMOOTH",
"302 81 OFFCURVE",
"309 92 OFFCURVE",
"314 105 CURVE"
);
},
{
closed = 1;
nodes = (
"370 480 OFFCURVE",
"444 411 OFFCURVE",
"444 270 CURVE SMOOTH",
"444 0 LINE",
"359 0 LINE",
"324 45 LINE",
"319 45 LINE",
"312 34 OFFCURVE",
"302 25 OFFCURVE",
"291 17 CURVE SMOOTH",
"272 2 OFFCURVE",
"242 -10 OFFCURVE",
"199 -10 CURVE SMOOTH",
"88 -10 OFFCURVE",
"29 45 OFFCURVE",
"29 125 CURVE SMOOTH",
"29 220 OFFCURVE",
"84 275 OFFCURVE",
"299 275 CURVE SMOOTH",
"314 275 LINE",
"314 395 OFFCURVE",
"279 435 OFFCURVE",
"219 435 CURVE SMOOTH",
"174 435 OFFCURVE",
"135 420 OFFCURVE",
"119 345 CURVE",
"64 345 LINE",
"64 380 OFFCURVE",
"65 418 OFFCURVE",
"89 445 CURVE SMOOTH",
"113 472 OFFCURVE",
"174 480 OFFCURVE",
"239 480 CURVE SMOOTH"
);
}
);
width = 496;
}
);
leftKerningGroup = a;
rightKerningGroup = a;
unicode = 0061;
},
{
glyphname = b;
lastChange = "2015-07-31 18:27:42 +0000";
layers = (
{
layerId = UUID0;
name = Regular;
paths = (
{
closed = 1;
nodes = (
"190 100 LINE",
"196 87 OFFCURVE",
"203 76 OFFCURVE",
"212 67 CURVE SMOOTH",
"227 51 OFFCURVE",
"249 35 OFFCURVE",
"280 35 CURVE SMOOTH",
"349 35 OFFCURVE",
"375 120 OFFCURVE",
"375 235 CURVE SMOOTH",
"375 350 OFFCURVE",
"350 435 OFFCURVE",
"275 435 CURVE SMOOTH",
"250 435 OFFCURVE",
"229 427 OFFCURVE",
"214 420 CURVE SMOOTH",
"205 415 OFFCURVE",
"197 410 OFFCURVE",
"190 405 CURVE"
);
},
{
closed = 1;
nodes = (
"60 530 LINE SMOOTH",
"60 590 OFFCURVE",
"50 630 OFFCURVE",
"-10 630 CURVE SMOOTH",
"-20 630 LINE",
"-20 660 LINE",
"100 660 LINE SMOOTH",
"170 660 OFFCURVE",
"190 629 OFFCURVE",
"190 530 CURVE SMOOTH",
"190 450 LINE",
"198 455 OFFCURVE",
"207 460 OFFCURVE",
"218 465 CURVE SMOOTH",
"237 472 OFFCURVE",
"262 480 OFFCURVE",
"295 480 CURVE SMOOTH",
"440 480 OFFCURVE",
"510 372 OFFCURVE",
"510 235 CURVE SMOOTH",
"510 98 OFFCURVE",
"440 -10 OFFCURVE",
"300 -10 CURVE SMOOTH",
"260 -10 OFFCURVE",
"231 2 OFFCURVE",
"212 17 CURVE SMOOTH",
"201 25 OFFCURVE",
"192 34 OFFCURVE",
"185 45 CURVE",
"180 45 LINE",
"145 0 LINE",
"60 0 LINE"
);
}
);
width = 547;
}
);
leftKerningGroup = b;
rightKerningGroup = b;
unicode = 0062;
},
{
glyphname = c;
lastChange = "2015-07-31 18:27:42 +0000";
layers = (
{
layerId = UUID0;
name = Regular;
paths = (
{
closed = 1;
nodes = (
"220 435 OFFCURVE",
"171 371 OFFCURVE",
"171 235 CURVE SMOOTH",
"171 102 OFFCURVE",
"213 35 OFFCURVE",
"296 35 CURVE SMOOTH",
"365 35 OFFCURVE",
"404 71 OFFCURVE",
"439 118 CURVE",
"470 95 LINE",
"441 50 OFFCURVE",
"391 -10 OFFCURVE",
"276 -10 CURVE SMOOTH",
"116 -10 OFFCURVE",
"36 102 OFFCURVE",
"36 235 CURVE SMOOTH",
"36 368 OFFCURVE",
"116 480 OFFCURVE",
"276 480 CURVE SMOOTH",
"352 480 OFFCURVE",
"406 470 OFFCURVE",
"431 445 CURVE SMOOTH",
"456 420 OFFCURVE",
"456 381 OFFCURVE",
"456 305 CURVE",
"426 305 LINE",
"421 390 OFFCURVE",
"371 435 OFFCURVE",
"291 435 CURVE SMOOTH"
);
}
);
width = 496;
}
);
leftKerningGroup = c;
rightKerningGroup = c;
unicode = 0063;
},
{
glyphname = d;
lastChange = "2015-07-31 18:27:42 +0000";
layers = (
{
layerId = UUID0;
name = Regular;
paths = (
{
closed = 1;
nodes = (
"357 405 LINE",
"350 410 OFFCURVE",
"342 415 OFFCURVE",
"333 420 CURVE SMOOTH",
"318 427 OFFCURVE",
"297 435 OFFCURVE",
"272 435 CURVE SMOOTH",
"197 435 OFFCURVE",
"172 350 OFFCURVE",
"172 235 CURVE SMOOTH",
"172 120 OFFCURVE",
"197 35 OFFCURVE",
"267 35 CURVE SMOOTH",
"298 35 OFFCURVE",
"319 51 OFFCURVE",
"334 67 CURVE SMOOTH",
"343 76 OFFCURVE",
"350 87 OFFCURVE",
"357 100 CURVE"
);
},
{
closed = 1;
nodes = (
"357 530 LINE SMOOTH",
"357 590 OFFCURVE",
"347 630 OFFCURVE",
"287 630 CURVE SMOOTH",
"277 630 LINE",
"277 660 LINE",
"397 660 LINE SMOOTH",
"467 660 OFFCURVE",
"487 629 OFFCURVE",
"487 530 CURVE SMOOTH",
"487 0 LINE",
"402 0 LINE",
"367 45 LINE",
"362 45 LINE",
"355 34 OFFCURVE",
"345 25 OFFCURVE",
"334 17 CURVE SMOOTH",
"315 2 OFFCURVE",
"287 -10 OFFCURVE",
"247 -10 CURVE SMOOTH",
"107 -10 OFFCURVE",
"37 98 OFFCURVE",
"37 235 CURVE SMOOTH",
"37 372 OFFCURVE",
"107 480 OFFCURVE",
"252 480 CURVE SMOOTH",
"284 480 OFFCURVE",
"310 472 OFFCURVE",
"329 465 CURVE SMOOTH",
"340 460 OFFCURVE",
"349 455 OFFCURVE",
"357 450 CURVE"
);
}
);
width = 547;
}
);
leftKerningGroup = c;
unicode = 0064;
},
{
glyphname = e;
lastChange = "2015-07-31 18:27:42 +0000";
layers = (
{
layerId = UUID0;
name = Regular;
paths = (
{
closed = 1;
nodes = (
"351 35 OFFCURVE",
"390 71 OFFCURVE",
"425 118 CURVE",
"456 95 LINE",
"427 50 OFFCURVE",
"376 -10 OFFCURVE",
"267 -10 CURVE SMOOTH",
"126 -10 OFFCURVE",
"37 95 OFFCURVE",
"37 235 CURVE SMOOTH",
"37 395 OFFCURVE",
"133 480 OFFCURVE",
"257 480 CURVE SMOOTH",
"381 480 OFFCURVE",
"477 400 OFFCURVE",
"477 280 CURVE SMOOTH",
"477 265 OFFCURVE",
"476 249 OFFCURVE",
"475 237 CURVE SMOOTH",
"473 217 LINE",
"172 217 LINE",
"172 85 OFFCURVE",
"217 35 OFFCURVE",
"282 35 CURVE SMOOTH"
);
},
{
closed = 1;
nodes = (
"342 262 LINE",
"342 394 OFFCURVE",
"307 435 OFFCURVE",
"257 435 CURVE SMOOTH",
"212 435 OFFCURVE",
"172 394 OFFCURVE",
"172 262 CURVE"
);
}
);
width = 509;
}
);
leftKerningGroup = c;
rightKerningGroup = e;
unicode = 0065;
},
{
glyphname = f;
lastChange = "2015-07-31 18:27:42 +0000";
layers = (
{
layerId = UUID0;
name = Regular;
paths = (
{
closed = 1;
nodes = (
"302 670 OFFCURVE",
"341 664 OFFCURVE",
"358 653 CURVE SMOOTH",
"375 643 OFFCURVE",
"388 629 OFFCURVE",
"397 610 CURVE",
"357 575 LINE",
"337 606 OFFCURVE",
"307 625 OFFCURVE",
"272 625 CURVE SMOOTH",
"227 625 OFFCURVE",
"202 594 OFFCURVE",
"202 497 CURVE SMOOTH",
"202 470 LINE",
"332 470 LINE",
"332 425 LINE",
"202 425 LINE",
"202 0 LINE",
"72 0 LINE",
"72 425 LINE",
"12 425 LINE",
"12 470 LINE",
"72 470 LINE",
"72 497 LINE SMOOTH",
"72 610 OFFCURVE",
"136 670 OFFCURVE",
"267 670 CURVE SMOOTH"
);
}
);
width = 342;
}
);
unicode = 0066;
},
{
glyphname = g;
lastChange = "2015-07-31 18:27:42 +0000";
layers = (
{
layerId = UUID0;
name = Regular;
paths = (
{
closed = 1;
nodes = (
"44 440 OFFCURVE",
"139 480 OFFCURVE",
"259 480 CURVE SMOOTH",
"469 480 LINE",
"469 453 LINE",
"379 441 LINE",
"435 420 OFFCURVE",
"474 371 OFFCURVE",
"474 324 CURVE SMOOTH",
"474 209 OFFCURVE",
"389 170 OFFCURVE",
"259 170 CURVE SMOOTH",
"199 170 OFFCURVE",
"159 167 OFFCURVE",
"159 140 CURVE SMOOTH",
"159 117 OFFCURVE",
"199 114 OFFCURVE",
"259 113 CURVE SMOOTH",
"394 110 OFFCURVE",
"504 60 OFFCURVE",
"504 -45 CURVE SMOOTH",
"504 -161 OFFCURVE",
"399 -200 OFFCURVE",
"259 -200 CURVE SMOOTH",
"119 -200 OFFCURVE",
"14 -161 OFFCURVE",
"14 -45 CURVE SMOOTH",
"14 27 OFFCURVE",
"85 69 OFFCURVE",
"149 85 CURVE",
"124 93 OFFCURVE",
"104 109 OFFCURVE",
"104 140 CURVE SMOOTH",
"104 163 OFFCURVE",
"117 179 OFFCURVE",
"144 190 CURVE",
"88 210 OFFCURVE",
"44 263 OFFCURVE",
"44 324 CURVE SMOOTH"
);
},
{
closed = 1;
nodes = (
"220 72 LINE",
"176 53 OFFCURVE",
"149 19 OFFCURVE",
"149 -45 CURVE SMOOTH",
"149 -121 OFFCURVE",
"192 -155 OFFCURVE",
"259 -155 CURVE SMOOTH",
"326 -155 OFFCURVE",
"369 -121 OFFCURVE",
"369 -45 CURVE SMOOTH",
"369 15 OFFCURVE",
"328 55 OFFCURVE",
"267 67 CURVE"
);
},
{
closed = 1;
nodes = (
"339 400 OFFCURVE",
"306 440 OFFCURVE",
"259 440 CURVE SMOOTH",
"212 440 OFFCURVE",
"179 405 OFFCURVE",
"179 324 CURVE SMOOTH",
"179 241 OFFCURVE",
"212 210 OFFCURVE",
"259 210 CURVE SMOOTH",
"306 210 OFFCURVE",
"339 241 OFFCURVE",
"339 324 CURVE SMOOTH"
);
}
);
width = 523;
}
);
leftKerningGroup = g;
rightKerningGroup = g;
unicode = 0067;
},
{
glyphname = h;
lastChange = "2015-07-31 22:06:25 +0000";
layers = (
{
layerId = UUID0;
name = Regular;
paths = (
{
closed = 1;
nodes = (
"60 530 LINE SMOOTH",
"60 590 OFFCURVE",
"50 630 OFFCURVE",
"-10 630 CURVE SMOOTH",
"-20 630 LINE",
"-20 660 LINE",
"100 660 LINE SMOOTH",
"170 660 OFFCURVE",
"190 629 OFFCURVE",
"190 530 CURVE SMOOTH",
"190 442 LINE",
"199 449 OFFCURVE",
"210 455 OFFCURVE",
"221 461 CURVE SMOOTH",
"240 470 OFFCURVE",
"267 480 OFFCURVE",
"300 480 CURVE SMOOTH",
"391 480 OFFCURVE",
"490 444 OFFCURVE",
"490 297 CURVE SMOOTH",
"490 0 LINE",
"360 0 LINE",
"360 292 LINE SMOOTH",
"360 395 OFFCURVE",
"317 430 OFFCURVE",
"270 430 CURVE SMOOTH",
"247 430 OFFCURVE",
"228 421 OFFCURVE",
"213 412 CURVE SMOOTH",
"205 407 OFFCURVE",
"197 401 OFFCURVE",
"190 395 CURVE",
"190 0 LINE",
"60 0 LINE"
);
}
);
width = 544;
}
);
leftKerningGroup = b;
rightKerningGroup = h;
unicode = 0068;
},
{
glyphname = i;
lastChange = "2015-07-31 18:27:42 +0000";
layers = (
{
layerId = UUID0;
name = Regular;
paths = (
{
closed = 1;
nodes = (
"199 545 OFFCURVE",
"175 524 OFFCURVE",
"144 524 CURVE SMOOTH",
"93 524 OFFCURVE",
"69 560 OFFCURVE",
"69 600 CURVE SMOOTH",
"69 635 OFFCURVE",
"93 656 OFFCURVE",
"124 656 CURVE SMOOTH",
"175 656 OFFCURVE",
"199 620 OFFCURVE",
"199 580 CURVE SMOOTH"
);
},
{
closed = 1;
nodes = (
"79 340 LINE SMOOTH",
"79 400 OFFCURVE",
"69 440 OFFCURVE",
"9 440 CURVE SMOOTH",
"-1 440 LINE",
"-1 470 LINE",
"119 470 LINE SMOOTH",
"189 470 OFFCURVE",
"209 439 OFFCURVE",
"209 340 CURVE SMOOTH",
"209 0 LINE",
"79 0 LINE"
);
}
);
width = 267;
}
);
leftKerningGroup = i;
rightKerningGroup = i;
unicode = 0069;
},
{
glyphname = j;
lastChange = "2015-07-31 18:27:42 +0000";
layers = (
{
layerId = UUID0;
name = Regular;
paths = (
{
closed = 1;
nodes = (
"79 340 LINE SMOOTH",
"79 400 OFFCURVE",
"69 440 OFFCURVE",
"9 440 CURVE SMOOTH",
"-1 440 LINE",
"-1 470 LINE",
"119 470 LINE SMOOTH",
"189 470 OFFCURVE",
"209 439 OFFCURVE",
"209 340 CURVE SMOOTH",
"209 25 LINE SMOOTH",
"209 -140 OFFCURVE",
"155 -190 OFFCURVE",
"-9 -190 CURVE",
"-9 -165 LINE",
"51 -154 OFFCURVE",
"79 -111 OFFCURVE",
"79 25 CURVE SMOOTH"
);
},
{
closed = 1;
nodes = (
"199 545 OFFCURVE",
"175 524 OFFCURVE",
"144 524 CURVE SMOOTH",
"93 524 OFFCURVE",
"69 560 OFFCURVE",
"69 600 CURVE SMOOTH",
"69 635 OFFCURVE",
"93 656 OFFCURVE",
"124 656 CURVE SMOOTH",
"175 656 OFFCURVE",
"199 620 OFFCURVE",
"199 580 CURVE SMOOTH"
);
}
);
width = 267;
}
);
leftKerningGroup = i;
rightKerningGroup = i;
unicode = 006A;
},
{
glyphname = k;
lastChange = "2015-07-31 18:27:42 +0000";
layers = (
{
layerId = UUID0;
name = Regular;
paths = (
{
closed = 1;
nodes = (
"190 196 LINE",
"190 0 LINE",
"60 0 LINE",
"60 530 LINE SMOOTH",
"60 590 OFFCURVE",
"50 630 OFFCURVE",
"-10 630 CURVE SMOOTH",
"-20 630 LINE",
"-20 660 LINE",
"100 660 LINE SMOOTH",
"170 660 OFFCURVE",
"190 629 OFFCURVE",
"190 530 CURVE SMOOTH",
"190 245 LINE",
"311 393 LINE SMOOTH",
"352 442 OFFCURVE",
"384 470 OFFCURVE",
"455 470 CURVE SMOOTH",
"475 470 LINE",
"475 444 LINE",
"435 444 OFFCURVE",
"404 429 OFFCURVE",
"375 394 CURVE SMOOTH",
"278 276 LINE",
"411 100 LINE SMOOTH",
"446 53 OFFCURVE",
"476 31 OFFCURVE",
"504 24 CURVE",
"504 0 LINE",
"493 -5 OFFCURVE",
"460 -10 OFFCURVE",
"435 -10 CURVE SMOOTH",
"379 -10 OFFCURVE",
"330 10 OFFCURVE",
"286 70 CURVE"
);
}
);
width = 505;
}
);
leftKerningGroup = b;
unicode = 006B;
},
{
glyphname = l;
lastChange = "2015-07-31 18:27:42 +0000";
layers = (
{
layerId = UUID0;
name = Regular;
paths = (
{
closed = 1;
nodes = (
"64 530 LINE SMOOTH",
"64 590 OFFCURVE",
"54 630 OFFCURVE",
"-6 630 CURVE SMOOTH",
"-16 630 LINE",
"-16 660 LINE",
"104 660 LINE SMOOTH",
"174 660 OFFCURVE",
"194 629 OFFCURVE",
"194 530 CURVE SMOOTH",
"194 0 LINE",
"64 0 LINE"
);
}
);
width = 258;
}
);
unicode = 006C;
},
{
glyphname = m;
lastChange = "2015-07-31 18:27:42 +0000";
layers = (
{
layerId = UUID0;
name = Regular;
paths = (
{
closed = 1;
nodes = (
"189 432 LINE",
"213 453 OFFCURVE",
"255 480 OFFCURVE",
"315 480 CURVE SMOOTH",
"390 480 OFFCURVE",
"438 441 OFFCURVE",
"453 423 CURVE",
"480 452 OFFCURVE",
"518 480 OFFCURVE",
"595 480 CURVE SMOOTH",
"706 480 OFFCURVE",
"770 425 OFFCURVE",
"770 296 CURVE SMOOTH",
"770 0 LINE",
"640 0 LINE",
"640 297 LINE SMOOTH",
"640 394 OFFCURVE",
"605 430 OFFCURVE",
"560 430 CURVE SMOOTH",
"523 430 OFFCURVE",
"491 413 OFFCURVE",
"474 392 CURVE",
"477 386 OFFCURVE",
"479 379 OFFCURVE",
"482 370 CURVE SMOOTH",
"486 355 OFFCURVE",
"490 331 OFFCURVE",
"490 296 CURVE SMOOTH",
"490 0 LINE",
"360 0 LINE",
"360 297 LINE SMOOTH",
"360 394 OFFCURVE",
"325 430 OFFCURVE",
"280 430 CURVE SMOOTH",
"249 430 OFFCURVE",
"216 407 OFFCURVE",
"203 390 CURVE",
"206 376 LINE",
"209 367 OFFCURVE",
"210 353 OFFCURVE",
"210 337 CURVE SMOOTH",
"210 0 LINE",
"80 0 LINE",
"80 340 LINE SMOOTH",
"80 400 OFFCURVE",
"71 440 OFFCURVE",
"11 440 CURVE SMOOTH",
"1 440 LINE",
"1 470 LINE",
"100 470 LINE SMOOTH",
"140 470 OFFCURVE",
"170 460 OFFCURVE",
"185 432 CURVE"
);
}
);
width = 826;
}
);
leftKerningGroup = m;
rightKerningGroup = h;
unicode = 006D;
},
{
glyphname = n;
lastChange = "2015-07-31 18:27:42 +0000";
layers = (
{
layerId = UUID0;
name = Regular;
paths = (
{
closed = 1;
nodes = (
"252 430 OFFCURVE",
"220 416 OFFCURVE",
"203 399 CURVE",
"206 385 LINE",
"209 376 OFFCURVE",
"210 362 OFFCURVE",
"210 346 CURVE SMOOTH",
"210 0 LINE",
"80 0 LINE",
"80 340 LINE SMOOTH",
"80 400 OFFCURVE",
"71 440 OFFCURVE",
"11 440 CURVE SMOOTH",
"1 440 LINE",
"1 470 LINE",
"100 470 LINE SMOOTH",
"145 470 OFFCURVE",
"169 460 OFFCURVE",
"184 433 CURVE",
"208 455 OFFCURVE",
"248 480 OFFCURVE",
"330 480 CURVE SMOOTH",
"455 480 OFFCURVE",
"520 425 OFFCURVE",
"520 296 CURVE SMOOTH",
"520 0 LINE",
"390 0 LINE",
"390 297 LINE SMOOTH",
"390 394 OFFCURVE",
"350 430 OFFCURVE",
"295 430 CURVE SMOOTH"
);
}
);
width = 575;
}
);
leftKerningGroup = m;
rightKerningGroup = h;
unicode = 006E;
},
{
glyphname = o;
lastChange = "2015-07-31 18:27:42 +0000";
layers = (
{
layerId = UUID0;
name = Regular;
paths = (
{
closed = 1;
nodes = (
"381 350 OFFCURVE",
"346 435 OFFCURVE",
"276 435 CURVE SMOOTH",
"206 435 OFFCURVE",
"171 350 OFFCURVE",
"171 235 CURVE SMOOTH",
"171 120 OFFCURVE",
"206 35 OFFCURVE",
"276 35 CURVE SMOOTH",
"346 35 OFFCURVE",
"381 120 OFFCURVE",
"381 235 CURVE SMOOTH"
);
},
{
closed = 1;
nodes = (
"36 372 OFFCURVE",
"127 480 OFFCURVE",
"276 480 CURVE SMOOTH",
"425 480 OFFCURVE",
"516 372 OFFCURVE",
"516 235 CURVE SMOOTH",
"516 98 OFFCURVE",
"425 -10 OFFCURVE",
"276 -10 CURVE SMOOTH",
"127 -10 OFFCURVE",
"36 98 OFFCURVE",
"36 235 CURVE SMOOTH"
);
}
);
width = 552;
}
);
leftKerningGroup = c;
rightKerningGroup = b;
unicode = 006F;
},
{
glyphname = p;
lastChange = "2015-07-31 18:27:42 +0000";
layers = (
{
layerId = UUID0;
name = Regular;
paths = (
{
closed = 1;
nodes = (
"460 480 OFFCURVE",
"530 372 OFFCURVE",
"530 235 CURVE SMOOTH",
"530 98 OFFCURVE",
"460 -10 OFFCURVE",
"315 -10 CURVE SMOOTH",
"282 -10 OFFCURVE",
"257 -3 OFFCURVE",
"238 5 CURVE SMOOTH",
"227 9 OFFCURVE",
"218 14 OFFCURVE",
"210 20 CURVE",
"210 -190 LINE",
"80 -190 LINE",
"80 340 LINE SMOOTH",
"80 400 OFFCURVE",
"71 440 OFFCURVE",
"11 440 CURVE SMOOTH",
"1 440 LINE",
"1 470 LINE",
"100 470 LINE SMOOTH",
"145 470 OFFCURVE",
"169 460 OFFCURVE",
"184 428 CURVE",
"208 449 OFFCURVE",
"250 480 OFFCURVE",
"320 480 CURVE SMOOTH"
);
},
{
closed = 1;
nodes = (
"249 435 OFFCURVE",
"220 411 OFFCURVE",
"203 394 CURVE",
"206 380 LINE",
"209 371 OFFCURVE",
"210 361 OFFCURVE",
"210 346 CURVE SMOOTH",
"210 65 LINE",
"217 59 OFFCURVE",
"225 54 OFFCURVE",
"234 50 CURVE SMOOTH",
"249 42 OFFCURVE",
"270 35 OFFCURVE",
"295 35 CURVE SMOOTH",
"370 35 OFFCURVE",
"395 120 OFFCURVE",
"395 235 CURVE SMOOTH",
"395 350 OFFCURVE",
"369 435 OFFCURVE",
"300 435 CURVE SMOOTH"
);
}
);
width = 567;
}
);
leftKerningGroup = m;
rightKerningGroup = b;
unicode = 0070;
},
{
glyphname = q;
lastChange = "2015-07-31 18:27:42 +0000";
layers = (
{
layerId = UUID0;
name = Regular;
paths = (
{
closed = 1;
nodes = (
"357 370 LINE",
"350 382 OFFCURVE",
"343 393 OFFCURVE",
"334 402 CURVE SMOOTH",
"319 418 OFFCURVE",
"298 435 OFFCURVE",
"267 435 CURVE SMOOTH",
"197 435 OFFCURVE",
"172 350 OFFCURVE",
"172 235 CURVE SMOOTH",
"172 120 OFFCURVE",
"197 35 OFFCURVE",
"272 35 CURVE SMOOTH",
"297 35 OFFCURVE",
"318 42 OFFCURVE",
"333 50 CURVE SMOOTH",
"342 54 OFFCURVE",
"350 59 OFFCURVE",
"357 65 CURVE"
);
},
{
closed = 1;
nodes = (
"487 -190 LINE",
"357 -190 LINE",
"357 20 LINE",
"349 14 OFFCURVE",
"340 9 OFFCURVE",
"329 5 CURVE SMOOTH",
"310 -3 OFFCURVE",
"284 -10 OFFCURVE",
"252 -10 CURVE SMOOTH",
"107 -10 OFFCURVE",
"37 98 OFFCURVE",
"37 235 CURVE SMOOTH",
"37 372 OFFCURVE",
"107 480 OFFCURVE",
"247 480 CURVE SMOOTH",
"287 480 OFFCURVE",
"315 467 OFFCURVE",
"334 452 CURVE SMOOTH",
"345 444 OFFCURVE",
"355 435 OFFCURVE",
"362 425 CURVE",
"367 425 LINE",
"402 470 LINE",
"487 470 LINE"
);
}
);
width = 547;
}
);
leftKerningGroup = c;
rightKerningGroup = q;
unicode = 0071;
},
{
glyphname = r;
lastChange = "2015-07-31 18:27:42 +0000";
layers = (
{
layerId = UUID0;
name = Regular;
paths = (
{
closed = 1;
nodes = (
"339 480 OFFCURVE",
"363 473 OFFCURVE",
"381 460 CURVE SMOOTH",
"404 444 OFFCURVE",
"415 414 OFFCURVE",
"415 415 CURVE",
"364 376 LINE",
"359 383 OFFCURVE",
"353 389 OFFCURVE",
"346 395 CURVE SMOOTH",
"334 406 OFFCURVE",
"318 415 OFFCURVE",
"295 415 CURVE SMOOTH",
"252 415 OFFCURVE",
"223 401 OFFCURVE",
"206 384 CURVE",
"208 369 LINE SMOOTH",
"209 360 OFFCURVE",
"210 348 OFFCURVE",
"210 336 CURVE SMOOTH",
"210 0 LINE",
"80 0 LINE",
"80 340 LINE SMOOTH",
"80 400 OFFCURVE",
"71 440 OFFCURVE",
"11 440 CURVE SMOOTH",
"1 440 LINE",
"1 470 LINE",
"100 470 LINE SMOOTH",
"145 470 OFFCURVE",
"169 460 OFFCURVE",
"184 433 CURVE",
"208 454 OFFCURVE",
"250 480 OFFCURVE",
"310 480 CURVE SMOOTH"
);
}
);
width = 418;
}
);
leftKerningGroup = m;
unicode = 0072;
},
{
glyphname = s;
lastChange = "2015-07-31 18:27:42 +0000";
layers = (
{
layerId = UUID0;
name = Regular;
paths = (
{
closed = 1;
nodes = (
"284 35 OFFCURVE",
"309 64 OFFCURVE",
"309 103 CURVE SMOOTH",
"309 142 OFFCURVE",
"270 161 OFFCURVE",
"219 184 CURVE",
"167 206 LINE SMOOTH",
"87 241 OFFCURVE",
"39 282 OFFCURVE",
"39 347 CURVE SMOOTH",
"39 434 OFFCURVE",
"119 480 OFFCURVE",
"229 480 CURVE SMOOTH",
"312 480 OFFCURVE",
"363 464 OFFCURVE",
"390 439 CURVE SMOOTH",
"414 416 OFFCURVE",
"414 371 OFFCURVE",
"414 320 CURVE",
"379 320 LINE",
"368 384 OFFCURVE",
"329 435 OFFCURVE",
"249 435 CURVE SMOOTH",
"189 435 OFFCURVE",
"164 406 OFFCURVE",
"164 367 CURVE SMOOTH",
"164 331 OFFCURVE",
"191 312 OFFCURVE",
"235 293 CURVE SMOOTH",
"295 268 LINE SMOOTH",
"387 229 OFFCURVE",
"434 194 OFFCURVE",
"434 123 CURVE SMOOTH",
"434 36 OFFCURVE",
"348 -10 OFFCURVE",
"229 -10 CURVE SMOOTH",
"146 -10 OFFCURVE",
"95 6 OFFCURVE",
"68 31 CURVE SMOOTH",
"44 54 OFFCURVE",
"44 99 OFFCURVE",
"44 150 CURVE",
"79 150 LINE",
"90 86 OFFCURVE",
"129 35 OFFCURVE",
"209 35 CURVE SMOOTH"
);
}
);
width = 468;
}
);
leftKerningGroup = s;
rightKerningGroup = s;
unicode = 0073;
},
{
glyphname = t;
lastChange = "2015-07-31 18:27:42 +0000";
layers = (
{
layerId = UUID0;
name = Regular;
paths = (
{
closed = 1;
nodes = (
"211 470 LINE",
"321 470 LINE",
"321 425 LINE",
"211 425 LINE",
"211 130 LINE SMOOTH",
"211 55 OFFCURVE",
"230 35 OFFCURVE",
"263 35 CURVE SMOOTH",
"284 35 OFFCURVE",
"304 41 OFFCURVE",
"319 48 CURVE SMOOTH",
"327 52 OFFCURVE",
"335 57 OFFCURVE",
"342 62 CURVE",
"356 34 LINE",
"347 26 OFFCURVE",
"337 19 OFFCURVE",
"325 12 CURVE SMOOTH",
"304 1 OFFCURVE",
"271 -10 OFFCURVE",
"226 -10 CURVE SMOOTH",
"135 -10 OFFCURVE",
"81 40 OFFCURVE",
"81 136 CURVE SMOOTH",
"81 425 LINE",
"21 425 LINE",
"21 470 LINE",
"81 470 LINE",
"81 560 LINE",
"131 620 LINE",
"211 620 LINE"
);
}
);
width = 354;
}
);
unicode = 0074;
},
{
glyphname = u;
lastChange = "2015-07-31 18:27:42 +0000";
layers = (
{
layerId = UUID0;
name = Regular;
paths = (
{
closed = 1;
nodes = (
"70 340 LINE SMOOTH",
"70 400 OFFCURVE",
"60 440 OFFCURVE",
"0 440 CURVE SMOOTH",
"-10 440 LINE",
"-10 470 LINE",
"110 470 LINE SMOOTH",
"180 470 OFFCURVE",
"200 439 OFFCURVE",
"200 340 CURVE SMOOTH",
"200 173 LINE SMOOTH",
"200 70 OFFCURVE",
"230 35 OFFCURVE",
"285 35 CURVE SMOOTH",
"316 35 OFFCURVE",
"337 51 OFFCURVE",
"352 67 CURVE SMOOTH",
"361 76 OFFCURVE",
"368 87 OFFCURVE",
"375 100 CURVE",
"375 470 LINE",
"505 470 LINE",
"505 0 LINE",
"420 0 LINE",
"385 45 LINE",
"380 45 LINE",
"370 34 OFFCURVE",
"359 25 OFFCURVE",
"347 17 CURVE SMOOTH",
"326 2 OFFCURVE",
"295 -10 OFFCURVE",
"255 -10 CURVE SMOOTH",
"130 -10 OFFCURVE",
"70 45 OFFCURVE",
"70 174 CURVE SMOOTH"
);
}
);
width = 565;
}
);
leftKerningGroup = u;
rightKerningGroup = q;
unicode = 0075;
},
{
glyphname = v;
lastChange = "2015-07-31 18:27:42 +0000";
layers = (
{
layerId = UUID0;
name = Regular;
paths = (
{
closed = 1;
nodes = (
"77 355 LINE",
"42 428 OFFCURVE",
"21 455 OFFCURVE",
"-12 458 CURVE",
"-12 478 LINE",
"-7 478 OFFCURVE",
"16 480 OFFCURVE",
"25 480 CURVE SMOOTH",
"105 480 OFFCURVE",
"169 459 OFFCURVE",
"217 355 CURVE SMOOTH",
"305 163 LINE",
"441 470 LINE",
"495 470 LINE",
"282 -10 LINE",
"246 -10 LINE"
);
}
);
width = 500;
}
);
unicode = 0076;
},
{
glyphname = w;
lastChange = "2015-07-31 18:27:42 +0000";
layers = (
{
layerId = UUID0;
name = Regular;
paths = (
{
closed = 1;
nodes = (
"588 154 LINE",
"710 470 LINE",
"763 470 LINE",
"579 -10 LINE",
"533 -10 LINE",
"403 271 LINE",
"287 -10 LINE",
"242 -10 LINE",
"79 355 LINE SMOOTH",
"46 430 OFFCURVE",
"21 456 OFFCURVE",
"-14 459 CURVE",
"-14 478 LINE",
"-9 478 OFFCURVE",
"25 480 OFFCURVE",
"34 480 CURVE SMOOTH",
"119 480 OFFCURVE",
"171 453 OFFCURVE",
"216 355 CURVE",
"301 164 LINE",
"368 324 LINE",
"354 355 LINE SMOOTH",
"321 428 OFFCURVE",
"295 456 OFFCURVE",
"266 459 CURVE",
"266 478 LINE",
"271 478 OFFCURVE",
"295 480 OFFCURVE",
"304 480 CURVE SMOOTH",
"389 480 OFFCURVE",
"451 453 OFFCURVE",
"496 355 CURVE SMOOTH"
);
}
);
width = 775;
}
);
unicode = 0077;
},
{
glyphname = x;
lastChange = "2015-07-31 18:27:42 +0000";
layers = (
{
layerId = UUID0;
name = Regular;
paths = (
{
closed = 1;
nodes = (
"192 209 LINE",
"96 370 LINE SMOOTH",
"68 418 OFFCURVE",
"34 445 OFFCURVE",
"3 450 CURVE",
"3 470 LINE",
"98 470 LINE SMOOTH",
"163 470 OFFCURVE",
"197 439 OFFCURVE",
"226 390 CURVE SMOOTH",
"274 309 LINE",
"405 470 LINE",
"472 470 LINE",
"303 262 LINE",
"400 100 LINE SMOOTH",
"428 52 OFFCURVE",
"462 25 OFFCURVE",
"493 20 CURVE",
"493 0 LINE",
"398 0 LINE SMOOTH",
"333 0 OFFCURVE",
"299 31 OFFCURVE",
"270 80 CURVE SMOOTH",
"221 161 LINE",
"90 0 LINE",
"23 0 LINE"
);
}
);
width = 496;
}
);
unicode = 0078;
},
{
glyphname = y;
lastChange = "2015-07-31 18:27:42 +0000";
layers = (
{
layerId = UUID0;
name = Regular;
paths = (
{
closed = 1;
nodes = (
"290 -65 LINE",
"250 -174 OFFCURVE",
"201 -200 OFFCURVE",
"132 -200 CURVE SMOOTH",
"92 -200 LINE",
"92 -165 LINE",
"161 -165 OFFCURVE",
"207 -144 OFFCURVE",
"236 -68 CURVE SMOOTH",
"257 -14 LINE",
"77 380 LINE SMOOTH",
"55 429 OFFCURVE",
"24 455 OFFCURVE",
"-16 460 CURVE",
"-16 480 LINE",
"72 480 LINE SMOOTH",
"132 480 OFFCURVE",
"179 449 OFFCURVE",
"202 400 CURVE SMOOTH",
"317 148 LINE",
"439 470 LINE",
"492 470 LINE"
);
}
);
width = 509;
}
);
leftKerningGroup = y;
rightKerningGroup = y;
unicode = 0079;
},
{
glyphname = z;
lastChange = "2015-07-31 18:27:42 +0000";
layers = (
{
layerId = UUID0;
name = Regular;
paths = (
{
closed = 1;
nodes = (
"480 470 LINE",
"196 45 LINE",
"459 45 LINE",
"459 0 LINE",
"39 0 LINE",
"39 31 LINE",
"302 425 LINE",
"184 425 LINE SMOOTH",
"99 425 OFFCURVE",
"69 395 OFFCURVE",
"69 330 CURVE",
"39 330 LINE",
"39 390 LINE SMOOTH",
"39 430 OFFCURVE",
"55 470 OFFCURVE",
"124 470 CURVE SMOOTH"
);
}
);
width = 493;
}
);
leftKerningGroup = z;
rightKerningGroup = z;
unicode = 007A;
},
{
glyphname = braceleft;
lastChange = "2015-07-31 18:27:42 +0000";
layers = (
{
layerId = UUID0;
name = Regular;
paths = (
{
closed = 1;
nodes = (
"197 217 OFFCURVE",
"233 176 OFFCURVE",
"233 100 CURVE SMOOTH",
"233 -72 LINE SMOOTH",
"233 -132 OFFCURVE",
"248 -168 OFFCURVE",
"293 -176 CURVE",
"293 -211 LINE",
"153 -200 OFFCURVE",
"103 -121 OFFCURVE",
"103 -30 CURVE SMOOTH",
"103 110 LINE SMOOTH",
"103 164 OFFCURVE",
"78 213 OFFCURVE",
"3 224 CURVE",
"3 256 LINE",
"78 267 OFFCURVE",
"103 316 OFFCURVE",
"103 370 CURVE SMOOTH",
"103 510 LINE SMOOTH",
"103 601 OFFCURVE",
"153 680 OFFCURVE",
"293 691 CURVE",
"293 656 LINE",
"248 648 OFFCURVE",
"233 612 OFFCURVE",
"233 552 CURVE SMOOTH",
"233 380 LINE SMOOTH",
"233 304 OFFCURVE",
"197 263 OFFCURVE",
"113 240 CURVE"
);
}
);
width = 312;
}
);
unicode = 007B;
},
{
glyphname = bar;
lastChange = "2015-07-31 18:27:42 +0000";
layers = (
{
layerId = UUID0;
name = Regular;
paths = (
{
closed = 1;
nodes = (
"196 680 LINE",
"196 -190 LINE",
"66 -190 LINE",
"66 680 LINE"
);
}
);
width = 262;
}
);
unicode = 007C;
},
{
glyphname = braceright;
lastChange = "2015-07-31 18:27:42 +0000";
layers = (
{
layerId = UUID0;
name = Regular;
paths = (
{
closed = 1;
nodes = (
"115 263 OFFCURVE",
"79 304 OFFCURVE",
"79 380 CURVE SMOOTH",
"79 552 LINE SMOOTH",
"79 612 OFFCURVE",
"64 648 OFFCURVE",
"19 656 CURVE",
"19 691 LINE",
"159 680 OFFCURVE",
"209 601 OFFCURVE",
"209 510 CURVE SMOOTH",
"209 370 LINE SMOOTH",
"209 316 OFFCURVE",
"234 267 OFFCURVE",
"309 256 CURVE",
"309 224 LINE",
"234 213 OFFCURVE",
"209 164 OFFCURVE",
"209 110 CURVE SMOOTH",
"209 -30 LINE SMOOTH",
"209 -121 OFFCURVE",
"159 -200 OFFCURVE",
"19 -211 CURVE",
"19 -176 LINE",
"64 -168 OFFCURVE",
"79 -132 OFFCURVE",
"79 -72 CURVE SMOOTH",
"79 100 LINE SMOOTH",
"79 176 OFFCURVE",
"115 217 OFFCURVE",
"199 240 CURVE"
);
}
);
width = 312;
}
);
unicode = 007D;
},
{
glyphname = asciitilde;
lastChange = "2015-07-31 18:27:42 +0000";
layers = (
{
layerId = UUID0;
name = Regular;
paths = (
{
closed = 1;
nodes = (
"231 343 OFFCURVE",
"280 321 OFFCURVE",
"327 300 CURVE SMOOTH",
"370 281 OFFCURVE",
"409 263 OFFCURVE",
"441 263 CURVE SMOOTH",
"497 263 OFFCURVE",
"521 283 OFFCURVE",
"521 323 CURVE",
"561 323 LINE",
"561 219 OFFCURVE",
"524 167 OFFCURVE",
"441 167 CURVE SMOOTH",
"381 167 OFFCURVE",
"332 189 OFFCURVE",
"285 210 CURVE SMOOTH",
"242 229 OFFCURVE",
"203 247 OFFCURVE",
"171 247 CURVE SMOOTH",
"115 247 OFFCURVE",
"91 227 OFFCURVE",
"91 187 CURVE",
"51 187 LINE",
"51 291 OFFCURVE",
"88 343 OFFCURVE",
"171 343 CURVE SMOOTH"
);
}
);
width = 611;
}
);
unicode = 007E;
},
{
glyphname = exclamdown;
lastChange = "2015-07-31 18:27:42 +0000";
layers = (
{
layerId = UUID0;
name = Regular;
paths = (
{
closed = 1;
nodes = (
"186 -194 LINE",
"53 -194 LINE",
"72 311 LINE",
"166 311 LINE"
);
},
{
closed = 1;
nodes = (
"180 383 OFFCURVE",
"158 358 OFFCURVE",
"119 358 CURVE SMOOTH",
"80 358 OFFCURVE",
"58 383 OFFCURVE",
"58 419 CURVE SMOOTH",
"58 455 OFFCURVE",
"80 480 OFFCURVE",
"119 480 CURVE SMOOTH",
"158 480 OFFCURVE",
"180 455 OFFCURVE",
"180 419 CURVE SMOOTH"
);
}
);
width = 239;
}
);
unicode = 00A1;
},
{
glyphname = cent;
lastChange = "2015-07-31 18:27:42 +0000";
layers = (
{
layerId = UUID0;
name = Regular;
paths = (
{
closed = 1;
nodes = (
"241 -8 LINE",
"101 3 OFFCURVE",
"31 110 OFFCURVE",
"31 235 CURVE SMOOTH",
"31 360 OFFCURVE",
"101 465 OFFCURVE",
"241 478 CURVE",
"241 520 LINE",
"301 520 LINE",
"301 479 LINE",
"361 476 OFFCURVE",
"403 466 OFFCURVE",
"426 445 CURVE",
"451 420 OFFCURVE",
"451 381 OFFCURVE",
"451 305 CURVE",
"421 305 LINE",
"416 385 OFFCURVE",
"373 427 OFFCURVE",
"301 434 CURVE",
"301 35 LINE",
"365 38 OFFCURVE",
"400 73 OFFCURVE",
"434 118 CURVE",
"465 95 LINE",
"438 55 OFFCURVE",
"395 0 OFFCURVE",
"301 -8 CURVE",
"301 -50 LINE",
"241 -50 LINE"
);
},
{
closed = 1;
nodes = (
"166 131 OFFCURVE",
"191 68 OFFCURVE",
"241 45 CURVE",
"241 424 LINE",
"194 401 OFFCURVE",
"166 339 OFFCURVE",
"166 235 CURVE SMOOTH"
);
}
);
width = 496;
}
);
unicode = 00A2;
},
{
glyphname = sterling;
lastChange = "2015-07-31 18:27:42 +0000";
layers = (
{
layerId = UUID0;
name = Regular;
paths = (
{
closed = 1;
nodes = (
"101 460 LINE SMOOTH",
"101 630 OFFCURVE",
"216 670 OFFCURVE",
"306 670 CURVE SMOOTH",
"366 670 OFFCURVE",
"431 660 OFFCURVE",
"456 635 CURVE SMOOTH",
"481 610 OFFCURVE",
"481 570 OFFCURVE",
"481 535 CURVE",
"426 535 LINE",
"411 600 OFFCURVE",
"377 625 OFFCURVE",
"326 625 CURVE SMOOTH",
"276 625 OFFCURVE",
"231 590 OFFCURVE",
"231 460 CURVE SMOOTH",
"231 365 LINE",
"361 365 LINE",
"361 320 LINE",
"231 320 LINE",
"231 220 LINE SMOOTH",
"231 125 OFFCURVE",
"196 74 OFFCURVE",
"161 45 CURVE",
"351 45 LINE SMOOTH",
"431 45 OFFCURVE",
"466 85 OFFCURVE",
"466 165 CURVE",
"496 165 LINE",
"496 80 LINE SMOOTH",
"496 40 OFFCURVE",
"480 0 OFFCURVE",
"411 0 CURVE SMOOTH",
"36 0 LINE",
"36 30 LINE",
"87 46 OFFCURVE",
"101 89 OFFCURVE",
"101 220 CURVE SMOOTH",
"101 320 LINE",
"41 320 LINE",
"41 365 LINE",
"101 365 LINE"
);
}
);
width = 535;
}
);
unicode = 00A3;
},
{
glyphname = currency;
lastChange = "2015-07-31 18:27:42 +0000";
layers = (
{
layerId = UUID0;
name = Regular;
paths = (
{
closed = 1;
nodes = (
"306 330 LINE SMOOTH",
"371 330 OFFCURVE",
"436 365 OFFCURVE",
"436 480 CURVE SMOOTH",
"436 580 OFFCURVE",
"366 620 OFFCURVE",
"311 620 CURVE SMOOTH",
"286 620 OFFCURVE",
"266 620 OFFCURVE",
"246 615 CURVE",
"246 330 LINE"
);
},
{
closed = 1;
nodes = (
"496 190 LINE",
"246 190 LINE",
"246 0 LINE",
"116 0 LINE",
"116 190 LINE",
"66 190 LINE",
"66 235 LINE",
"116 235 LINE",
"116 285 LINE",
"66 285 LINE",
"66 330 LINE",
"116 330 LINE",
"116 535 LINE SMOOTH",
"116 590 OFFCURVE",
"106 630 OFFCURVE",
"46 630 CURVE SMOOTH",
"36 630 LINE",
"36 660 LINE",
"311 660 LINE SMOOTH",
"456 660 OFFCURVE",
"576 605 OFFCURVE",
"576 480 CURVE SMOOTH",
"576 345 OFFCURVE",
"456 285 OFFCURVE",
"306 285 CURVE SMOOTH",
"246 285 LINE",
"246 235 LINE",
"496 235 LINE"
);
}
);
width = 605;
}
);
unicode = 00A4;
},
{
glyphname = yen;
lastChange = "2015-07-31 18:27:42 +0000";
layers = (
{
layerId = UUID0;
name = Regular;
paths = (
{
closed = 1;
nodes = (
"429 345 LINE",
"623 660 LINE",
"688 660 LINE",
"461 291 LINE",
"461 265 LINE",
"547 265 LINE",
"547 220 LINE",
"461 220 LINE",
"461 180 LINE",
"547 180 LINE",
"547 135 LINE",
"461 135 LINE",
"461 0 LINE",
"331 0 LINE",
"331 135 LINE",
"247 135 LINE",
"247 180 LINE",
"331 180 LINE",
"331 220 LINE",
"247 220 LINE",
"247 265 LINE",
"330 265 LINE",
"154 530 LINE",
"119 581 OFFCURVE",
"67 635 OFFCURVE",
"21 640 CURVE",
"21 660 LINE",
"130 660 LINE SMOOTH",
"205 660 OFFCURVE",
"261 601 OFFCURVE",
"293 550 CURVE"
);
}
);
width = 711;
}
);
unicode = 00A5;
},
{
glyphname = brokenbar;
lastChange = "2015-07-31 18:27:42 +0000";
layers = (
{
layerId = UUID0;
name = Regular;
paths = (
{
closed = 1;
nodes = (
"199 680 LINE",
"199 327 LINE",
"69 327 LINE",
"69 680 LINE"
);
},
{
closed = 1;
nodes = (
"199 163 LINE",
"199 -190 LINE",
"69 -190 LINE",
"69 163 LINE"
);
}
);
width = 268;
}
);
unicode = 00A6;
},
{
glyphname = section;
lastChange = "2015-07-31 18:27:42 +0000";
layers = (
{
layerId = UUID0;
name = Regular;
paths = (
{
closed = 1;
nodes = (
"180 470 OFFCURVE",
"226 443 OFFCURVE",
"279 408 CURVE SMOOTH",
"340 368 OFFCURVE",
"410 322 OFFCURVE",
"410 245 CURVE SMOOTH",
"410 177 OFFCURVE",
"364 127 OFFCURVE",
"296 100 CURVE",
"349 63 OFFCURVE",
"395 20 OFFCURVE",
"395 -47 CURVE SMOOTH",
"395 -154 OFFCURVE",
"312 -200 OFFCURVE",
"220 -200 CURVE SMOOTH",
"159 -200 OFFCURVE",
"106 -186 OFFCURVE",
"79 -159 CURVE SMOOTH",
"50 -130 OFFCURVE",
"50 -100 OFFCURVE",
"50 -49 CURVE",
"82 -49 LINE",
"93 -114 OFFCURVE",
"130 -155 OFFCURVE",
"190 -155 CURVE SMOOTH",
"241 -155 OFFCURVE",
"271 -131 OFFCURVE",
"271 -67 CURVE SMOOTH",
"271 0 OFFCURVE",
"224 28 OFFCURVE",
"171 63 CURVE SMOOTH",
"109 103 OFFCURVE",
"40 146 OFFCURVE",
"40 225 CURVE SMOOTH",
"40 288 OFFCURVE",
"88 342 OFFCURVE",
"152 370 CURVE",
"99 406 OFFCURVE",
"55 450 OFFCURVE",
"55 517 CURVE SMOOTH",
"55 624 OFFCURVE",
"138 670 OFFCURVE",
"230 670 CURVE SMOOTH",
"291 670 OFFCURVE",
"344 656 OFFCURVE",
"371 629 CURVE SMOOTH",
"400 600 OFFCURVE",
"400 570 OFFCURVE",
"400 519 CURVE",
"368 519 LINE",
"357 584 OFFCURVE",
"320 625 OFFCURVE",
"260 625 CURVE SMOOTH",
"209 625 OFFCURVE",
"180 601 OFFCURVE",
"180 537 CURVE SMOOTH"
);
},
{
closed = 1;
nodes = (
"301 270 OFFCURVE",
"252 309 OFFCURVE",
"192 344 CURVE",
"164 333 OFFCURVE",
"149 306 OFFCURVE",
"149 255 CURVE SMOOTH",
"149 200 OFFCURVE",
"198 158 OFFCURVE",
"258 125 CURVE",
"286 136 OFFCURVE",
"301 162 OFFCURVE",
"301 215 CURVE SMOOTH"
);
}
);
width = 450;
}
);
unicode = 00A7;
},
{
glyphname = dieresis;
lastChange = "2015-07-31 18:27:42 +0000";
layers = (
{
layerId = UUID0;
name = Regular;
paths = (
{
closed = 1;
nodes = (
"112 715 OFFCURVE",
"91 690 OFFCURVE",
"56 690 CURVE SMOOTH",
"21 690 OFFCURVE",
"0 715 OFFCURVE",
"0 746 CURVE SMOOTH",
"0 777 OFFCURVE",
"21 802 OFFCURVE",
"56 802 CURVE SMOOTH",
"91 802 OFFCURVE",
"112 777 OFFCURVE",
"112 746 CURVE SMOOTH"
);
},
{
closed = 1;
nodes = (
"282 715 OFFCURVE",
"261 690 OFFCURVE",
"226 690 CURVE SMOOTH",
"191 690 OFFCURVE",
"170 715 OFFCURVE",
"170 746 CURVE SMOOTH",
"170 777 OFFCURVE",
"191 802 OFFCURVE",
"226 802 CURVE SMOOTH",
"261 802 OFFCURVE",
"282 777 OFFCURVE",
"282 746 CURVE SMOOTH"
);
}
);
width = 282;
}
);
unicode = 00A8;
},
{
glyphname = copyright;
lastChange = "2015-07-31 18:27:42 +0000";
layers = (
{
layerId = UUID0;
name = Regular;
paths = (
{
closed = 1;
nodes = (
"617 688 OFFCURVE",
"773 537 OFFCURVE",
"773 330 CURVE SMOOTH",
"773 123 OFFCURVE",
"617 -28 OFFCURVE",
"403 -28 CURVE SMOOTH",
"189 -28 OFFCURVE",
"33 123 OFFCURVE",
"33 330 CURVE SMOOTH",
"33 537 OFFCURVE",
"189 688 OFFCURVE",
"403 688 CURVE SMOOTH"
);
},
{
closed = 1;
nodes = (
"579 17 OFFCURVE",
"703 146 OFFCURVE",
"703 330 CURVE SMOOTH",
"703 514 OFFCURVE",
"579 643 OFFCURVE",
"403 643 CURVE SMOOTH",
"227 643 OFFCURVE",
"103 514 OFFCURVE",
"103 330 CURVE SMOOTH",
"103 146 OFFCURVE",
"227 17 OFFCURVE",
"403 17 CURVE SMOOTH"
);
},
{
closed = 1;
nodes = (
"553 409 LINE",
"537 494 OFFCURVE",
"499 533 OFFCURVE",
"423 533 CURVE SMOOTH",
"347 533 OFFCURVE",
"283 482 OFFCURVE",
"283 327 CURVE SMOOTH",
"283 231 OFFCURVE",
"324 134 OFFCURVE",
"423 134 CURVE SMOOTH",
"480 134 OFFCURVE",
"528 166 OFFCURVE",
"567 230 CURVE",
"592 212 LINE",
"549 132 OFFCURVE",
"490 102 OFFCURVE",
"403 102 CURVE SMOOTH",
"271 102 OFFCURVE",
"188 202 OFFCURVE",
"188 327 CURVE SMOOTH",
"188 460 OFFCURVE",
"285 565 OFFCURVE",
"403 565 CURVE SMOOTH",
"488 565 OFFCURVE",
"540 540 OFFCURVE",
"563 512 CURVE SMOOTH",
"584 487 OFFCURVE",
"584 448 OFFCURVE",
"584 409 CURVE"
);
}
);
width = 806;
}
);
unicode = 00A9;
},
{
glyphname = ordfeminine;
lastChange = "2015-07-31 18:27:42 +0000";
layers = (
{
layerId = UUID0;
name = Regular;
paths = (
{
closed = 1;
nodes = (
"196 522 LINE",
"180 522 LINE SMOOTH",
"141 522 OFFCURVE",
"114 499 OFFCURVE",
"114 466 CURVE SMOOTH",
"114 431 OFFCURVE",
"133 421 OFFCURVE",
"150 421 CURVE SMOOTH",
"173 421 OFFCURVE",
"188 440 OFFCURVE",
"196 455 CURVE"
);
},
{
closed = 1;
nodes = (
"222 401 LINE",
"203 426 LINE",
"200 426 LINE",
"188 413 OFFCURVE",
"168 396 OFFCURVE",
"131 396 CURVE SMOOTH",
"83 396 OFFCURVE",
"42 415 OFFCURVE",
"42 466 CURVE SMOOTH",
"42 517 OFFCURVE",
"88 547 OFFCURVE",
"180 547 CURVE SMOOTH",
"196 547 LINE",
"196 623 OFFCURVE",
"172 635 OFFCURVE",
"150 635 CURVE SMOOTH",
"113 635 OFFCURVE",
"97 615 OFFCURVE",
"90 583 CURVE",
"61 583 LINE",
"61 602 OFFCURVE",
"60 626 OFFCURVE",
"75 641 CURVE",
"88 656 OFFCURVE",
"123 660 OFFCURVE",
"160 660 CURVE SMOOTH",
"219 660 OFFCURVE",
"268 644 OFFCURVE",
"268 547 CURVE SMOOTH",
"268 401 LINE"
);
}
);
width = 324;
}
);
unicode = 00AA;
},
{
glyphname = guillemotleft;
lastChange = "2015-07-31 18:27:42 +0000";
layers = (
{
layerId = UUID0;
name = Regular;
paths = (
{
closed = 1;
nodes = (
"308 370 LINE",
"372 370 LINE",
"310 225 LINE",
"372 80 LINE",
"308 80 LINE",
"206 225 LINE"
);
},
{
closed = 1;
nodes = (
"253 30 LINE",
"189 30 LINE",
"31 225 LINE",
"189 420 LINE",
"253 420 LINE",
"156 226 LINE"
);
}
);
width = 425;
}
);
leftKerningGroup = guilsinglleft;
unicode = 00AB;
},
{
glyphname = logicalnot;
lastChange = "2015-07-31 18:27:42 +0000";
layers = (
{
layerId = UUID0;
name = Regular;
paths = (
{
closed = 1;
nodes = (
"513 220 LINE",
"58 220 LINE",
"58 290 LINE",
"603 290 LINE",
"603 115 LINE",
"513 115 LINE"
);
}
);
width = 662;
}
);
unicode = 00AC;
},
{
glyphname = registered;
lastChange = "2015-07-31 18:27:42 +0000";
layers = (
{
layerId = UUID0;
name = Regular;
paths = (
{
closed = 1;
nodes = (
"617 685 OFFCURVE",
"773 537 OFFCURVE",
"773 330 CURVE SMOOTH",
"773 123 OFFCURVE",
"617 -25 OFFCURVE",
"403 -25 CURVE SMOOTH",
"189 -25 OFFCURVE",
"33 123 OFFCURVE",
"33 330 CURVE SMOOTH",
"33 537 OFFCURVE",
"189 685 OFFCURVE",
"403 685 CURVE SMOOTH"
);
},
{
closed = 1;
nodes = (
"579 20 OFFCURVE",
"703 146 OFFCURVE",
"703 330 CURVE SMOOTH",
"703 514 OFFCURVE",
"579 640 OFFCURVE",
"403 640 CURVE SMOOTH",
"227 640 OFFCURVE",
"103 514 OFFCURVE",
"103 330 CURVE SMOOTH",
"103 146 OFFCURVE",
"227 20 OFFCURVE",
"403 20 CURVE SMOOTH"
);
},
{
closed = 1;
nodes = (
"427 349 OFFCURVE",
"463 373 OFFCURVE",
"463 438 CURVE SMOOTH",
"463 502 OFFCURVE",
"427 526 OFFCURVE",
"378 526 CURVE SMOOTH",
"367 526 OFFCURVE",
"361 525 OFFCURVE",
"354 525 CURVE",
"351 524 OFFCURVE",
"347 524 OFFCURVE",
"344 524 CURVE",
"344 351 LINE",
"348 350 OFFCURVE",
"352 350 OFFCURVE",
"355 350 CURVE SMOOTH",
"362 349 OFFCURVE",
"369 349 OFFCURVE",
"378 349 CURVE SMOOTH"
);
},
{
closed = 1;
nodes = (
"364 320 LINE",
"344 320 LINE",
"344 125 LINE",
"256 125 LINE",
"256 477 LINE SMOOTH",
"256 514 OFFCURVE",
"253 539 OFFCURVE",
"226 539 CURVE SMOOTH",
"208 539 LINE",
"208 555 LINE",
"381 555 LINE SMOOTH",
"472 555 OFFCURVE",
"558 530 OFFCURVE",
"558 434 CURVE SMOOTH",
"558 365 OFFCURVE",
"503 337 OFFCURVE",
"455 326 CURVE",
"523 216 LINE",
"554 168 OFFCURVE",
"575 143 OFFCURVE",
"607 139 CURVE",
"607 125 LINE",
"607 124 OFFCURVE",
"590 118 OFFCURVE",
"555 118 CURVE SMOOTH",
"504 118 OFFCURVE",
"475 141 OFFCURVE",
"431 212 CURVE SMOOTH"
);
}
);
width = 806;
}
);
unicode = 00AE;
},
{
glyphname = degree;
lastChange = "2015-07-31 18:27:42 +0000";
layers = (
{
layerId = UUID0;
name = Regular;
paths = (
{
closed = 1;
nodes = (
"157 620 OFFCURVE",
"118 580 OFFCURVE",
"118 520 CURVE SMOOTH",
"118 460 OFFCURVE",
"157 420 OFFCURVE",
"208 420 CURVE SMOOTH",
"259 420 OFFCURVE",
"298 460 OFFCURVE",
"298 520 CURVE SMOOTH",
"298 580 OFFCURVE",
"259 620 OFFCURVE",
"208 620 CURVE SMOOTH"
);
},
{
closed = 1;
nodes = (
"318 680 OFFCURVE",
"378 610 OFFCURVE",
"378 520 CURVE SMOOTH",
"378 430 OFFCURVE",
"318 360 OFFCURVE",
"208 360 CURVE SMOOTH",
"98 360 OFFCURVE",
"38 430 OFFCURVE",
"38 520 CURVE SMOOTH",
"38 610 OFFCURVE",
"98 680 OFFCURVE",
"208 680 CURVE SMOOTH"
);
}
);
width = 416;
}
);
unicode = 00B0;
},
{
glyphname = plusminus;
lastChange = "2015-07-31 18:27:42 +0000";
layers = (
{
layerId = UUID0;
name = Regular;
paths = (
{
closed = 1;
nodes = (
"49 55 LINE",
"49 125 LINE",
"246 125 LINE",
"246 295 LINE",
"49 295 LINE",
"49 365 LINE",
"246 365 LINE",
"246 560 LINE",
"336 560 LINE",
"336 365 LINE",
"533 365 LINE",
"533 295 LINE",
"336 295 LINE",
"336 125 LINE",
"533 125 LINE",
"533 55 LINE"
);
}
);
width = 582;
}
);
unicode = 00B1;
},
{
glyphname = twosuperior;
lastChange = "2015-07-31 18:27:42 +0000";
layers = (
{
layerId = UUID0;
name = Regular;
paths = (
{
closed = 1;
nodes = (
"191 404 LINE SMOOTH",
"228 404 OFFCURVE",
"248 416 OFFCURVE",
"248 448 CURVE",
"263 448 LINE",
"263 413 LINE SMOOTH",
"263 394 OFFCURVE",
"256 377 OFFCURVE",
"224 377 CURVE SMOOTH",
"53 377 LINE",
"53 400 LINE",
"146 496 OFFCURVE",
"192 532 OFFCURVE",
"192 602 CURVE SMOOTH",
"192 649 OFFCURVE",
"175 662 OFFCURVE",
"147 662 CURVE SMOOTH",
"106 662 OFFCURVE",
"83 634 OFFCURVE",
"74 583 CURVE",
"58 583 LINE",
"58 606 OFFCURVE",
"58 638 OFFCURVE",
"69 653 CURVE",
"86 673 OFFCURVE",
"120 689 OFFCURVE",
"160 689 CURVE SMOOTH",
"208 689 OFFCURVE",
"264 671 OFFCURVE",
"264 602 CURVE SMOOTH",
"264 524 OFFCURVE",
"192 484 OFFCURVE",
"110 404 CURVE"
);
}
);
width = 318;
}
);
unicode = 00B2;
},
{
glyphname = threesuperior;
lastChange = "2015-07-31 18:27:42 +0000";
layers = (
{
layerId = UUID0;
name = Regular;
paths = (
{
closed = 1;
nodes = (
"116 547 LINE",
"132 551 OFFCURVE",
"148 551 OFFCURVE",
"155 551 CURVE SMOOTH",
"207 551 OFFCURVE",
"266 525 OFFCURVE",
"266 462 CURVE SMOOTH",
"266 385 OFFCURVE",
"192 367 OFFCURVE",
"154 367 CURVE SMOOTH",
"98 367 OFFCURVE",
"68 387 OFFCURVE",
"43 418 CURVE",
"57 430 LINE",
"79 406 OFFCURVE",
"107 394 OFFCURVE",
"140 394 CURVE SMOOTH",
"167 394 OFFCURVE",
"194 413 OFFCURVE",
"194 462 CURVE SMOOTH",
"194 510 OFFCURVE",
"165 524 OFFCURVE",
"134 524 CURVE SMOOTH",
"119 524 OFFCURVE",
"110 523 OFFCURVE",
"91 518 CURVE",
"75 546 LINE",
"193 653 LINE",
"115 653 LINE SMOOTH",
"82 653 OFFCURVE",
"65 639 OFFCURVE",
"65 610 CURVE",
"52 610 LINE",
"52 643 LINE SMOOTH",
"52 662 OFFCURVE",
"59 680 OFFCURVE",
"91 680 CURVE SMOOTH",
"244 680 LINE",
"244 662 LINE"
);
}
);
width = 304;
}
);
unicode = 00B3;
},
{
glyphname = acute;
lastChange = "2015-07-31 18:27:42 +0000";
layers = (
{
layerId = UUID0;
name = Regular;
paths = (
{
closed = 1;
nodes = (
"75 700 LINE",
"20 700 LINE",
"62 840 LINE",
"181 840 LINE"
);
}
);
width = 201;
}
);
unicode = 00B4;
},
{
glyphname = mu;
lastChange = "2015-07-31 18:27:42 +0000";
layers = (
{
layerId = UUID0;
name = Regular;
paths = (
{
closed = 1;
nodes = (
"233 -10 OFFCURVE",
"204 4 OFFCURVE",
"173 35 CURVE",
"173 -190 LINE",
"63 -190 LINE",
"63 470 LINE",
"193 470 LINE",
"193 235 LINE SMOOTH",
"193 99 OFFCURVE",
"228 35 OFFCURVE",
"288 35 CURVE SMOOTH",
"333 35 OFFCURVE",
"358 65 OFFCURVE",
"373 100 CURVE",
"373 470 LINE",
"503 470 LINE",
"503 0 LINE",
"418 0 LINE",
"383 45 LINE",
"378 45 LINE",
"371 34 OFFCURVE",
"362 25 OFFCURVE",
"352 17 CURVE SMOOTH",
"333 2 OFFCURVE",
"308 -10 OFFCURVE",
"273 -10 CURVE SMOOTH"
);
}
);
width = 550;
}
);
unicode = 00B5;
},
{
glyphname = paragraph;
lastChange = "2015-07-31 18:27:42 +0000";
layers = (
{
layerId = UUID0;
name = Regular;
paths = (
{
closed = 1;
nodes = (
"256 270 LINE",
"125 270 OFFCURVE",
"26 350 OFFCURVE",
"26 465 CURVE SMOOTH",
"26 580 OFFCURVE",
"125 660 OFFCURVE",
"256 660 CURVE SMOOTH",
"596 660 LINE",
"596 615 LINE",
"541 615 LINE",
"541 -190 LINE",
"421 -190 LINE",
"421 615 LINE",
"376 615 LINE",
"376 -190 LINE",
"256 -190 LINE"
);
}
);
width = 634;
}
);
unicode = 00B6;
},
{
glyphname = periodcentered;
lastChange = "2015-07-31 18:27:42 +0000";
layers = (
{
layerId = UUID0;
name = Regular;
paths = (
{
closed = 1;
nodes = (
"174 295 OFFCURVE",
"152 270 OFFCURVE",
"113 270 CURVE SMOOTH",
"74 270 OFFCURVE",
"52 295 OFFCURVE",
"52 331 CURVE SMOOTH",
"52 367 OFFCURVE",
"74 392 OFFCURVE",
"113 392 CURVE SMOOTH",
"152 392 OFFCURVE",
"174 367 OFFCURVE",
"174 331 CURVE SMOOTH"
);
}
);
width = 226;
}
);
unicode = 00B7;
},
{
glyphname = cedilla;
lastChange = "2015-07-31 18:27:42 +0000";
layers = (
{
layerId = UUID0;
name = Regular;
paths = (
{
closed = 1;
nodes = (
"45 0 LINE",
"110 0 LINE",
"110 -50 LINE",
"166 -50 OFFCURVE",
"200 -80 OFFCURVE",
"200 -128 CURVE SMOOTH",
"200 -175 OFFCURVE",
"166 -206 OFFCURVE",
"110 -206 CURVE SMOOTH",
"40 -206 LINE",
"40 -160 LINE",
"90 -160 LINE SMOOTH",
"115 -160 OFFCURVE",
"130 -145 OFFCURVE",
"130 -128 CURVE SMOOTH",
"130 -109 OFFCURVE",
"115 -95 OFFCURVE",
"90 -95 CURVE SMOOTH",
"45 -95 LINE"
);
}
);
width = 200;
}
);
unicode = 00B8;
},
{
glyphname = onesuperior;
lastChange = "2015-07-31 18:27:42 +0000";
layers = (
{
layerId = UUID0;
name = Regular;
paths = (
{
closed = 1;
nodes = (
"152 377 LINE",
"80 377 LINE",
"80 614 LINE",
"46 594 LINE",
"30 616 LINE",
"98 680 LINE",
"152 680 LINE"
);
}
);
width = 214;
}
);
unicode = 00B9;
},
{
glyphname = ordmasculine;
lastChange = "2015-07-31 18:27:42 +0000";
layers = (
{
layerId = UUID0;
name = Regular;
paths = (
{
closed = 1;
nodes = (
"138 664 OFFCURVE",
"115 636 OFFCURVE",
"115 528 CURVE SMOOTH",
"115 422 OFFCURVE",
"138 392 OFFCURVE",
"168 392 CURVE SMOOTH",
"200 392 OFFCURVE",
"222 422 OFFCURVE",
"222 528 CURVE SMOOTH",
"222 636 OFFCURVE",
"199 664 OFFCURVE",
"168 664 CURVE SMOOTH"
);
},
{
closed = 1;
nodes = (
"259 689 OFFCURVE",
"294 615 OFFCURVE",
"294 528 CURVE SMOOTH",
"294 442 OFFCURVE",
"259 367 OFFCURVE",
"168 367 CURVE SMOOTH",
"79 367 OFFCURVE",
"43 442 OFFCURVE",
"43 528 CURVE SMOOTH",
"43 615 OFFCURVE",
"79 689 OFFCURVE",
"168 689 CURVE SMOOTH"
);
}
);
width = 337;
}
);
unicode = 00BA;
},
{
glyphname = guillemotright;
lastChange = "2015-07-31 18:27:42 +0000";
layers = (
{
layerId = UUID0;
name = Regular;
paths = (
{
closed = 1;
nodes = (
"219 225 LINE",
"117 80 LINE",
"53 80 LINE",
"115 225 LINE",
"53 370 LINE",
"117 370 LINE"
);
},
{
closed = 1;
nodes = (
"269 226 LINE",
"172 420 LINE",
"236 420 LINE",
"394 225 LINE",
"236 30 LINE",
"172 30 LINE"
);
}
);
width = 425;
}
);
leftKerningGroup = guilsinglright;
rightKerningGroup = guilsinglright;
unicode = 00BB;
},
{
glyphname = onequarter;
lastChange = "2015-07-31 18:27:42 +0000";
layers = (
{
layerId = UUID0;
name = Regular;
paths = (
{
closed = 1;
nodes = (
"26 0 LINE",
"481 660 LINE",
"576 660 LINE",
"121 0 LINE"
);
},
{
closed = 1;
nodes = (
"539 100 LINE",
"573 100 LINE",
"573 73 LINE",
"539 73 LINE",
"539 0 LINE",
"467 0 LINE",
"467 73 LINE",
"322 73 LINE",
"322 97 LINE",
"472 304 LINE",
"539 304 LINE"
);
},
{
closed = 1;
nodes = (
"467 100 LINE",
"467 246 LINE",
"361 100 LINE"
);
},
{
closed = 1;
nodes = (
"185 377 LINE",
"113 377 LINE",
"113 614 LINE",
"79 594 LINE",
"63 616 LINE",
"131 680 LINE",
"185 680 LINE"
);
}
);
width = 617;
}
);
unicode = 00BC;
},
{
glyphname = onehalf;
lastChange = "2015-07-31 18:27:42 +0000";
layers = (
{
layerId = UUID0;
name = Regular;
paths = (
{
closed = 1;
nodes = (
"26 0 LINE",
"481 660 LINE",
"576 660 LINE",
"121 0 LINE"
);
},
{
closed = 1;
nodes = (
"185 377 LINE",
"113 377 LINE",
"113 614 LINE",
"79 594 LINE",
"63 616 LINE",
"131 680 LINE",
"185 680 LINE"
);
},
{
closed = 1;
nodes = (
"510 27 LINE SMOOTH",
"547 27 OFFCURVE",
"567 39 OFFCURVE",
"567 71 CURVE",
"582 71 LINE",
"582 36 LINE SMOOTH",
"582 17 OFFCURVE",
"575 0 OFFCURVE",
"543 0 CURVE SMOOTH",
"372 0 LINE",
"372 23 LINE",
"465 119 OFFCURVE",
"511 155 OFFCURVE",
"511 225 CURVE SMOOTH",
"511 272 OFFCURVE",
"494 285 OFFCURVE",
"466 285 CURVE SMOOTH",
"425 285 OFFCURVE",
"402 257 OFFCURVE",
"393 206 CURVE",
"377 206 LINE",
"377 229 OFFCURVE",
"377 261 OFFCURVE",
"388 276 CURVE",
"405 296 OFFCURVE",
"439 312 OFFCURVE",
"479 312 CURVE SMOOTH",
"527 312 OFFCURVE",
"583 294 OFFCURVE",
"583 225 CURVE SMOOTH",
"583 147 OFFCURVE",
"511 107 OFFCURVE",
"429 27 CURVE"
);
}
);
width = 632;
}
);
unicode = 00BD;
},
{
glyphname = threequarters;
lastChange = "2015-07-31 18:27:42 +0000";
layers = (
{
layerId = UUID0;
name = Regular;
paths = (
{
closed = 1;
nodes = (
"45 0 LINE",
"500 660 LINE",
"595 660 LINE",
"140 0 LINE"
);
},
{
closed = 1;
nodes = (
"548 100 LINE",
"582 100 LINE",
"582 73 LINE",
"548 73 LINE",
"548 0 LINE",
"476 0 LINE",
"476 73 LINE",
"331 73 LINE",
"331 97 LINE",
"481 304 LINE",
"548 304 LINE"
);
},
{
closed = 1;
nodes = (
"476 100 LINE",
"476 246 LINE",
"370 100 LINE"
);
},
{
closed = 1;
nodes = (
"110 547 LINE",
"126 551 OFFCURVE",
"142 551 OFFCURVE",
"149 551 CURVE SMOOTH",
"201 551 OFFCURVE",
"260 525 OFFCURVE",
"260 462 CURVE SMOOTH",
"260 385 OFFCURVE",
"186 367 OFFCURVE",
"148 367 CURVE SMOOTH",
"92 367 OFFCURVE",
"62 387 OFFCURVE",
"37 418 CURVE",
"51 430 LINE",
"73 406 OFFCURVE",
"101 394 OFFCURVE",
"134 394 CURVE SMOOTH",
"161 394 OFFCURVE",
"188 413 OFFCURVE",
"188 462 CURVE SMOOTH",
"188 510 OFFCURVE",
"159 524 OFFCURVE",
"128 524 CURVE SMOOTH",
"113 524 OFFCURVE",
"104 523 OFFCURVE",
"85 518 CURVE",
"69 546 LINE",
"187 653 LINE",
"109 653 LINE SMOOTH",
"76 653 OFFCURVE",
"59 639 OFFCURVE",
"59 610 CURVE",
"46 610 LINE",
"46 643 LINE SMOOTH",
"46 662 OFFCURVE",
"53 680 OFFCURVE",
"85 680 CURVE SMOOTH",
"238 680 LINE",
"238 662 LINE"
);
}
);
width = 626;
}
);
unicode = 00BE;
},
{
glyphname = questiondown;
lastChange = "2015-07-31 18:27:43 +0000";
layers = (
{
layerId = UUID0;
name = Regular;
paths = (
{
closed = 1;
nodes = (
"346 -167 OFFCURVE",
"412 -114 OFFCURVE",
"436 21 CURVE",
"466 21 LINE",
"466 -38 OFFCURVE",
"467 -96 OFFCURVE",
"440 -131 CURVE",
"403 -174 OFFCURVE",
"323 -212 OFFCURVE",
"240 -212 CURVE SMOOTH",
"118 -212 OFFCURVE",
"26 -142 OFFCURVE",
"26 -19 CURVE SMOOTH",
"26 149 OFFCURVE",
"213 169 OFFCURVE",
"225 312 CURVE",
"293 312 LINE",
"285 164 OFFCURVE",
"166 130 OFFCURVE",
"166 -19 CURVE SMOOTH",
"166 -132 OFFCURVE",
"210 -167 OFFCURVE",
"270 -167 CURVE SMOOTH"
);
},
{
closed = 1;
nodes = (
"198 457 OFFCURVE",
"220 482 OFFCURVE",
"259 482 CURVE SMOOTH",
"298 482 OFFCURVE",
"320 457 OFFCURVE",
"320 421 CURVE SMOOTH",
"320 385 OFFCURVE",
"298 360 OFFCURVE",
"259 360 CURVE SMOOTH",
"220 360 OFFCURVE",
"198 385 OFFCURVE",
"198 421 CURVE SMOOTH"
);
}
);
width = 492;
}
);
unicode = 00BF;
},
{
glyphname = Aring;
lastChange = "2015-07-31 18:27:42 +0000";
layers = (
{
layerId = UUID0;
name = Regular;
paths = (
{
closed = 1;
nodes = (
"420 661 OFFCURVE",
"389 630 OFFCURVE",
"365 619 CURVE",
"572 126 LINE SMOOTH",
"596 67 OFFCURVE",
"631 31 OFFCURVE",
"676 26 CURVE",
"676 1 LINE",
"665 -2 OFFCURVE",
"643 -4 OFFCURVE",
"628 -4 CURVE SMOOTH",
"562 -4 OFFCURVE",
"479 12 OFFCURVE",
"431 126 CURVE SMOOTH",
"408 182 LINE",
"142 182 LINE",
"60 0 LINE",
"8 0 LINE",
"284 619 LINE",
"260 631 OFFCURVE",
"230 661 OFFCURVE",
"230 705 CURVE SMOOTH",
"230 761 OFFCURVE",
"269 800 OFFCURVE",
"325 800 CURVE SMOOTH",
"381 800 OFFCURVE",
"420 761 OFFCURVE",
"420 705 CURVE SMOOTH"
);
},
{
closed = 1;
nodes = (
"163 227 LINE",
"389 227 LINE",
"279 488 LINE"
);
},
{
closed = 1;
nodes = (
"348 660 LINE",
"363 670 OFFCURVE",
"370 685 OFFCURVE",
"370 705 CURVE SMOOTH",
"370 736 OFFCURVE",
"350 755 OFFCURVE",
"325 755 CURVE SMOOTH",
"300 755 OFFCURVE",
"280 736 OFFCURVE",
"280 705 CURVE SMOOTH",
"280 685 OFFCURVE",
"288 670 OFFCURVE",
"303 660 CURVE"
);
}
);
width = 647;
}
);
leftKerningGroup = A;
rightKerningGroup = A;
unicode = 00C5;
},
{
glyphname = AE;
lastChange = "2015-07-31 18:27:42 +0000";
layers = (
{
layerId = UUID0;
name = Regular;
paths = (
{
closed = 1;
nodes = (
"724 660 LINE SMOOTH",
"793 660 OFFCURVE",
"809 620 OFFCURVE",
"809 580 CURVE SMOOTH",
"809 495 LINE",
"779 495 LINE",
"779 580 OFFCURVE",
"734 615 OFFCURVE",
"654 615 CURVE SMOOTH",
"493 615 LINE",
"493 365 LINE",
"753 365 LINE",
"753 320 LINE",
"493 320 LINE",
"493 45 LINE",
"664 45 LINE SMOOTH",
"737 45 OFFCURVE",
"787 72 OFFCURVE",
"822 159 CURVE",
"849 149 LINE",
"820 70 LINE SMOOTH",
"805 27 OFFCURVE",
"788 0 OFFCURVE",
"733 0 CURVE SMOOTH",
"363 0 LINE",
"363 190 LINE",
"145 190 LINE",
"38 0 LINE",
"-22 0 LINE",
"348 660 LINE"
);
},
{
closed = 1;
nodes = (
"363 235 LINE",
"363 579 LINE",
"170 235 LINE"
);
}
);
width = 868;
}
);
rightKerningGroup = E;
unicode = 00C6;
},
{
glyphname = Ccedilla;
lastChange = "2015-07-31 18:27:43 +0000";
layers = (
{
layerId = UUID0;
name = Regular;
paths = (
{
closed = 1;
nodes = (
"600 447 LINE",
"575 568 OFFCURVE",
"508 635 OFFCURVE",
"397 635 CURVE SMOOTH",
"274 635 OFFCURVE",
"177 563 OFFCURVE",
"177 320 CURVE SMOOTH",
"177 167 OFFCURVE",
"238 25 OFFCURVE",
"397 25 CURVE SMOOTH",
"489 25 OFFCURVE",
"572 75 OFFCURVE",
"620 168 CURVE",
"655 141 LINE",
"595 34 OFFCURVE",
"515 -15 OFFCURVE",
"387 -19 CURVE",
"387 -50 LINE",
"443 -50 OFFCURVE",
"477 -80 OFFCURVE",
"477 -128 CURVE SMOOTH",
"477 -175 OFFCURVE",
"443 -206 OFFCURVE",
"387 -206 CURVE SMOOTH",
"317 -206 LINE",
"317 -160 LINE",
"367 -160 LINE SMOOTH",
"392 -160 OFFCURVE",
"407 -145 OFFCURVE",
"407 -128 CURVE SMOOTH",
"407 -109 OFFCURVE",
"392 -95 OFFCURVE",
"367 -95 CURVE SMOOTH",
"322 -95 LINE",
"322 -17 LINE",
"141 2 OFFCURVE",
"37 142 OFFCURVE",
"37 320 CURVE SMOOTH",
"37 522 OFFCURVE",
"178 680 OFFCURVE",
"367 680 CURVE SMOOTH",
"492 680 OFFCURVE",
"567 642 OFFCURVE",
"604 599 CURVE",
"631 564 OFFCURVE",
"630 506 OFFCURVE",
"630 447 CURVE"
);
}
);
width = 679;
}
);
leftKerningGroup = C;
rightKerningGroup = C;
unicode = 00C7;
},
{
glyphname = Idieresis;
lastChange = "2015-07-31 18:27:43 +0000";
layers = (
{
layerId = UUID0;
name = Regular;
paths = (
{
closed = 1;
nodes = (
"79 660 LINE",
"209 660 LINE",
"209 130 LINE SMOOTH",
"209 70 OFFCURVE",
"219 30 OFFCURVE",
"279 30 CURVE SMOOTH",
"289 30 LINE",
"289 0 LINE",
"169 0 LINE SMOOTH",
"99 0 OFFCURVE",
"79 29 OFFCURVE",
"79 130 CURVE SMOOTH"
);
},
{
closed = 1;
nodes = (
"117 740 OFFCURVE",
"96 715 OFFCURVE",
"61 715 CURVE SMOOTH",
"26 715 OFFCURVE",
"5 740 OFFCURVE",
"5 771 CURVE SMOOTH",
"5 802 OFFCURVE",
"26 827 OFFCURVE",
"61 827 CURVE SMOOTH",
"96 827 OFFCURVE",
"117 802 OFFCURVE",
"117 771 CURVE SMOOTH"
);
},
{
closed = 1;
nodes = (
"283 740 OFFCURVE",
"262 715 OFFCURVE",
"227 715 CURVE SMOOTH",
"192 715 OFFCURVE",
"171 740 OFFCURVE",
"171 771 CURVE SMOOTH",
"171 802 OFFCURVE",
"192 827 OFFCURVE",
"227 827 CURVE SMOOTH",
"262 827 OFFCURVE",
"283 802 OFFCURVE",
"283 771 CURVE SMOOTH"
);
}
);
width = 304;
}
);
leftKerningGroup = I;
rightKerningGroup = H;
unicode = 00CF;
},
{
glyphname = Eth;
lastChange = "2015-07-31 18:27:43 +0000";
layers = (
{
layerId = UUID0;
name = Regular;
paths = (
{
closed = 1;
nodes = (
"287 660 LINE SMOOTH",
"561 660 OFFCURVE",
"700 537 OFFCURVE",
"700 334 CURVE SMOOTH",
"700 137 OFFCURVE",
"565 0 OFFCURVE",
"313 0 CURVE SMOOTH",
"95 0 LINE",
"95 305 LINE",
"25 305 LINE",
"25 355 LINE",
"95 355 LINE",
"95 530 LINE SMOOTH",
"95 590 OFFCURVE",
"85 630 OFFCURVE",
"25 630 CURVE SMOOTH",
"15 630 LINE",
"15 660 LINE"
);
},
{
closed = 1;
nodes = (
"300 620 LINE SMOOTH",
"280 620 OFFCURVE",
"262 619 OFFCURVE",
"247 616 CURVE SMOOTH",
"225 613 LINE",
"225 355 LINE",
"300 355 LINE",
"300 305 LINE",
"225 305 LINE",
"225 47 LINE",
"247 43 LINE SMOOTH",
"261 41 OFFCURVE",
"279 40 OFFCURVE",
"300 40 CURVE SMOOTH",
"310 40 LINE SMOOTH",
"449 40 OFFCURVE",
"550 150 OFFCURVE",
"550 330 CURVE SMOOTH",
"550 506 OFFCURVE",
"452 620 OFFCURVE",
"308 620 CURVE SMOOTH"
);
}
);
width = 736;
}
);
leftKerningGroup = B;
rightKerningGroup = D;
unicode = 00D0;
},
{
glyphname = multiply;
lastChange = "2015-07-31 18:27:43 +0000";
layers = (
{
layerId = UUID0;
name = Regular;
paths = (
{
closed = 1;
nodes = (
"245 271 LINE",
"105 132 LINE",
"42 195 LINE",
"181 334 LINE",
"43 472 LINE",
"107 536 LINE",
"245 398 LINE",
"384 537 LINE",
"448 474 LINE",
"308 334 LINE",
"446 196 LINE",
"382 133 LINE"
);
}
);
width = 489;
}
);
unicode = 00D7;
},
{
glyphname = Oslash;
lastChange = "2015-07-31 18:27:43 +0000";
layers = (
{
layerId = UUID0;
name = Regular;
paths = (
{
closed = 1;
nodes = (
"107 -20 LINE",
"152 56 LINE",
"79 120 OFFCURVE",
"37 217 OFFCURVE",
"37 330 CURVE SMOOTH",
"37 527 OFFCURVE",
"168 680 OFFCURVE",
"367 680 CURVE SMOOTH",
"419 680 OFFCURVE",
"467 670 OFFCURVE",
"510 649 CURVE",
"528 680 LINE",
"620 680 LINE",
"576 607 LINE",
"652 543 OFFCURVE",
"696 446 OFFCURVE",
"696 330 CURVE SMOOTH",
"696 133 OFFCURVE",
"566 -20 OFFCURVE",
"367 -20 CURVE SMOOTH",
"311 -20 OFFCURVE",
"262 -8 OFFCURVE",
"219 13 CURVE",
"199 -20 LINE"
);
},
{
closed = 1;
nodes = (
"558 409 OFFCURVE",
"546 471 OFFCURVE",
"525 522 CURVE",
"253 70 LINE",
"283 40 OFFCURVE",
"321 25 OFFCURVE",
"367 25 CURVE SMOOTH",
"488 25 OFFCURVE",
"558 135 OFFCURVE",
"558 330 CURVE SMOOTH"
);
},
{
closed = 1;
nodes = (
"177 257 OFFCURVE",
"187 195 OFFCURVE",
"206 145 CURVE",
"476 593 LINE",
"445 621 OFFCURVE",
"408 635 OFFCURVE",
"367 635 CURVE SMOOTH",
"246 635 OFFCURVE",
"177 525 OFFCURVE",
"177 330 CURVE SMOOTH"
);
}
);
width = 733;
}
);
leftKerningGroup = C;
rightKerningGroup = O;
unicode = 00D8;
},
{
glyphname = Thorn;
lastChange = "2015-07-31 18:27:43 +0000";
layers = (
{
layerId = UUID0;
name = Regular;
paths = (
{
closed = 1;
nodes = (
"227 550 LINE",
"434 545 OFFCURVE",
"537 466 OFFCURVE",
"537 315 CURVE SMOOTH",
"537 162 OFFCURVE",
"434 84 OFFCURVE",
"227 80 CURVE",
"227 -30 LINE",
"97 -30 LINE",
"97 560 LINE SMOOTH",
"97 620 OFFCURVE",
"87 660 OFFCURVE",
"27 660 CURVE SMOOTH",
"17 660 LINE",
"17 690 LINE",
"137 690 LINE SMOOTH",
"207 690 OFFCURVE",
"227 659 OFFCURVE",
"227 560 CURVE SMOOTH"
);
},
{
closed = 1;
nodes = (
"397 424 OFFCURVE",
"343 497 OFFCURVE",
"227 504 CURVE",
"227 125 LINE",
"344 133 OFFCURVE",
"397 206 OFFCURVE",
"397 315 CURVE SMOOTH"
);
}
);
width = 555;
}
);
leftKerningGroup = B;
unicode = 00DE;
},
{
glyphname = germandbls;
lastChange = "2015-07-31 18:27:43 +0000";
layers = (
{
layerId = UUID0;
name = Regular;
paths = (
{
closed = 1;
nodes = (
"340 601 OFFCURVE",
"310 625 OFFCURVE",
"270 625 CURVE SMOOTH",
"225 625 OFFCURVE",
"190 595 OFFCURVE",
"190 500 CURVE SMOOTH",
"190 0 LINE",
"60 0 LINE",
"60 500 LINE SMOOTH",
"60 640 OFFCURVE",
"150 670 OFFCURVE",
"275 670 CURVE SMOOTH",
"406 670 OFFCURVE",
"465 630 OFFCURVE",
"465 570 CURVE SMOOTH",
"465 461 OFFCURVE",
"340 439 OFFCURVE",
"340 370 CURVE SMOOTH",
"340 260 OFFCURVE",
"555 255 OFFCURVE",
"555 120 CURVE SMOOTH",
"555 29 OFFCURVE",
"465 -10 OFFCURVE",
"380 -10 CURVE SMOOTH",
"329 -10 OFFCURVE",
"280 5 OFFCURVE",
"255 30 CURVE SMOOTH",
"230 55 OFFCURVE",
"230 95 OFFCURVE",
"230 120 CURVE",
"260 120 LINE",
"265 80 OFFCURVE",
"300 35 OFFCURVE",
"360 35 CURVE SMOOTH",
"405 35 OFFCURVE",
"430 65 OFFCURVE",
"430 100 CURVE SMOOTH",
"430 210 OFFCURVE",
"235 215 OFFCURVE",
"235 350 CURVE SMOOTH",
"235 460 OFFCURVE",
"340 459 OFFCURVE",
"340 550 CURVE SMOOTH"
);
}
);
width = 573;
}
);
unicode = 00DF;
},
{
glyphname = ae;
lastChange = "2015-07-31 18:27:43 +0000";
layers = (
{
layerId = UUID0;
name = Regular;
paths = (
{
closed = 1;
nodes = (
"637 35 OFFCURVE",
"676 71 OFFCURVE",
"711 118 CURVE",
"742 95 LINE",
"713 50 OFFCURVE",
"662 -10 OFFCURVE",
"553 -10 CURVE SMOOTH",
"480 -10 OFFCURVE",
"423 20 OFFCURVE",
"383 80 CURVE",
"359 35 OFFCURVE",
"302 -10 OFFCURVE",
"208 -10 CURVE SMOOTH",
"88 -10 OFFCURVE",
"28 45 OFFCURVE",
"28 120 CURVE SMOOTH",
"28 205 OFFCURVE",
"87 262 OFFCURVE",
"303 262 CURVE SMOOTH",
"318 262 LINE",
"318 383 OFFCURVE",
"283 435 OFFCURVE",
"218 435 CURVE SMOOTH",
"173 435 OFFCURVE",
"134 420 OFFCURVE",
"118 345 CURVE",
"63 345 LINE",
"63 380 OFFCURVE",
"64 418 OFFCURVE",
"88 445 CURVE SMOOTH",
"111 471 OFFCURVE",
"173 480 OFFCURVE",
"218 480 CURVE SMOOTH",
"303 480 OFFCURVE",
"362 445 OFFCURVE",
"393 389 CURVE",
"432 450 OFFCURVE",
"489 480 OFFCURVE",
"553 480 CURVE SMOOTH",
"669 480 OFFCURVE",
"763 400 OFFCURVE",
"763 280 CURVE SMOOTH",
"763 265 OFFCURVE",
"762 249 OFFCURVE",
"761 237 CURVE SMOOTH",
"759 217 LINE",
"458 217 LINE",
"458 207 LINE SMOOTH",
"459 83 OFFCURVE",
"504 35 OFFCURVE",
"568 35 CURVE SMOOTH"
);
},
{
closed = 1;
nodes = (
"628 262 LINE",
"628 385 OFFCURVE",
"592 435 OFFCURVE",
"543 435 CURVE SMOOTH",
"498 435 OFFCURVE",
"458 385 OFFCURVE",
"458 262 CURVE"
);
},
{
closed = 1;
nodes = (
"318 217 LINE",
"303 217 LINE SMOOTH",
"187 217 OFFCURVE",
"163 180 OFFCURVE",
"163 120 CURVE SMOOTH",
"163 75 OFFCURVE",
"188 40 OFFCURVE",
"228 40 CURVE SMOOTH",
"260 40 OFFCURVE",
"282 56 OFFCURVE",
"297 72 CURVE SMOOTH",
"305 81 OFFCURVE",
"312 92 OFFCURVE",
"318 105 CURVE"
);
}
);
width = 795;
}
);
leftKerningGroup = a;
rightKerningGroup = e;
unicode = 00E6;
},
{
glyphname = ccedilla;
lastChange = "2015-07-31 18:27:43 +0000";
layers = (
{
layerId = UUID0;
name = Regular;
paths = (
{
closed = 1;
nodes = (
"221 435 OFFCURVE",
"172 371 OFFCURVE",
"172 235 CURVE SMOOTH",
"172 102 OFFCURVE",
"214 35 OFFCURVE",
"297 35 CURVE SMOOTH",
"366 35 OFFCURVE",
"405 71 OFFCURVE",
"440 118 CURVE",
"471 95 LINE",
"442 53 OFFCURVE",
"399 -4 OFFCURVE",
"296 -9 CURVE",
"296 -32 LINE",
"347 -32 OFFCURVE",
"382 -62 OFFCURVE",
"382 -110 CURVE SMOOTH",
"382 -157 OFFCURVE",
"347 -188 OFFCURVE",
"296 -188 CURVE SMOOTH",
"236 -188 LINE",
"236 -142 LINE",
"276 -142 LINE SMOOTH",
"301 -142 OFFCURVE",
"316 -127 OFFCURVE",
"316 -110 CURVE SMOOTH",
"316 -91 OFFCURVE",
"301 -77 OFFCURVE",
"276 -77 CURVE SMOOTH",
"237 -77 LINE",
"237 -7 LINE",
"104 9 OFFCURVE",
"37 112 OFFCURVE",
"37 235 CURVE SMOOTH",
"37 368 OFFCURVE",
"117 480 OFFCURVE",
"277 480 CURVE SMOOTH",
"353 480 OFFCURVE",
"407 470 OFFCURVE",
"432 445 CURVE SMOOTH",
"457 420 OFFCURVE",
"457 381 OFFCURVE",
"457 305 CURVE",
"427 305 LINE",
"422 390 OFFCURVE",
"372 435 OFFCURVE",
"292 435 CURVE SMOOTH"
);
}
);
width = 498;
}
);
leftKerningGroup = c;
rightKerningGroup = c;
unicode = 00E7;
},
{
glyphname = idieresis;
lastChange = "2015-07-31 18:27:43 +0000";
layers = (
{
layerId = UUID0;
name = Regular;
paths = (
{
closed = 1;
nodes = (
"109 555 OFFCURVE",
"85 534 OFFCURVE",
"54 534 CURVE SMOOTH",
"3 534 OFFCURVE",
"-21 570 OFFCURVE",
"-21 610 CURVE SMOOTH",
"-21 645 OFFCURVE",
"3 666 OFFCURVE",
"34 666 CURVE SMOOTH",
"85 666 OFFCURVE",
"109 630 OFFCURVE",
"109 590 CURVE SMOOTH"
);
},
{
closed = 1;
nodes = (
"79 340 LINE SMOOTH",
"79 400 OFFCURVE",
"69 440 OFFCURVE",
"9 440 CURVE SMOOTH",
"-1 440 LINE",
"-1 470 LINE",
"119 470 LINE SMOOTH",
"189 470 OFFCURVE",
"209 439 OFFCURVE",
"209 340 CURVE SMOOTH",
"209 0 LINE",
"79 0 LINE"
);
},
{
closed = 1;
nodes = (
"294 555 OFFCURVE",
"270 534 OFFCURVE",
"239 534 CURVE SMOOTH",
"188 534 OFFCURVE",
"164 570 OFFCURVE",
"164 610 CURVE SMOOTH",
"164 645 OFFCURVE",
"188 666 OFFCURVE",
"219 666 CURVE SMOOTH",
"270 666 OFFCURVE",
"294 630 OFFCURVE",
"294 590 CURVE SMOOTH"
);
}
);
width = 267;
}
);
leftKerningGroup = i;
rightKerningGroup = i;
unicode = 00EF;
},
{
glyphname = eth;
lastChange = "2015-07-31 18:27:43 +0000";
layers = (
{
layerId = UUID0;
name = Regular;
paths = (
{
closed = 1;
nodes = (
"391 468 OFFCURVE",
"372 516 OFFCURVE",
"340 555 CURVE",
"293 508 LINE",
"253 548 LINE",
"300 595 LINE",
"272 622 OFFCURVE",
"233 625 OFFCURVE",
"196 625 CURVE SMOOTH",
"181 625 OFFCURVE",
"167 623 OFFCURVE",
"158 620 CURVE SMOOTH",
"152 619 OFFCURVE",
"147 617 OFFCURVE",
"143 616 CURVE",
"129 648 LINE",
"153 663 OFFCURVE",
"191 670 OFFCURVE",
"216 670 CURVE SMOOTH",
"273 670 OFFCURVE",
"311 657 OFFCURVE",
"344 634 CURVE",
"387 680 LINE",
"427 642 LINE",
"385 600 LINE",
"460 533 OFFCURVE",
"516 418 OFFCURVE",
"516 270 CURVE SMOOTH",
"516 100 OFFCURVE",
"436 -10 OFFCURVE",
"276 -10 CURVE SMOOTH",
"116 -10 OFFCURVE",
"36 100 OFFCURVE",
"36 235 CURVE SMOOTH",
"36 370 OFFCURVE",
"117 480 OFFCURVE",
"266 480 CURVE SMOOTH",
"331 480 OFFCURVE",
"381 451 OFFCURVE",
"406 400 CURVE"
);
},
{
closed = 1;
nodes = (
"381 330 OFFCURVE",
"351 435 OFFCURVE",
"276 435 CURVE SMOOTH",
"201 435 OFFCURVE",
"171 330 OFFCURVE",
"171 235 CURVE SMOOTH",
"171 100 OFFCURVE",
"220 35 OFFCURVE",
"276 35 CURVE SMOOTH",
"332 35 OFFCURVE",
"381 100 OFFCURVE",
"381 235 CURVE SMOOTH"
);
}
);
width = 557;
}
);
leftKerningGroup = c;
unicode = 00F0;
},
{
glyphname = divide;
lastChange = "2015-07-31 18:27:43 +0000";
layers = (
{
layerId = UUID0;
name = Regular;
paths = (
{
closed = 1;
nodes = (
"504 297 LINE",
"44 297 LINE",
"44 362 LINE",
"504 362 LINE"
);
},
{
closed = 1;
nodes = (
"330 450 OFFCURVE",
"309 425 OFFCURVE",
"274 425 CURVE SMOOTH",
"239 425 OFFCURVE",
"218 450 OFFCURVE",
"218 481 CURVE SMOOTH",
"218 512 OFFCURVE",
"239 537 OFFCURVE",
"274 537 CURVE SMOOTH",
"309 537 OFFCURVE",
"330 512 OFFCURVE",
"330 481 CURVE SMOOTH"
);
},
{
closed = 1;
nodes = (
"330 148 OFFCURVE",
"309 123 OFFCURVE",
"274 123 CURVE SMOOTH",
"239 123 OFFCURVE",
"218 148 OFFCURVE",
"218 179 CURVE SMOOTH",
"218 210 OFFCURVE",
"239 235 OFFCURVE",
"274 235 CURVE SMOOTH",
"309 235 OFFCURVE",
"330 210 OFFCURVE",
"330 179 CURVE SMOOTH"
);
}
);
width = 548;
}
);
unicode = 00F7;
},
{
glyphname = oslash;
lastChange = "2015-07-31 18:27:43 +0000";
layers = (
{
layerId = UUID0;
name = Regular;
paths = (
{
closed = 1;
nodes = (
"36 372 OFFCURVE",
"127 480 OFFCURVE",
"276 480 CURVE SMOOTH",
"320 480 OFFCURVE",
"359 470 OFFCURVE",
"392 454 CURVE",
"404 470 LINE",
"496 470 LINE",
"451 410 LINE",
"494 366 OFFCURVE",
"516 304 OFFCURVE",
"516 235 CURVE SMOOTH",
"516 98 OFFCURVE",
"425 -10 OFFCURVE",
"276 -10 CURVE SMOOTH",
"232 -10 OFFCURVE",
"193 0 OFFCURVE",
"160 16 CURVE",
"148 0 LINE",
"56 0 LINE",
"100 60 LINE",
"59 104 OFFCURVE",
"36 166 OFFCURVE",
"36 235 CURVE SMOOTH"
);
},
{
closed = 1;
nodes = (
"381 261 OFFCURVE",
"379 285 OFFCURVE",
"375 307 CURVE",
"205 77 LINE",
"222 50 OFFCURVE",
"245 35 OFFCURVE",
"276 35 CURVE SMOOTH",
"346 35 OFFCURVE",
"381 120 OFFCURVE",
"381 235 CURVE SMOOTH"
);
},
{
closed = 1;
nodes = (
"171 208 OFFCURVE",
"172 185 OFFCURVE",
"176 162 CURVE",
"346 392 LINE",
"329 419 OFFCURVE",
"307 435 OFFCURVE",
"276 435 CURVE SMOOTH",
"206 435 OFFCURVE",
"171 350 OFFCURVE",
"171 235 CURVE SMOOTH"
);
}
);
width = 552;
}
);
leftKerningGroup = c;
rightKerningGroup = b;
unicode = 00F8;
},
{
glyphname = thorn;
lastChange = "2015-07-31 18:27:43 +0000";
layers = (
{
layerId = UUID0;
name = Regular;
paths = (
{
closed = 1;
nodes = (
"60 530 LINE SMOOTH",
"60 590 OFFCURVE",
"50 630 OFFCURVE",
"-10 630 CURVE SMOOTH",
"-20 630 LINE",
"-20 660 LINE",
"100 660 LINE SMOOTH",
"170 660 OFFCURVE",
"190 629 OFFCURVE",
"190 530 CURVE SMOOTH",
"190 445 LINE",
"213 464 OFFCURVE",
"248 480 OFFCURVE",
"304 480 CURVE SMOOTH",
"439 480 OFFCURVE",
"504 380 OFFCURVE",
"504 235 CURVE SMOOTH",
"504 90 OFFCURVE",
"439 -10 OFFCURVE",
"294 -10 CURVE SMOOTH",
"251 -10 OFFCURVE",
"217 -1 OFFCURVE",
"190 10 CURVE",
"190 -190 LINE",
"60 -190 LINE"
);
},
{
closed = 1;
nodes = (
"234 435 OFFCURVE",
"209 422 OFFCURVE",
"190 405 CURVE",
"190 50 LINE",
"214 41 OFFCURVE",
"239 35 OFFCURVE",
"259 35 CURVE SMOOTH",
"330 35 OFFCURVE",
"369 110 OFFCURVE",
"369 235 CURVE SMOOTH",
"369 360 OFFCURVE",
"329 435 OFFCURVE",
"269 435 CURVE SMOOTH"
);
}
);
width = 542;
}
);
leftKerningGroup = b;
rightKerningGroup = b;
unicode = 00FE;
},
{
glyphname = Idotaccent;
lastChange = "2015-07-31 18:27:43 +0000";
layers = (
{
layerId = UUID0;
name = Regular;
paths = (
{
closed = 1;
nodes = (
"79 660 LINE",
"209 660 LINE",
"209 130 LINE SMOOTH",
"209 70 OFFCURVE",
"219 30 OFFCURVE",
"279 30 CURVE SMOOTH",
"289 30 LINE",
"289 0 LINE",
"169 0 LINE SMOOTH",
"99 0 OFFCURVE",
"79 29 OFFCURVE",
"79 130 CURVE SMOOTH"
);
},
{
closed = 1;
nodes = (
"204 735 OFFCURVE",
"180 714 OFFCURVE",
"149 714 CURVE SMOOTH",
"98 714 OFFCURVE",
"74 750 OFFCURVE",
"74 790 CURVE SMOOTH",
"74 825 OFFCURVE",
"98 846 OFFCURVE",
"129 846 CURVE SMOOTH",
"180 846 OFFCURVE",
"204 810 OFFCURVE",
"204 770 CURVE SMOOTH"
);
}
);
width = 304;
}
);
leftKerningGroup = I;
rightKerningGroup = H;
unicode = 0130;
},
{
glyphname = dotlessi;
lastChange = "2015-07-31 18:27:43 +0000";
layers = (
{
layerId = UUID0;
name = Regular;
paths = (
{
closed = 1;
nodes = (
"79 340 LINE SMOOTH",
"79 400 OFFCURVE",
"69 440 OFFCURVE",
"9 440 CURVE SMOOTH",
"-1 440 LINE",
"-1 470 LINE",
"119 470 LINE SMOOTH",
"189 470 OFFCURVE",
"209 439 OFFCURVE",
"209 340 CURVE SMOOTH",
"209 0 LINE",
"79 0 LINE"
);
}
);
width = 267;
}
);
leftKerningGroup = i;
rightKerningGroup = i;
unicode = 0131;
},
{
glyphname = OE;
lastChange = "2015-07-31 18:27:43 +0000";
layers = (
{
layerId = UUID0;
name = Regular;
paths = (
{
closed = 1;
nodes = (
"37 527 OFFCURVE",
"168 680 OFFCURVE",
"367 680 CURVE SMOOTH",
"423 680 OFFCURVE",
"451 671 OFFCURVE",
"482 660 CURVE",
"813 660 LINE SMOOTH",
"882 660 OFFCURVE",
"898 620 OFFCURVE",
"898 580 CURVE SMOOTH",
"898 495 LINE",
"868 495 LINE",
"868 580 OFFCURVE",
"823 615 OFFCURVE",
"743 615 CURVE SMOOTH",
"582 615 LINE",
"582 365 LINE",
"842 365 LINE",
"842 320 LINE",
"582 320 LINE",
"582 45 LINE",
"753 45 LINE SMOOTH",
"826 45 OFFCURVE",
"876 72 OFFCURVE",
"911 159 CURVE",
"938 149 LINE",
"909 70 LINE SMOOTH",
"894 27 OFFCURVE",
"877 0 OFFCURVE",
"822 0 CURVE SMOOTH",
"482 0 LINE",
"447 -15 OFFCURVE",
"412 -20 OFFCURVE",
"367 -20 CURVE SMOOTH",
"168 -20 OFFCURVE",
"37 133 OFFCURVE",
"37 330 CURVE SMOOTH"
);
},
{
closed = 1;
nodes = (
"398 25 OFFCURVE",
"427 33 OFFCURVE",
"452 48 CURVE",
"452 611 LINE",
"427 627 OFFCURVE",
"398 635 OFFCURVE",
"367 635 CURVE SMOOTH",
"246 635 OFFCURVE",
"177 525 OFFCURVE",
"177 330 CURVE SMOOTH",
"177 135 OFFCURVE",
"246 25 OFFCURVE",
"367 25 CURVE SMOOTH"
);
}
);
width = 957;
}
);
leftKerningGroup = C;
rightKerningGroup = E;
unicode = 0152;
},
{
glyphname = oe;
lastChange = "2015-07-31 18:27:43 +0000";
layers = (
{
layerId = UUID0;
name = Regular;
paths = (
{
closed = 1;
nodes = (
"695 35 OFFCURVE",
"734 71 OFFCURVE",
"769 118 CURVE",
"800 95 LINE",
"771 50 OFFCURVE",
"720 -10 OFFCURVE",
"611 -10 CURVE SMOOTH",
"543 -10 OFFCURVE",
"487 13 OFFCURVE",
"447 56 CURVE",
"406 15 OFFCURVE",
"348 -10 OFFCURVE",
"276 -10 CURVE SMOOTH",
"127 -10 OFFCURVE",
"36 98 OFFCURVE",
"36 235 CURVE SMOOTH",
"36 372 OFFCURVE",
"127 480 OFFCURVE",
"276 480 CURVE SMOOTH",
"347 480 OFFCURVE",
"403 456 OFFCURVE",
"444 417 CURVE",
"484 459 OFFCURVE",
"536 480 OFFCURVE",
"601 480 CURVE SMOOTH",
"725 480 OFFCURVE",
"821 400 OFFCURVE",
"821 280 CURVE SMOOTH",
"821 265 OFFCURVE",
"820 249 OFFCURVE",
"819 237 CURVE SMOOTH",
"817 217 LINE",
"516 217 LINE",
"516 85 OFFCURVE",
"561 35 OFFCURVE",
"626 35 CURVE SMOOTH"
);
},
{
closed = 1;
nodes = (
"381 350 OFFCURVE",
"346 435 OFFCURVE",
"276 435 CURVE SMOOTH",
"206 435 OFFCURVE",
"171 350 OFFCURVE",
"171 235 CURVE SMOOTH",
"171 120 OFFCURVE",
"206 35 OFFCURVE",
"276 35 CURVE SMOOTH",
"346 35 OFFCURVE",
"381 120 OFFCURVE",
"381 235 CURVE SMOOTH"
);
},
{
closed = 1;
nodes = (
"686 262 LINE",
"686 394 OFFCURVE",
"651 435 OFFCURVE",
"601 435 CURVE SMOOTH",
"556 435 OFFCURVE",
"516 394 OFFCURVE",
"516 262 CURVE"
);
}
);
width = 853;
}
);
leftKerningGroup = c;
rightKerningGroup = e;
unicode = 0153;
},
{
glyphname = Scedilla;
lastChange = "2015-07-31 18:27:43 +0000";
layers = (
{
layerId = UUID0;
name = Regular;
paths = (
{
closed = 1;
nodes = (
"241 -15 LINE",
"141 -7 OFFCURVE",
"48 34 OFFCURVE",
"48 103 CURVE SMOOTH",
"48 220 LINE",
"76 220 LINE",
"97 81 OFFCURVE",
"161 28 OFFCURVE",
"273 28 CURVE SMOOTH",
"349 28 OFFCURVE",
"399 61 OFFCURVE",
"399 125 CURVE SMOOTH",
"399 182 OFFCURVE",
"360 215 OFFCURVE",
"296 254 CURVE SMOOTH",
"173 328 LINE",
"82 381 OFFCURVE",
"49 434 OFFCURVE",
"49 507 CURVE SMOOTH",
"49 612 OFFCURVE",
"136 678 OFFCURVE",
"273 678 CURVE SMOOTH",
"382 678 OFFCURVE",
"499 634 OFFCURVE",
"499 558 CURVE SMOOTH",
"499 441 LINE",
"471 441 LINE",
"448 580 OFFCURVE",
"385 633 OFFCURVE",
"284 633 CURVE SMOOTH",
"212 633 OFFCURVE",
"167 596 OFFCURVE",
"167 536 CURVE SMOOTH",
"167 480 OFFCURVE",
"208 451 OFFCURVE",
"271 414 CURVE SMOOTH",
"394 341 LINE SMOOTH",
"485 288 OFFCURVE",
"525 242 OFFCURVE",
"525 169 CURVE SMOOTH",
"525 62 OFFCURVE",
"447 -7 OFFCURVE",
"306 -16 CURVE",
"306 -50 LINE",
"362 -50 OFFCURVE",
"396 -80 OFFCURVE",
"396 -128 CURVE SMOOTH",
"396 -175 OFFCURVE",
"362 -206 OFFCURVE",
"306 -206 CURVE SMOOTH",
"236 -206 LINE",
"236 -160 LINE",
"286 -160 LINE SMOOTH",
"311 -160 OFFCURVE",
"326 -145 OFFCURVE",
"326 -128 CURVE SMOOTH",
"326 -109 OFFCURVE",
"311 -95 OFFCURVE",
"286 -95 CURVE SMOOTH",
"241 -95 LINE"
);
}
);
width = 563;
}
);
leftKerningGroup = S;
rightKerningGroup = S;
unicode = 015E;
},
{
glyphname = scedilla;
lastChange = "2015-07-31 18:27:43 +0000";
layers = (
{
layerId = UUID0;
name = Regular;
paths = (
{
closed = 1;
nodes = (
"191 -8 LINE",
"130 -4 OFFCURVE",
"91 10 OFFCURVE",
"68 31 CURVE SMOOTH",
"44 54 OFFCURVE",
"44 99 OFFCURVE",
"44 150 CURVE",
"79 150 LINE",
"90 86 OFFCURVE",
"129 35 OFFCURVE",
"209 35 CURVE SMOOTH",
"284 35 OFFCURVE",
"309 64 OFFCURVE",
"309 103 CURVE SMOOTH",
"309 142 OFFCURVE",
"270 161 OFFCURVE",
"219 184 CURVE",
"167 206 LINE SMOOTH",
"87 241 OFFCURVE",
"39 282 OFFCURVE",
"39 347 CURVE SMOOTH",
"39 434 OFFCURVE",
"119 480 OFFCURVE",
"229 480 CURVE SMOOTH",
"312 480 OFFCURVE",
"363 464 OFFCURVE",
"390 439 CURVE SMOOTH",
"414 416 OFFCURVE",
"414 371 OFFCURVE",
"414 320 CURVE",
"379 320 LINE",
"368 384 OFFCURVE",
"329 435 OFFCURVE",
"249 435 CURVE SMOOTH",
"189 435 OFFCURVE",
"164 406 OFFCURVE",
"164 367 CURVE SMOOTH",
"164 331 OFFCURVE",
"191 312 OFFCURVE",
"235 293 CURVE SMOOTH",
"295 268 LINE SMOOTH",
"387 229 OFFCURVE",
"434 194 OFFCURVE",
"434 123 CURVE SMOOTH",
"434 43 OFFCURVE",
"360 -2 OFFCURVE",
"256 -9 CURVE",
"256 -30 LINE",
"312 -30 OFFCURVE",
"346 -60 OFFCURVE",
"346 -108 CURVE SMOOTH",
"346 -155 OFFCURVE",
"312 -186 OFFCURVE",
"256 -186 CURVE SMOOTH",
"186 -186 LINE",
"186 -140 LINE",
"236 -140 LINE SMOOTH",
"261 -140 OFFCURVE",
"276 -125 OFFCURVE",
"276 -108 CURVE SMOOTH",
"276 -89 OFFCURVE",
"261 -75 OFFCURVE",
"236 -75 CURVE SMOOTH",
"191 -75 LINE"
);
}
);
width = 468;
}
);
leftKerningGroup = s;
rightKerningGroup = s;
unicode = 015F;
},
{
glyphname = circumflex;
lastChange = "2015-07-31 18:27:43 +0000";
layers = (
{
layerId = UUID0;
name = Regular;
paths = (
{
closed = 1;
nodes = (
"165 740 LINE",
"80 660 LINE",
"20 660 LINE",
"100 785 LINE",
"230 785 LINE",
"310 660 LINE",
"250 660 LINE"
);
}
);
width = 330;
}
);
unicode = 02C6;
},
{
glyphname = caron;
lastChange = "2015-07-31 18:27:43 +0000";
layers = (
{
layerId = UUID0;
name = Regular;
paths = (
{
closed = 1;
nodes = (
"240 645 LINE",
"310 645 LINE",
"230 520 LINE",
"100 520 LINE",
"20 645 LINE",
"90 645 LINE",
"165 565 LINE"
);
}
);
width = 330;
}
);
unicode = 02C7;
},
{
glyphname = breve;
lastChange = "2015-07-31 18:27:43 +0000";
layers = (
{
layerId = UUID0;
name = Regular;
paths = (
{
closed = 1;
nodes = (
"217 575 OFFCURVE",
"254 600 OFFCURVE",
"274 625 CURVE",
"302 604 LINE",
"277 548 OFFCURVE",
"226 510 OFFCURVE",
"161 510 CURVE SMOOTH",
"96 510 OFFCURVE",
"45 548 OFFCURVE",
"20 604 CURVE",
"48 625 LINE",
"68 600 OFFCURVE",
"105 575 OFFCURVE",
"161 575 CURVE SMOOTH"
);
}
);
width = 322;
}
);
unicode = 02D8;
},
{
glyphname = ring;
lastChange = "2015-07-31 18:27:43 +0000";
layers = (
{
layerId = UUID0;
name = Regular;
paths = (
{
closed = 1;
nodes = (
"20 671 OFFCURVE",
"59 710 OFFCURVE",
"115 710 CURVE SMOOTH",
"171 710 OFFCURVE",
"210 671 OFFCURVE",
"210 615 CURVE SMOOTH",
"210 559 OFFCURVE",
"171 520 OFFCURVE",
"115 520 CURVE SMOOTH",
"59 520 OFFCURVE",
"20 559 OFFCURVE",
"20 615 CURVE SMOOTH"
);
},
{
closed = 1;
nodes = (
"160 646 OFFCURVE",
"140 665 OFFCURVE",
"115 665 CURVE SMOOTH",
"90 665 OFFCURVE",
"70 646 OFFCURVE",
"70 615 CURVE SMOOTH",
"70 584 OFFCURVE",
"90 565 OFFCURVE",
"115 565 CURVE SMOOTH",
"140 565 OFFCURVE",
"160 584 OFFCURVE",
"160 615 CURVE SMOOTH"
);
}
);
width = 230;
}
);
unicode = 02DA;
},
{
glyphname = tilde;
lastChange = "2015-07-31 18:27:43 +0000";
layers = (
{
layerId = UUID0;
name = Regular;
paths = (
{
closed = 1;
nodes = (
"20 680 LINE",
"20 760 OFFCURVE",
"48 780 OFFCURVE",
"88 780 CURVE SMOOTH",
"133 780 OFFCURVE",
"153 740 OFFCURVE",
"180 740 CURVE SMOOTH",
"203 740 OFFCURVE",
"215 760 OFFCURVE",
"215 780 CURVE",
"255 780 LINE",
"255 700 OFFCURVE",
"228 680 OFFCURVE",
"188 680 CURVE SMOOTH",
"143 680 OFFCURVE",
"123 720 OFFCURVE",
"95 720 CURVE SMOOTH",
"72 720 OFFCURVE",
"60 700 OFFCURVE",
"60 680 CURVE"
);
}
);
width = 275;
}
);
unicode = 02DC;
},
{
glyphname = afii10051;
lastChange = "2015-07-31 18:27:43 +0000";
layers = (
{
layerId = UUID0;
name = Regular;
paths = (
{
closed = 1;
nodes = (
"484 340 OFFCURVE",
"429 380 OFFCURVE",
"374 380 CURVE SMOOTH",
"323 380 OFFCURVE",
"275 365 OFFCURVE",
"244 345 CURVE",
"244 0 LINE",
"114 0 LINE",
"114 615 LINE",
"-6 615 LINE",
"-6 660 LINE",
"364 660 LINE",
"364 615 LINE",
"244 615 LINE",
"244 390 LINE",
"275 410 OFFCURVE",
"333 430 OFFCURVE",
"394 430 CURVE SMOOTH",
"518 430 OFFCURVE",
"614 385 OFFCURVE",
"614 200 CURVE SMOOTH",
"614 25 OFFCURVE",
"534 -40 OFFCURVE",
"399 -40 CURVE",
"399 -15 LINE",
"452 -15 OFFCURVE",
"484 52 OFFCURVE",
"484 200 CURVE SMOOTH"
);
}
);
width = 638;
}
);
leftKerningGroup = afii10060;
unicode = 0402;
},
{
glyphname = afii10053;
lastChange = "2015-07-31 18:27:43 +0000";
layers = (
{
layerId = UUID0;
name = Regular;
paths = (
{
closed = 1;
nodes = (
"600 447 LINE",
"575 568 OFFCURVE",
"508 635 OFFCURVE",
"397 635 CURVE SMOOTH",
"282 635 OFFCURVE",
"186 570 OFFCURVE",
"178 355 CURVE",
"487 355 LINE",
"487 310 LINE",
"177 310 LINE",
"180 161 OFFCURVE",
"242 25 OFFCURVE",
"397 25 CURVE SMOOTH",
"489 25 OFFCURVE",
"572 75 OFFCURVE",
"620 168 CURVE",
"655 141 LINE",
"592 30 OFFCURVE",
"507 -20 OFFCURVE",
"367 -20 CURVE SMOOTH",
"156 -20 OFFCURVE",
"37 128 OFFCURVE",
"37 320 CURVE SMOOTH",
"37 522 OFFCURVE",
"178 680 OFFCURVE",
"367 680 CURVE SMOOTH",
"492 680 OFFCURVE",
"567 642 OFFCURVE",
"604 599 CURVE",
"631 564 OFFCURVE",
"630 506 OFFCURVE",
"630 447 CURVE"
);
}
);
width = 679;
}
);
leftKerningGroup = afii10032;
rightKerningGroup = afii10035;
unicode = 0404;
},
{
glyphname = afii10058;
lastChange = "2015-07-31 18:27:43 +0000";
layers = (
{
layerId = UUID0;
name = Regular;
paths = (
{
closed = 1;
nodes = (
"260 530 LINE SMOOTH",
"260 105 OFFCURVE",
"172 -15 OFFCURVE",
"52 -15 CURVE SMOOTH",
"27 -15 OFFCURVE",
"7 -11 OFFCURVE",
"-8 -6 CURVE",
"-8 25 LINE",
"77 43 OFFCURVE",
"150 121 OFFCURVE",
"150 530 CURVE SMOOTH",
"150 590 OFFCURVE",
"141 630 OFFCURVE",
"81 630 CURVE SMOOTH",
"71 630 LINE",
"71 660 LINE",
"596 660 LINE",
"596 390 LINE",
"686 390 LINE SMOOTH",
"820 390 OFFCURVE",
"971 351 OFFCURVE",
"971 195 CURVE SMOOTH",
"971 39 OFFCURVE",
"820 0 OFFCURVE",
"686 0 CURVE SMOOTH",
"466 0 LINE",
"466 615 LINE",
"260 615 LINE"
);
},
{
closed = 1;
nodes = (
"666 350 LINE SMOOTH",
"646 350 OFFCURVE",
"628 348 OFFCURVE",
"616 345 CURVE SMOOTH",
"596 340 LINE",
"596 50 LINE",
"602 48 OFFCURVE",
"609 46 OFFCURVE",
"616 45 CURVE SMOOTH",
"629 42 OFFCURVE",
"646 40 OFFCURVE",
"666 40 CURVE SMOOTH",
"671 40 LINE SMOOTH",
"780 40 OFFCURVE",
"831 95 OFFCURVE",
"831 195 CURVE SMOOTH",
"831 295 OFFCURVE",
"780 350 OFFCURVE",
"671 350 CURVE SMOOTH"
);
}
);
width = 988;
}
);
leftKerningGroup = afii10029;
rightKerningGroup = afii10044;
unicode = 0409;
},
{
glyphname = afii10059;
lastChange = "2015-07-31 18:27:43 +0000";
layers = (
{
layerId = UUID0;
name = Regular;
paths = (
{
closed = 1;
nodes = (
"225 365 LINE",
"476 365 LINE",
"476 660 LINE",
"606 660 LINE",
"606 370 LINE",
"695 370 LINE SMOOTH",
"839 370 OFFCURVE",
"990 330 OFFCURVE",
"990 185 CURVE SMOOTH",
"990 40 OFFCURVE",
"839 0 OFFCURVE",
"695 0 CURVE SMOOTH",
"476 0 LINE",
"476 320 LINE",
"225 320 LINE",
"225 0 LINE",
"95 0 LINE",
"95 530 LINE SMOOTH",
"95 590 OFFCURVE",
"85 630 OFFCURVE",
"25 630 CURVE SMOOTH",
"15 630 LINE",
"15 660 LINE",
"135 660 LINE SMOOTH",
"205 660 OFFCURVE",
"225 629 OFFCURVE",
"225 530 CURVE SMOOTH"
);
},
{
closed = 1;
nodes = (
"675 330 LINE SMOOTH",
"639 330 OFFCURVE",
"610 323 OFFCURVE",
"605 320 CURVE",
"605 50 LINE",
"611 48 OFFCURVE",
"618 46 OFFCURVE",
"625 45 CURVE SMOOTH",
"638 42 OFFCURVE",
"655 40 OFFCURVE",
"675 40 CURVE SMOOTH",
"680 40 LINE SMOOTH",
"800 40 OFFCURVE",
"850 94 OFFCURVE",
"850 185 CURVE SMOOTH",
"850 276 OFFCURVE",
"800 330 OFFCURVE",
"680 330 CURVE SMOOTH"
);
}
);
width = 1004;
}
);
leftKerningGroup = afii10018;
unicode = 040A;
},
{
glyphname = afii10060;
lastChange = "2015-07-31 18:27:43 +0000";
layers = (
{
layerId = UUID0;
name = Regular;
paths = (
{
closed = 1;
nodes = (
"244 0 LINE",
"114 0 LINE",
"114 615 LINE",
"-6 615 LINE",
"-6 660 LINE",
"364 660 LINE",
"364 615 LINE",
"244 615 LINE",
"244 390 LINE",
"275 410 OFFCURVE",
"333 430 OFFCURVE",
"394 430 CURVE SMOOTH",
"499 430 OFFCURVE",
"614 395 OFFCURVE",
"614 250 CURVE SMOOTH",
"614 0 LINE",
"484 0 LINE",
"484 250 LINE SMOOTH",
"484 349 OFFCURVE",
"439 380 OFFCURVE",
"374 380 CURVE SMOOTH",
"323 380 OFFCURVE",
"275 365 OFFCURVE",
"244 345 CURVE"
);
}
);
width = 650;
}
);
leftKerningGroup = afii10060;
unicode = 040B;
},
{
glyphname = afii10145;
lastChange = "2015-07-31 18:27:43 +0000";
layers = (
{
layerId = UUID0;
name = Regular;
paths = (
{
closed = 1;
nodes = (
"95 530 LINE SMOOTH",
"95 590 OFFCURVE",
"85 630 OFFCURVE",
"25 630 CURVE SMOOTH",
"15 630 LINE",
"15 660 LINE",
"135 660 LINE SMOOTH",
"205 660 OFFCURVE",
"225 629 OFFCURVE",
"225 530 CURVE SMOOTH",
"225 45 LINE",
"485 45 LINE",
"485 660 LINE",
"615 660 LINE",
"615 0 LINE",
"405 0 LINE",
"390 -175 LINE",
"320 -175 LINE",
"305 0 LINE",
"95 0 LINE"
);
}
);
width = 689;
}
);
leftKerningGroup = afii10018;
rightKerningGroup = afii10026;
unicode = 040F;
},
{
glyphname = afii10018;
lastChange = "2015-07-31 18:27:43 +0000";
layers = (
{
layerId = UUID0;
name = Regular;
paths = (
{
closed = 1;
nodes = (
"95 530 LINE SMOOTH",
"95 590 OFFCURVE",
"85 630 OFFCURVE",
"25 630 CURVE SMOOTH",
"15 630 LINE",
"15 660 LINE",
"454 660 LINE SMOOTH",
"523 660 OFFCURVE",
"539 620 OFFCURVE",
"539 580 CURVE SMOOTH",
"539 495 LINE",
"509 495 LINE",
"509 582 OFFCURVE",
"464 615 OFFCURVE",
"384 615 CURVE SMOOTH",
"225 615 LINE",
"225 380 LINE",
"315 380 LINE SMOOTH",
"459 380 OFFCURVE",
"610 350 OFFCURVE",
"610 190 CURVE SMOOTH",
"610 30 OFFCURVE",
"459 0 OFFCURVE",
"315 0 CURVE SMOOTH",
"95 0 LINE"
);
},
{
closed = 1;
nodes = (
"295 340 LINE SMOOTH",
"275 340 OFFCURVE",
"257 338 OFFCURVE",
"245 335 CURVE SMOOTH",
"225 330 LINE",
"225 50 LINE",
"231 48 OFFCURVE",
"238 46 OFFCURVE",
"245 45 CURVE SMOOTH",
"258 42 OFFCURVE",
"275 40 OFFCURVE",
"295 40 CURVE SMOOTH",
"300 40 LINE SMOOTH",
"420 40 OFFCURVE",
"470 85 OFFCURVE",
"470 190 CURVE SMOOTH",
"470 295 OFFCURVE",
"420 340 OFFCURVE",
"300 340 CURVE SMOOTH"
);
}
);
width = 635;
}
);
leftKerningGroup = afii10018;
unicode = 0411;
},
{
glyphname = afii10020;
lastChange = "2015-07-31 18:27:43 +0000";
layers = (
{
layerId = UUID0;
name = Regular;
paths = (
{
closed = 1;
nodes = (
"444 660 LINE SMOOTH",
"513 660 OFFCURVE",
"529 620 OFFCURVE",
"529 580 CURVE SMOOTH",
"529 495 LINE",
"499 495 LINE",
"499 582 OFFCURVE",
"454 615 OFFCURVE",
"374 615 CURVE SMOOTH",
"225 615 LINE",
"225 0 LINE",
"95 0 LINE",
"95 530 LINE SMOOTH",
"95 590 OFFCURVE",
"85 630 OFFCURVE",
"25 630 CURVE SMOOTH",
"15 630 LINE",
"15 660 LINE"
);
}
);
width = 544;
}
);
leftKerningGroup = afii10018;
rightKerningGroup = afii10020;
unicode = 0413;
},
{
glyphname = afii10021;
lastChange = "2015-07-31 18:27:43 +0000";
layers = (
{
layerId = UUID0;
name = Regular;
paths = (
{
closed = 1;
nodes = (
"473 45 LINE",
"473 615 LINE",
"253 615 LINE",
"253 343 OFFCURVE",
"232 182 OFFCURVE",
"173 45 CURVE"
);
},
{
closed = 1;
nodes = (
"69 45 LINE",
"134 186 OFFCURVE",
"154 349 OFFCURVE",
"154 530 CURVE SMOOTH",
"154 590 OFFCURVE",
"144 630 OFFCURVE",
"84 630 CURVE SMOOTH",
"74 630 LINE",
"74 660 LINE",
"603 660 LINE",
"603 45 LINE",
"638 45 LINE SMOOTH",
"658 45 OFFCURVE",
"673 30 OFFCURVE",
"673 10 CURVE SMOOTH",
"673 -184 LINE",
"623 -184 LINE",
"607 -40 OFFCURVE",
"570 0 OFFCURVE",
"498 0 CURVE SMOOTH",
"174 0 LINE SMOOTH",
"102 0 OFFCURVE",
"65 -40 OFFCURVE",
"49 -184 CURVE",
"-1 -184 LINE",
"-1 10 LINE SMOOTH",
"-1 30 OFFCURVE",
"14 45 OFFCURVE",
"34 45 CURVE SMOOTH"
);
}
);
width = 694;
}
);
rightKerningGroup = afii10021;
unicode = 0414;
},
{
glyphname = afii10024;
lastChange = "2015-07-31 18:27:43 +0000";
layers = (
{
layerId = UUID0;
name = Regular;
paths = (
{
closed = 1;
nodes = (
"429 660 LINE",
"560 660 LINE",
"560 340 LINE",
"723 555 LINE SMOOTH",
"766 611 OFFCURVE",
"820 660 OFFCURVE",
"900 660 CURVE SMOOTH",
"960 660 LINE",
"960 625 LINE",
"874 625 OFFCURVE",
"832 609 OFFCURVE",
"787 554 CURVE",
"648 370 LINE",
"849 130 LINE SMOOTH",
"898 71 OFFCURVE",
"959 31 OFFCURVE",
"999 24 CURVE",
"999 0 LINE",
"984 -5 OFFCURVE",
"964 -10 OFFCURVE",
"935 -10 CURVE SMOOTH",
"850 -10 OFFCURVE",
"777 10 OFFCURVE",
"691 120 CURVE SMOOTH",
"560 285 LINE",
"560 0 LINE",
"429 0 LINE",
"429 285 LINE",
"298 120 LINE SMOOTH",
"212 10 OFFCURVE",
"139 -10 OFFCURVE",
"54 -10 CURVE SMOOTH",
"25 -10 OFFCURVE",
"5 -5 OFFCURVE",
"-10 0 CURVE",
"-10 24 LINE",
"30 31 OFFCURVE",
"91 71 OFFCURVE",
"140 130 CURVE SMOOTH",
"341 370 LINE",
"202 554 LINE",
"157 609 OFFCURVE",
"115 625 OFFCURVE",
"29 625 CURVE",
"29 660 LINE",
"89 660 LINE SMOOTH",
"169 660 OFFCURVE",
"223 611 OFFCURVE",
"266 555 CURVE SMOOTH",
"429 340 LINE"
);
}
);
width = 989;
}
);
unicode = 0416;
},
{
glyphname = afii10025;
lastChange = "2015-07-31 18:27:43 +0000";
layers = (
{
layerId = UUID0;
name = Regular;
paths = (
{
closed = 1;
nodes = (
"154 360 LINE",
"239 360 LINE SMOOTH",
"310 360 OFFCURVE",
"389 405 OFFCURVE",
"389 500 CURVE SMOOTH",
"389 596 OFFCURVE",
"315 635 OFFCURVE",
"260 635 CURVE SMOOTH",
"169 635 OFFCURVE",
"105 570 OFFCURVE",
"80 470 CURVE",
"49 470 LINE",
"49 530 OFFCURVE",
"49 579 OFFCURVE",
"74 610 CURVE SMOOTH",
"109 653 OFFCURVE",
"195 680 OFFCURVE",
"265 680 CURVE SMOOTH",
"385 680 OFFCURVE",
"524 654 OFFCURVE",
"524 505 CURVE SMOOTH",
"524 441 OFFCURVE",
"470 369 OFFCURVE",
"370 345 CURVE",
"501 329 OFFCURVE",
"549 246 OFFCURVE",
"549 170 CURVE SMOOTH",
"549 26 OFFCURVE",
"400 -20 OFFCURVE",
"280 -20 CURVE SMOOTH",
"159 -20 OFFCURVE",
"79 24 OFFCURVE",
"19 115 CURVE",
"49 140 LINE",
"94 80 OFFCURVE",
"154 25 OFFCURVE",
"255 25 CURVE SMOOTH",
"340 25 OFFCURVE",
"409 74 OFFCURVE",
"409 165 CURVE SMOOTH",
"409 261 OFFCURVE",
"344 315 OFFCURVE",
"239 315 CURVE SMOOTH",
"154 315 LINE"
);
}
);
width = 580;
}
);
unicode = 0417;
},
{
glyphname = afii10026;
lastChange = "2015-07-31 18:27:43 +0000";
layers = (
{
layerId = UUID0;
name = Regular;
paths = (
{
closed = 1;
nodes = (
"95 530 LINE SMOOTH",
"95 590 OFFCURVE",
"85 630 OFFCURVE",
"25 630 CURVE SMOOTH",
"15 630 LINE",
"15 660 LINE",
"135 660 LINE SMOOTH",
"205 660 OFFCURVE",
"225 629 OFFCURVE",
"225 530 CURVE SMOOTH",
"225 130 LINE",
"515 660 LINE",
"635 660 LINE",
"635 0 LINE",
"505 0 LINE",
"505 530 LINE",
"215 0 LINE",
"95 0 LINE"
);
}
);
width = 709;
}
);
leftKerningGroup = afii10018;
rightKerningGroup = afii10026;
unicode = 0418;
},
{
glyphname = afii10029;
lastChange = "2015-07-31 18:27:43 +0000";
layers = (
{
layerId = UUID0;
name = Regular;
paths = (
{
closed = 1;
nodes = (
"150 590 OFFCURVE",
"140 630 OFFCURVE",
"80 630 CURVE SMOOTH",
"70 630 LINE",
"70 660 LINE",
"605 660 LINE",
"605 0 LINE",
"475 0 LINE",
"475 615 LINE",
"259 615 LINE",
"259 530 LINE SMOOTH",
"259 105 OFFCURVE",
"172 -15 OFFCURVE",
"52 -15 CURVE SMOOTH",
"27 -15 OFFCURVE",
"7 -11 OFFCURVE",
"-8 -6 CURVE",
"-8 25 LINE",
"77 43 OFFCURVE",
"150 121 OFFCURVE",
"150 530 CURVE SMOOTH"
);
}
);
width = 679;
}
);
leftKerningGroup = afii10029;
rightKerningGroup = afii10026;
unicode = 041B;
},
{
glyphname = afii10033;
lastChange = "2015-07-31 18:27:43 +0000";
layers = (
{
layerId = UUID0;
name = Regular;
paths = (
{
closed = 1;
nodes = (
"95 530 LINE SMOOTH",
"95 590 OFFCURVE",
"85 630 OFFCURVE",
"25 630 CURVE SMOOTH",
"15 630 LINE",
"15 660 LINE",
"615 660 LINE",
"615 0 LINE",
"485 0 LINE",
"485 615 LINE",
"225 615 LINE",
"225 0 LINE",
"95 0 LINE"
);
}
);
width = 689;
}
);
leftKerningGroup = afii10018;
rightKerningGroup = afii10026;
unicode = 041F;
},
{
glyphname = afii10037;
lastChange = "2015-07-31 18:27:43 +0000";
layers = (
{
layerId = UUID0;
name = Regular;
paths = (
{
closed = 1;
nodes = (
"93 530 LINE",
"64 594 OFFCURVE",
"22 635 OFFCURVE",
"-31 640 CURVE",
"-31 660 LINE",
"69 660 LINE SMOOTH",
"145 660 OFFCURVE",
"203 614 OFFCURVE",
"232 550 CURVE",
"370 268 LINE",
"547 660 LINE",
"612 660 LINE",
"356 95 LINE",
"328 30 OFFCURVE",
"272 -10 OFFCURVE",
"192 -10 CURVE SMOOTH",
"142 -10 LINE",
"142 26 LINE",
"201 26 OFFCURVE",
"264 36 OFFCURVE",
"291 95 CURVE SMOOTH",
"298 110 LINE"
);
}
);
width = 618;
}
);
leftKerningGroup = afii10037;
rightKerningGroup = afii10037;
unicode = 0423;
},
{
glyphname = afii10038;
lastChange = "2015-07-31 18:27:43 +0000";
layers = (
{
layerId = UUID0;
name = Regular;
paths = (
{
closed = 1;
nodes = (
"166 184 OFFCURVE",
"225 80 OFFCURVE",
"346 80 CURVE",
"346 550 LINE",
"225 550 OFFCURVE",
"166 446 OFFCURVE",
"166 315 CURVE SMOOTH"
);
},
{
closed = 1;
nodes = (
"656 446 OFFCURVE",
"595 550 OFFCURVE",
"476 550 CURVE",
"476 80 LINE",
"595 80 OFFCURVE",
"656 184 OFFCURVE",
"656 315 CURVE SMOOTH"
);
},
{
closed = 1;
nodes = (
"686 595 OFFCURVE",
"796 485 OFFCURVE",
"796 315 CURVE SMOOTH",
"796 145 OFFCURVE",
"686 35 OFFCURVE",
"476 35 CURVE",
"476 -40 LINE",
"346 -40 LINE",
"346 35 LINE",
"136 35 OFFCURVE",
"26 145 OFFCURVE",
"26 315 CURVE SMOOTH",
"26 485 OFFCURVE",
"136 595 OFFCURVE",
"346 595 CURVE",
"346 630 OFFCURVE",
"336 670 OFFCURVE",
"276 670 CURVE SMOOTH",
"266 670 LINE",
"266 700 LINE",
"386 700 LINE SMOOTH",
"455 700 OFFCURVE",
"476 671 OFFCURVE",
"476 595 CURVE"
);
}
);
width = 821;
}
);
unicode = 0424;
},
{
glyphname = afii10040;
lastChange = "2015-07-31 18:27:43 +0000";
layers = (
{
layerId = UUID0;
name = Regular;
paths = (
{
closed = 1;
nodes = (
"95 530 LINE SMOOTH",
"95 590 OFFCURVE",
"85 630 OFFCURVE",
"25 630 CURVE SMOOTH",
"15 630 LINE",
"15 660 LINE",
"135 660 LINE SMOOTH",
"205 660 OFFCURVE",
"225 629 OFFCURVE",
"225 530 CURVE SMOOTH",
"225 45 LINE",
"485 45 LINE",
"485 660 LINE",
"615 660 LINE",
"615 45 LINE",
"650 45 LINE SMOOTH",
"670 45 OFFCURVE",
"685 30 OFFCURVE",
"685 10 CURVE SMOOTH",
"685 -185 LINE",
"635 -185 LINE",
"619 -40 OFFCURVE",
"582 0 OFFCURVE",
"510 0 CURVE SMOOTH",
"95 0 LINE"
);
}
);
width = 706;
}
);
leftKerningGroup = afii10018;
rightKerningGroup = afii10021;
unicode = 0426;
},
{
glyphname = afii10041;
lastChange = "2015-07-31 18:27:43 +0000";
layers = (
{
layerId = UUID0;
name = Regular;
paths = (
{
closed = 1;
nodes = (
"79 530 LINE SMOOTH",
"79 590 OFFCURVE",
"69 630 OFFCURVE",
"9 630 CURVE SMOOTH",
"-1 630 LINE",
"-1 660 LINE",
"119 660 LINE SMOOTH",
"189 660 OFFCURVE",
"209 629 OFFCURVE",
"209 530 CURVE SMOOTH",
"209 450 LINE SMOOTH",
"209 339 OFFCURVE",
"269 285 OFFCURVE",
"349 285 CURVE SMOOTH",
"390 285 OFFCURVE",
"428 293 OFFCURVE",
"459 305 CURVE",
"459 660 LINE",
"589 660 LINE",
"589 0 LINE",
"459 0 LINE",
"459 260 LINE",
"428 247 OFFCURVE",
"379 240 OFFCURVE",
"330 240 CURVE SMOOTH",
"169 240 OFFCURVE",
"79 309 OFFCURVE",
"79 460 CURVE SMOOTH"
);
}
);
width = 663;
}
);
rightKerningGroup = afii10026;
unicode = 0427;
},
{
glyphname = afii10042;
lastChange = "2015-07-31 18:27:43 +0000";
layers = (
{
layerId = UUID0;
name = Regular;
paths = (
{
closed = 1;
nodes = (
"95 530 LINE SMOOTH",
"95 590 OFFCURVE",
"85 630 OFFCURVE",
"25 630 CURVE SMOOTH",
"15 630 LINE",
"15 660 LINE",
"135 660 LINE SMOOTH",
"205 660 OFFCURVE",
"225 629 OFFCURVE",
"225 530 CURVE SMOOTH",
"225 45 LINE",
"420 45 LINE",
"420 660 LINE",
"550 660 LINE",
"550 45 LINE",
"745 45 LINE",
"745 660 LINE",
"875 660 LINE",
"875 0 LINE",
"95 0 LINE"
);
}
);
width = 949;
}
);
leftKerningGroup = afii10018;
rightKerningGroup = afii10026;
unicode = 0428;
},
{
glyphname = afii10043;
lastChange = "2015-07-31 18:27:43 +0000";
layers = (
{
layerId = UUID0;
name = Regular;
paths = (
{
closed = 1;
nodes = (
"95 0 LINE",
"95 530 LINE SMOOTH",
"95 590 OFFCURVE",
"85 630 OFFCURVE",
"25 630 CURVE SMOOTH",
"15 630 LINE",
"15 660 LINE",
"135 660 LINE SMOOTH",
"205 660 OFFCURVE",
"225 629 OFFCURVE",
"225 530 CURVE SMOOTH",
"225 45 LINE",
"420 45 LINE",
"420 660 LINE",
"550 660 LINE",
"550 45 LINE",
"745 45 LINE",
"745 660 LINE",
"875 660 LINE",
"875 45 LINE",
"910 45 LINE SMOOTH",
"930 45 OFFCURVE",
"945 30 OFFCURVE",
"945 10 CURVE SMOOTH",
"945 -185 LINE",
"895 -185 LINE",
"879 -40 OFFCURVE",
"842 0 OFFCURVE",
"770 0 CURVE SMOOTH"
);
}
);
width = 966;
}
);
leftKerningGroup = afii10018;
rightKerningGroup = afii10021;
unicode = 0429;
},
{
glyphname = afii10044;
lastChange = "2015-07-31 18:27:43 +0000";
layers = (
{
layerId = UUID0;
name = Regular;
paths = (
{
closed = 1;
nodes = (
"320 390 LINE",
"410 390 LINE SMOOTH",
"554 390 OFFCURVE",
"705 351 OFFCURVE",
"705 195 CURVE SMOOTH",
"705 39 OFFCURVE",
"554 0 OFFCURVE",
"410 0 CURVE SMOOTH",
"190 0 LINE",
"190 615 LINE",
"179 615 LINE SMOOTH",
"103 615 OFFCURVE",
"69 571 OFFCURVE",
"64 460 CURVE",
"24 460 LINE",
"24 625 LINE SMOOTH",
"24 645 OFFCURVE",
"39 660 OFFCURVE",
"59 660 CURVE SMOOTH",
"320 660 LINE"
);
},
{
closed = 1;
nodes = (
"390 350 LINE SMOOTH",
"370 350 OFFCURVE",
"352 348 OFFCURVE",
"340 345 CURVE SMOOTH",
"320 340 LINE",
"320 50 LINE",
"326 48 OFFCURVE",
"333 46 OFFCURVE",
"340 45 CURVE SMOOTH",
"353 42 OFFCURVE",
"370 40 OFFCURVE",
"390 40 CURVE SMOOTH",
"395 40 LINE SMOOTH",
"515 40 OFFCURVE",
"565 95 OFFCURVE",
"565 195 CURVE SMOOTH",
"565 295 OFFCURVE",
"515 350 OFFCURVE",
"395 350 CURVE SMOOTH"
);
}
);
width = 722;
}
);
rightKerningGroup = afii10044;
unicode = 042A;
},
{
glyphname = afii10045;
lastChange = "2015-07-31 18:27:43 +0000";
layers = (
{
layerId = UUID0;
name = Regular;
paths = (
{
closed = 1;
nodes = (
"271 350 OFFCURVE",
"256 348 OFFCURVE",
"244 345 CURVE SMOOTH",
"225 340 LINE",
"225 50 LINE",
"230 48 OFFCURVE",
"237 46 OFFCURVE",
"244 45 CURVE SMOOTH",
"257 42 OFFCURVE",
"273 40 OFFCURVE",
"290 40 CURVE SMOOTH",
"410 40 OFFCURVE",
"460 95 OFFCURVE",
"460 195 CURVE SMOOTH",
"460 295 OFFCURVE",
"410 350 OFFCURVE",
"290 350 CURVE SMOOTH"
);
},
{
closed = 1;
nodes = (
"225 390 LINE",
"305 390 LINE SMOOTH",
"449 390 OFFCURVE",
"600 351 OFFCURVE",
"600 195 CURVE SMOOTH",
"600 39 OFFCURVE",
"449 0 OFFCURVE",
"305 0 CURVE SMOOTH",
"95 0 LINE",
"95 530 LINE SMOOTH",
"95 590 OFFCURVE",
"85 630 OFFCURVE",
"25 630 CURVE SMOOTH",
"15 630 LINE",
"15 660 LINE",
"135 660 LINE SMOOTH",
"205 660 OFFCURVE",
"225 629 OFFCURVE",
"225 530 CURVE SMOOTH"
);
},
{
closed = 1;
nodes = (
"799 130 LINE SMOOTH",
"799 70 OFFCURVE",
"809 30 OFFCURVE",
"869 30 CURVE SMOOTH",
"879 30 LINE",
"879 0 LINE",
"759 0 LINE SMOOTH",
"689 0 OFFCURVE",
"669 29 OFFCURVE",
"669 130 CURVE SMOOTH",
"669 660 LINE",
"799 660 LINE"
);
}
);
width = 894;
}
);
leftKerningGroup = afii10018;
rightKerningGroup = afii10031;
unicode = 042B;
},
{
glyphname = afii10046;
lastChange = "2015-07-31 18:27:43 +0000";
layers = (
{
layerId = UUID0;
name = Regular;
paths = (
{
closed = 1;
nodes = (
"295 350 LINE SMOOTH",
"275 350 OFFCURVE",
"257 348 OFFCURVE",
"245 345 CURVE SMOOTH",
"225 340 LINE",
"225 50 LINE",
"231 48 OFFCURVE",
"238 46 OFFCURVE",
"245 45 CURVE SMOOTH",
"258 42 OFFCURVE",
"275 40 OFFCURVE",
"295 40 CURVE SMOOTH",
"300 40 LINE SMOOTH",
"420 40 OFFCURVE",
"470 95 OFFCURVE",
"470 195 CURVE SMOOTH",
"470 295 OFFCURVE",
"420 350 OFFCURVE",
"300 350 CURVE SMOOTH"
);
},
{
closed = 1;
nodes = (
"225 390 LINE",
"315 390 LINE SMOOTH",
"459 390 OFFCURVE",
"610 351 OFFCURVE",
"610 195 CURVE SMOOTH",
"610 39 OFFCURVE",
"459 0 OFFCURVE",
"315 0 CURVE SMOOTH",
"95 0 LINE",
"95 530 LINE SMOOTH",
"95 590 OFFCURVE",
"85 630 OFFCURVE",
"25 630 CURVE SMOOTH",
"15 630 LINE",
"15 660 LINE",
"135 660 LINE SMOOTH",
"205 660 OFFCURVE",
"225 629 OFFCURVE",
"225 530 CURVE SMOOTH"
);
}
);
width = 627;
}
);
leftKerningGroup = afii10018;
rightKerningGroup = afii10044;
unicode = 042C;
},
{
glyphname = afii10047;
lastChange = "2015-07-31 18:27:43 +0000";
layers = (
{
layerId = UUID0;
name = Regular;
paths = (
{
closed = 1;
nodes = (
"50 447 LINE",
"50 506 OFFCURVE",
"49 564 OFFCURVE",
"76 599 CURVE",
"113 642 OFFCURVE",
"188 680 OFFCURVE",
"313 680 CURVE SMOOTH",
"502 680 OFFCURVE",
"643 522 OFFCURVE",
"643 320 CURVE SMOOTH",
"643 128 OFFCURVE",
"524 -20 OFFCURVE",
"313 -20 CURVE SMOOTH",
"173 -20 OFFCURVE",
"88 30 OFFCURVE",
"25 141 CURVE",
"60 168 LINE",
"108 75 OFFCURVE",
"191 25 OFFCURVE",
"283 25 CURVE SMOOTH",
"438 25 OFFCURVE",
"500 161 OFFCURVE",
"503 310 CURVE",
"193 310 LINE",
"193 355 LINE",
"502 355 LINE",
"494 570 OFFCURVE",
"398 635 OFFCURVE",
"283 635 CURVE SMOOTH",
"172 635 OFFCURVE",
"105 568 OFFCURVE",
"80 447 CURVE"
);
}
);
width = 680;
}
);
rightKerningGroup = afii10032;
unicode = 042D;
},
{
glyphname = afii10048;
lastChange = "2015-07-31 18:27:43 +0000";
layers = (
{
layerId = UUID0;
name = Regular;
paths = (
{
closed = 1;
nodes = (
"416 -20 OFFCURVE",
"283 117 OFFCURVE",
"280 320 CURVE",
"225 320 LINE",
"225 0 LINE",
"95 0 LINE",
"95 530 LINE SMOOTH",
"95 590 OFFCURVE",
"85 630 OFFCURVE",
"25 630 CURVE SMOOTH",
"15 630 LINE",
"15 660 LINE",
"135 660 LINE SMOOTH",
"205 660 OFFCURVE",
"225 629 OFFCURVE",
"225 530 CURVE SMOOTH",
"225 365 LINE",
"281 365 LINE",
"297 554 OFFCURVE",
"420 680 OFFCURVE",
"580 680 CURVE SMOOTH",
"749 680 OFFCURVE",
"879 538 OFFCURVE",
"879 330 CURVE SMOOTH",
"879 122 OFFCURVE",
"749 -20 OFFCURVE",
"580 -20 CURVE SMOOTH"
);
},
{
closed = 1;
nodes = (
"741 533 OFFCURVE",
"671 635 OFFCURVE",
"580 635 CURVE SMOOTH",
"488 635 OFFCURVE",
"420 533 OFFCURVE",
"420 330 CURVE SMOOTH",
"420 127 OFFCURVE",
"488 25 OFFCURVE",
"580 25 CURVE SMOOTH",
"671 25 OFFCURVE",
"741 127 OFFCURVE",
"741 330 CURVE SMOOTH"
);
}
);
width = 917;
}
);
leftKerningGroup = afii10018;
rightKerningGroup = afii10032;
unicode = 042E;
},
{
glyphname = afii10049;
lastChange = "2015-07-31 18:27:43 +0000";
layers = (
{
layerId = UUID0;
name = Regular;
paths = (
{
closed = 1;
nodes = (
"277 620 OFFCURVE",
"206 570 OFFCURVE",
"206 466 CURVE SMOOTH",
"206 359 OFFCURVE",
"277 312 OFFCURVE",
"341 312 CURVE SMOOTH",
"401 312 LINE",
"401 613 LINE",
"381 616 LINE",
"369 619 OFFCURVE",
"352 620 OFFCURVE",
"336 620 CURVE SMOOTH"
);
},
{
closed = 1;
nodes = (
"267 129 LINE SMOOTH",
"199 21 OFFCURVE",
"142 -16 OFFCURVE",
"77 -16 CURVE SMOOTH",
"52 -16 OFFCURVE",
"20 -11 OFFCURVE",
"9 -6 CURVE",
"9 19 LINE",
"40 25 OFFCURVE",
"79 46 OFFCURVE",
"133 129 CURVE",
"228 280 LINE",
"154 296 OFFCURVE",
"66 355 OFFCURVE",
"66 461 CURVE SMOOTH",
"66 625 OFFCURVE",
"228 660 OFFCURVE",
"336 660 CURVE SMOOTH",
"612 660 LINE",
"612 630 LINE",
"602 630 LINE SMOOTH",
"542 630 OFFCURVE",
"532 590 OFFCURVE",
"532 530 CURVE SMOOTH",
"532 0 LINE",
"401 0 LINE",
"401 272 LINE",
"357 272 LINE"
);
}
);
width = 627;
}
);
unicode = 042F;
},
{
glyphname = afii10066;
lastChange = "2015-07-31 18:27:43 +0000";
layers = (
{
layerId = UUID0;
name = Regular;
paths = (
{
closed = 1;
nodes = (
"235 395 OFFCURVE",
"180 355 OFFCURVE",
"180 215 CURVE SMOOTH",
"180 70 OFFCURVE",
"235 35 OFFCURVE",
"275 35 CURVE SMOOTH",
"315 35 OFFCURVE",
"370 70 OFFCURVE",
"370 215 CURVE SMOOTH",
"370 355 OFFCURVE",
"315 395 OFFCURVE",
"275 395 CURVE SMOOTH"
);
},
{
closed = 1;
nodes = (
"261 513 LINE",
"181 494 OFFCURVE",
"115 435 OFFCURVE",
"110 310 CURVE",
"115 310 LINE",
"146 390 OFFCURVE",
"199 440 OFFCURVE",
"295 440 CURVE SMOOTH",
"415 440 OFFCURVE",
"505 370 OFFCURVE",
"505 215 CURVE SMOOTH",
"505 60 OFFCURVE",
"415 -10 OFFCURVE",
"275 -10 CURVE SMOOTH",
"135 -10 OFFCURVE",
"45 80 OFFCURVE",
"45 240 CURVE SMOOTH",
"45 270 LINE SMOOTH",
"45 525 OFFCURVE",
"116 589 OFFCURVE",
"221 613 CURVE SMOOTH",
"360 645 LINE SMOOTH",
"416 658 OFFCURVE",
"450 670 OFFCURVE",
"455 695 CURVE",
"485 695 LINE",
"485 615 LINE SMOOTH",
"485 590 OFFCURVE",
"474 561 OFFCURVE",
"425 550 CURVE SMOOTH"
);
}
);
width = 545;
}
);
unicode = 0431;
},
{
glyphname = afii10067;
lastChange = "2015-07-31 18:27:43 +0000";
layers = (
{
layerId = UUID0;
name = Regular;
paths = (
{
closed = 1;
nodes = (
"238 430 OFFCURVE",
"219 428 OFFCURVE",
"204 423 CURVE",
"204 270 LINE",
"239 270 LINE SMOOTH",
"290 270 OFFCURVE",
"334 299 OFFCURVE",
"334 350 CURVE SMOOTH",
"334 406 OFFCURVE",
"289 430 OFFCURVE",
"249 430 CURVE SMOOTH"
);
},
{
closed = 1;
nodes = (
"74 340 LINE SMOOTH",
"74 400 OFFCURVE",
"64 440 OFFCURVE",
"4 440 CURVE SMOOTH",
"-1 440 LINE",
"-1 470 LINE",
"267 470 LINE SMOOTH",
"387 470 OFFCURVE",
"469 430 OFFCURVE",
"469 350 CURVE SMOOTH",
"469 290 OFFCURVE",
"422 256 OFFCURVE",
"342 245 CURVE",
"427 234 OFFCURVE",
"489 195 OFFCURVE",
"489 130 CURVE SMOOTH",
"489 39 OFFCURVE",
"408 0 OFFCURVE",
"267 0 CURVE SMOOTH",
"74 0 LINE"
);
},
{
closed = 1;
nodes = (
"309 40 OFFCURVE",
"354 70 OFFCURVE",
"354 130 CURVE SMOOTH",
"354 194 OFFCURVE",
"310 225 OFFCURVE",
"239 225 CURVE SMOOTH",
"204 225 LINE",
"204 47 LINE",
"219 42 OFFCURVE",
"238 40 OFFCURVE",
"249 40 CURVE SMOOTH"
);
}
);
width = 524;
}
);
leftKerningGroup = afii10067;
unicode = 0432;
},
{
glyphname = afii10068;
lastChange = "2015-07-31 18:27:43 +0000";
layers = (
{
layerId = UUID0;
name = Regular;
paths = (
{
closed = 1;
nodes = (
"74 340 LINE SMOOTH",
"74 400 OFFCURVE",
"64 440 OFFCURVE",
"4 440 CURVE SMOOTH",
"-1 440 LINE",
"-1 470 LINE",
"344 470 LINE SMOOTH",
"404 470 OFFCURVE",
"419 430 OFFCURVE",
"419 390 CURVE SMOOTH",
"419 320 LINE",
"389 320 LINE",
"389 396 OFFCURVE",
"354 425 OFFCURVE",
"294 425 CURVE SMOOTH",
"204 425 LINE",
"204 0 LINE",
"74 0 LINE"
);
}
);
width = 440;
}
);
leftKerningGroup = afii10067;
rightKerningGroup = afii10068;
unicode = 0433;
},
{
glyphname = afii10069;
lastChange = "2015-07-31 18:27:43 +0000";
layers = (
{
layerId = UUID0;
name = Regular;
paths = (
{
closed = 1;
nodes = (
"380 45 LINE",
"380 425 LINE",
"239 425 LINE",
"239 254 OFFCURVE",
"224 145 OFFCURVE",
"184 45 CURVE"
);
},
{
closed = 1;
nodes = (
"171 0 LINE SMOOTH",
"107 0 OFFCURVE",
"70 -29 OFFCURVE",
"59 -160 CURVE",
"9 -160 LINE",
"9 10 LINE SMOOTH",
"9 30 OFFCURVE",
"24 45 OFFCURVE",
"44 45 CURVE SMOOTH",
"80 45 LINE",
"125 145 OFFCURVE",
"140 259 OFFCURVE",
"140 350 CURVE SMOOTH",
"140 401 OFFCURVE",
"130 440 OFFCURVE",
"65 440 CURVE",
"65 470 LINE",
"510 470 LINE",
"510 45 LINE",
"540 45 LINE SMOOTH",
"560 45 OFFCURVE",
"575 30 OFFCURVE",
"575 10 CURVE SMOOTH",
"575 -160 LINE",
"525 -160 LINE",
"514 -29 OFFCURVE",
"477 0 OFFCURVE",
"413 0 CURVE SMOOTH"
);
}
);
width = 583;
}
);
unicode = 0434;
},
{
glyphname = afii10072;
lastChange = "2015-07-31 18:27:43 +0000";
layers = (
{
layerId = UUID0;
name = Regular;
paths = (
{
closed = 1;
nodes = (
"305 470 LINE",
"435 470 LINE",
"435 245 LINE",
"546 393 LINE SMOOTH",
"585 444 OFFCURVE",
"619 470 OFFCURVE",
"690 470 CURVE SMOOTH",
"710 470 LINE",
"710 444 LINE",
"670 444 OFFCURVE",
"637 430 OFFCURVE",
"610 394 CURVE SMOOTH",
"522 276 LINE",
"646 100 LINE SMOOTH",
"679 53 OFFCURVE",
"711 31 OFFCURVE",
"739 24 CURVE",
"739 0 LINE",
"728 -5 OFFCURVE",
"695 -10 OFFCURVE",
"670 -10 CURVE SMOOTH",
"614 -10 OFFCURVE",
"568 12 OFFCURVE",
"521 80 CURVE SMOOTH",
"435 203 LINE",
"435 0 LINE",
"305 0 LINE",
"305 203 LINE",
"219 80 LINE SMOOTH",
"172 12 OFFCURVE",
"126 -10 OFFCURVE",
"70 -10 CURVE SMOOTH",
"45 -10 OFFCURVE",
"12 -5 OFFCURVE",
"1 0 CURVE",
"1 24 LINE",
"29 31 OFFCURVE",
"61 53 OFFCURVE",
"94 100 CURVE SMOOTH",
"218 276 LINE",
"130 394 LINE SMOOTH",
"103 430 OFFCURVE",
"70 444 OFFCURVE",
"30 444 CURVE",
"30 470 LINE",
"50 470 LINE SMOOTH",
"121 470 OFFCURVE",
"155 444 OFFCURVE",
"194 393 CURVE SMOOTH",
"305 245 LINE"
);
}
);
width = 740;
}
);
unicode = 0436;
},
{
glyphname = afii10073;
lastChange = "2015-07-31 18:27:43 +0000";
layers = (
{
layerId = UUID0;
name = Regular;
paths = (
{
closed = 1;
nodes = (
"120 265 LINE",
"170 265 LINE SMOOTH",
"250 265 OFFCURVE",
"275 290 OFFCURVE",
"275 350 CURVE SMOOTH",
"275 410 OFFCURVE",
"231 435 OFFCURVE",
"185 435 CURVE SMOOTH",
"125 435 OFFCURVE",
"79 390 OFFCURVE",
"75 325 CURVE",
"45 325 LINE",
"45 381 OFFCURVE",
"45 420 OFFCURVE",
"70 445 CURVE SMOOTH",
"95 470 OFFCURVE",
"150 480 OFFCURVE",
"210 480 CURVE SMOOTH",
"330 480 OFFCURVE",
"410 439 OFFCURVE",
"410 350 CURVE SMOOTH",
"410 290 OFFCURVE",
"362 251 OFFCURVE",
"290 240 CURVE",
"373 229 OFFCURVE",
"425 185 OFFCURVE",
"425 125 CURVE SMOOTH",
"425 29 OFFCURVE",
"342 -10 OFFCURVE",
"215 -10 CURVE SMOOTH",
"120 -10 OFFCURVE",
"65 25 OFFCURVE",
"30 70 CURVE",
"60 95 LINE",
"79 71 OFFCURVE",
"116 35 OFFCURVE",
"185 35 CURVE SMOOTH",
"245 35 OFFCURVE",
"290 60 OFFCURVE",
"290 125 CURVE SMOOTH",
"290 188 OFFCURVE",
"263 220 OFFCURVE",
"170 220 CURVE SMOOTH",
"120 220 LINE"
);
}
);
width = 460;
}
);
unicode = 0437;
},
{
glyphname = afii10074;
lastChange = "2015-07-31 18:27:43 +0000";
layers = (
{
layerId = UUID0;
name = Regular;
paths = (
{
closed = 1;
nodes = (
"79 340 LINE SMOOTH",
"79 400 OFFCURVE",
"69 440 OFFCURVE",
"9 440 CURVE SMOOTH",
"-1 440 LINE",
"-1 470 LINE",
"119 470 LINE SMOOTH",
"189 470 OFFCURVE",
"209 439 OFFCURVE",
"209 340 CURVE SMOOTH",
"209 125 LINE",
"389 470 LINE",
"509 470 LINE",
"509 0 LINE",
"379 0 LINE",
"379 345 LINE",
"199 0 LINE",
"79 0 LINE"
);
}
);
width = 569;
}
);
leftKerningGroup = afii10067;
rightKerningGroup = afii10074;
unicode = 0438;
},
{
glyphname = afii10076;
lastChange = "2015-07-31 18:27:43 +0000";
layers = (
{
layerId = UUID0;
name = Regular;
paths = (
{
closed = 1;
nodes = (
"209 196 LINE",
"209 0 LINE",
"79 0 LINE",
"79 340 LINE SMOOTH",
"79 400 OFFCURVE",
"69 440 OFFCURVE",
"9 440 CURVE SMOOTH",
"-1 440 LINE",
"-1 470 LINE",
"119 470 LINE SMOOTH",
"189 470 OFFCURVE",
"209 439 OFFCURVE",
"209 340 CURVE SMOOTH",
"209 245 LINE",
"330 393 LINE SMOOTH",
"371 442 OFFCURVE",
"403 470 OFFCURVE",
"474 470 CURVE SMOOTH",
"494 470 LINE",
"494 444 LINE",
"454 444 OFFCURVE",
"423 429 OFFCURVE",
"394 394 CURVE SMOOTH",
"297 276 LINE",
"430 100 LINE SMOOTH",
"465 53 OFFCURVE",
"495 31 OFFCURVE",
"523 24 CURVE",
"523 0 LINE",
"512 -5 OFFCURVE",
"479 -10 OFFCURVE",
"454 -10 CURVE SMOOTH",
"398 -10 OFFCURVE",
"349 10 OFFCURVE",
"305 70 CURVE"
);
}
);
width = 524;
}
);
leftKerningGroup = afii10067;
rightKerningGroup = afii10076;
unicode = 043A;
},
{
glyphname = afii10077;
lastChange = "2015-07-31 18:27:43 +0000";
layers = (
{
layerId = UUID0;
name = Regular;
paths = (
{
closed = 1;
nodes = (
"236 350 LINE SMOOTH",
"236 80 OFFCURVE",
"166 -15 OFFCURVE",
"66 -15 CURVE SMOOTH",
"45 -15 OFFCURVE",
"17 -10 OFFCURVE",
"6 -6 CURVE",
"6 23 LINE",
"75 34 OFFCURVE",
"132 90 OFFCURVE",
"132 350 CURVE SMOOTH",
"132 401 OFFCURVE",
"121 440 OFFCURVE",
"57 440 CURVE",
"57 470 LINE",
"507 470 LINE",
"507 0 LINE",
"377 0 LINE",
"377 425 LINE",
"236 425 LINE"
);
}
);
width = 567;
}
);
leftKerningGroup = afii10077;
rightKerningGroup = afii10074;
unicode = 043B;
},
{
glyphname = afii10078;
lastChange = "2015-07-31 18:27:43 +0000";
layers = (
{
layerId = UUID0;
name = Regular;
paths = (
{
closed = 1;
nodes = (
"591 170 LINE SMOOTH",
"591 59 OFFCURVE",
"609 9 OFFCURVE",
"664 0 CURVE",
"664 -25 LINE",
"519 -25 OFFCURVE",
"461 39 OFFCURVE",
"461 170 CURVE SMOOTH",
"461 344 LINE",
"317 0 LINE",
"284 0 LINE",
"110 354 LINE",
"110 1 LINE",
"60 1 LINE",
"60 470 LINE",
"182 470 LINE",
"330 169 LINE",
"460 480 LINE",
"591 480 LINE"
);
}
);
width = 666;
}
);
unicode = 043C;
},
{
glyphname = afii10079;
lastChange = "2015-07-31 18:27:43 +0000";
layers = (
{
layerId = UUID0;
name = Regular;
paths = (
{
closed = 1;
nodes = (
"369 215 LINE",
"209 215 LINE",
"209 0 LINE",
"79 0 LINE",
"79 340 LINE SMOOTH",
"79 400 OFFCURVE",
"69 440 OFFCURVE",
"9 440 CURVE SMOOTH",
"-1 440 LINE",
"-1 470 LINE",
"119 470 LINE SMOOTH",
"189 470 OFFCURVE",
"209 439 OFFCURVE",
"209 340 CURVE SMOOTH",
"209 260 LINE",
"369 260 LINE",
"369 470 LINE",
"499 470 LINE",
"499 130 LINE SMOOTH",
"499 70 OFFCURVE",
"509 30 OFFCURVE",
"569 30 CURVE SMOOTH",
"579 30 LINE",
"579 0 LINE",
"459 0 LINE SMOOTH",
"389 0 OFFCURVE",
"369 29 OFFCURVE",
"369 130 CURVE SMOOTH"
);
}
);
width = 578;
}
);
leftKerningGroup = afii10067;
rightKerningGroup = afii10079;
unicode = 043D;
},
{
glyphname = afii10081;
lastChange = "2015-07-31 18:27:43 +0000";
layers = (
{
layerId = UUID0;
name = Regular;
paths = (
{
closed = 1;
nodes = (
"74 340 LINE SMOOTH",
"74 400 OFFCURVE",
"64 440 OFFCURVE",
"4 440 CURVE SMOOTH",
"-1 440 LINE",
"-1 470 LINE",
"494 470 LINE",
"494 0 LINE",
"364 0 LINE",
"364 425 LINE",
"204 425 LINE",
"204 0 LINE",
"74 0 LINE"
);
}
);
width = 554;
}
);
leftKerningGroup = afii10067;
rightKerningGroup = afii10074;
unicode = 043F;
},
{
glyphname = afii10084;
lastChange = "2015-07-31 18:27:43 +0000";
layers = (
{
layerId = UUID0;
name = Regular;
paths = (
{
closed = 1;
nodes = (
"147 425 LINE SMOOTH",
"87 425 OFFCURVE",
"52 396 OFFCURVE",
"52 320 CURVE",
"22 320 LINE",
"22 390 LINE SMOOTH",
"22 430 OFFCURVE",
"37 470 OFFCURVE",
"97 470 CURVE SMOOTH",
"458 470 LINE",
"458 425 LINE",
"307 425 LINE",
"307 0 LINE",
"177 0 LINE",
"177 425 LINE"
);
}
);
width = 467;
}
);
unicode = 0442;
},
{
glyphname = afii10086;
lastChange = "2015-07-31 18:27:43 +0000";
layers = (
{
layerId = UUID0;
name = Regular;
paths = (
{
closed = 1;
nodes = (
"412 25 LINE",
"473 36 OFFCURVE",
"532 104 OFFCURVE",
"532 235 CURVE SMOOTH",
"532 366 OFFCURVE",
"473 434 OFFCURVE",
"412 445 CURVE"
);
},
{
closed = 1;
nodes = (
"292 445 LINE",
"231 434 OFFCURVE",
"172 366 OFFCURVE",
"172 235 CURVE SMOOTH",
"172 104 OFFCURVE",
"231 36 OFFCURVE",
"292 25 CURVE"
);
},
{
closed = 1;
nodes = (
"287 530 LINE SMOOTH",
"287 590 OFFCURVE",
"277 630 OFFCURVE",
"217 630 CURVE SMOOTH",
"207 630 LINE",
"207 660 LINE",
"327 660 LINE SMOOTH",
"397 660 OFFCURVE",
"417 629 OFFCURVE",
"417 530 CURVE SMOOTH",
"417 480 LINE",
"577 469 OFFCURVE",
"667 371 OFFCURVE",
"667 235 CURVE SMOOTH",
"667 99 OFFCURVE",
"577 1 OFFCURVE",
"417 -10 CURVE",
"417 -190 LINE",
"287 -190 LINE",
"287 -10 LINE",
"127 1 OFFCURVE",
"37 99 OFFCURVE",
"37 235 CURVE SMOOTH",
"37 371 OFFCURVE",
"127 469 OFFCURVE",
"287 480 CURVE"
);
}
);
width = 704;
}
);
leftKerningGroup = afii10070;
rightKerningGroup = afii10080;
unicode = 0444;
},
{
glyphname = afii10088;
lastChange = "2015-07-31 18:27:43 +0000";
layers = (
{
layerId = UUID0;
name = Regular;
paths = (
{
closed = 1;
nodes = (
"79 0 LINE",
"79 340 LINE SMOOTH",
"79 400 OFFCURVE",
"69 440 OFFCURVE",
"9 440 CURVE SMOOTH",
"-1 440 LINE",
"-1 470 LINE",
"119 470 LINE SMOOTH",
"189 470 OFFCURVE",
"209 439 OFFCURVE",
"209 340 CURVE SMOOTH",
"209 45 LINE",
"369 45 LINE",
"369 470 LINE",
"499 470 LINE",
"499 45 LINE",
"529 45 LINE SMOOTH",
"549 45 OFFCURVE",
"564 30 OFFCURVE",
"564 10 CURVE SMOOTH",
"564 -160 LINE",
"519 -160 LINE",
"508 -29 OFFCURVE",
"471 0 OFFCURVE",
"407 0 CURVE SMOOTH"
);
}
);
width = 572;
}
);
leftKerningGroup = afii10067;
unicode = 0446;
},
{
glyphname = afii10089;
lastChange = "2015-07-31 18:27:43 +0000";
layers = (
{
layerId = UUID0;
name = Regular;
paths = (
{
closed = 1;
nodes = (
"84 340 LINE SMOOTH",
"84 400 OFFCURVE",
"74 440 OFFCURVE",
"14 440 CURVE SMOOTH",
"4 440 LINE",
"4 470 LINE",
"124 470 LINE SMOOTH",
"194 470 OFFCURVE",
"214 439 OFFCURVE",
"214 340 CURVE SMOOTH",
"214 310 LINE SMOOTH",
"214 234 OFFCURVE",
"246 205 OFFCURVE",
"297 205 CURVE SMOOTH",
"328 205 OFFCURVE",
"344 210 OFFCURVE",
"364 221 CURVE",
"364 470 LINE",
"494 470 LINE",
"494 0 LINE",
"364 0 LINE",
"364 178 LINE",
"344 169 OFFCURVE",
"309 160 OFFCURVE",
"274 160 CURVE SMOOTH",
"169 160 OFFCURVE",
"84 201 OFFCURVE",
"84 310 CURVE SMOOTH"
);
}
);
width = 554;
}
);
rightKerningGroup = afii10074;
unicode = 0447;
},
{
glyphname = afii10090;
lastChange = "2015-07-31 18:27:43 +0000";
layers = (
{
layerId = UUID0;
name = Regular;
paths = (
{
closed = 1;
nodes = (
"79 340 LINE SMOOTH",
"79 400 OFFCURVE",
"69 440 OFFCURVE",
"9 440 CURVE SMOOTH",
"-1 440 LINE",
"-1 470 LINE",
"119 470 LINE SMOOTH",
"189 470 OFFCURVE",
"209 439 OFFCURVE",
"209 340 CURVE SMOOTH",
"209 45 LINE",
"324 45 LINE",
"324 470 LINE",
"454 470 LINE",
"454 45 LINE",
"569 45 LINE",
"569 470 LINE",
"699 470 LINE",
"699 0 LINE",
"79 0 LINE"
);
}
);
width = 759;
}
);
leftKerningGroup = afii10067;
rightKerningGroup = afii10074;
unicode = 0448;
},
{
glyphname = afii10091;
lastChange = "2015-07-31 18:27:43 +0000";
layers = (
{
layerId = UUID0;
name = Regular;
paths = (
{
closed = 1;
nodes = (
"729 45 LINE SMOOTH",
"749 45 OFFCURVE",
"764 30 OFFCURVE",
"764 10 CURVE SMOOTH",
"764 -160 LINE",
"719 -160 LINE",
"708 -29 OFFCURVE",
"671 0 OFFCURVE",
"607 0 CURVE SMOOTH",
"79 0 LINE",
"79 340 LINE SMOOTH",
"79 400 OFFCURVE",
"69 440 OFFCURVE",
"9 440 CURVE SMOOTH",
"-1 440 LINE",
"-1 470 LINE",
"119 470 LINE SMOOTH",
"189 470 OFFCURVE",
"209 439 OFFCURVE",
"209 340 CURVE SMOOTH",
"209 45 LINE",
"324 45 LINE",
"324 470 LINE",
"454 470 LINE",
"454 45 LINE",
"569 45 LINE",
"569 470 LINE",
"699 470 LINE",
"699 45 LINE"
);
}
);
width = 772;
}
);
leftKerningGroup = afii10067;
unicode = 0449;
},
{
glyphname = afii10092;
lastChange = "2015-07-31 18:27:43 +0000";
layers = (
{
layerId = UUID0;
name = Regular;
paths = (
{
closed = 1;
nodes = (
"168 425 LINE",
"97 420 OFFCURVE",
"73 377 OFFCURVE",
"68 290 CURVE",
"28 290 LINE",
"28 435 LINE SMOOTH",
"28 455 OFFCURVE",
"43 470 OFFCURVE",
"63 470 CURVE SMOOTH",
"298 470 LINE",
"298 280 LINE",
"373 280 LINE SMOOTH",
"498 280 OFFCURVE",
"578 231 OFFCURVE",
"578 140 CURVE SMOOTH",
"578 49 OFFCURVE",
"498 0 OFFCURVE",
"373 0 CURVE SMOOTH",
"168 0 LINE"
);
},
{
closed = 1;
nodes = (
"298 47 LINE",
"313 42 OFFCURVE",
"332 40 OFFCURVE",
"343 40 CURVE SMOOTH",
"398 40 OFFCURVE",
"443 64 OFFCURVE",
"443 140 CURVE SMOOTH",
"443 216 OFFCURVE",
"398 240 OFFCURVE",
"343 240 CURVE SMOOTH",
"332 240 OFFCURVE",
"313 238 OFFCURVE",
"298 233 CURVE"
);
}
);
width = 598;
}
);
unicode = 044A;
},
{
glyphname = afii10093;
lastChange = "2015-07-31 18:27:43 +0000";
layers = (
{
layerId = UUID0;
name = Regular;
paths = (
{
closed = 1;
nodes = (
"209 47 LINE",
"224 42 OFFCURVE",
"243 40 OFFCURVE",
"254 40 CURVE SMOOTH",
"299 40 OFFCURVE",
"344 64 OFFCURVE",
"344 140 CURVE SMOOTH",
"344 216 OFFCURVE",
"299 240 OFFCURVE",
"254 240 CURVE SMOOTH",
"243 240 OFFCURVE",
"224 238 OFFCURVE",
"209 233 CURVE"
);
},
{
closed = 1;
nodes = (
"79 340 LINE SMOOTH",
"79 400 OFFCURVE",
"69 440 OFFCURVE",
"9 440 CURVE SMOOTH",
"-1 440 LINE",
"-1 470 LINE",
"119 470 LINE SMOOTH",
"189 470 OFFCURVE",
"209 439 OFFCURVE",
"209 340 CURVE SMOOTH",
"209 280 LINE",
"274 280 LINE SMOOTH",
"399 280 OFFCURVE",
"479 231 OFFCURVE",
"479 140 CURVE SMOOTH",
"479 49 OFFCURVE",
"399 0 OFFCURVE",
"274 0 CURVE SMOOTH",
"79 0 LINE"
);
},
{
closed = 1;
nodes = (
"659 130 LINE SMOOTH",
"659 70 OFFCURVE",
"669 30 OFFCURVE",
"729 30 CURVE SMOOTH",
"739 30 LINE",
"739 0 LINE",
"619 0 LINE SMOOTH",
"549 0 OFFCURVE",
"529 29 OFFCURVE",
"529 130 CURVE SMOOTH",
"529 470 LINE",
"659 470 LINE"
);
}
);
width = 738;
}
);
leftKerningGroup = afii10067;
rightKerningGroup = afii10079;
unicode = 044B;
},
{
glyphname = afii10094;
lastChange = "2015-07-31 18:27:43 +0000";
layers = (
{
layerId = UUID0;
name = Regular;
paths = (
{
closed = 1;
nodes = (
"209 47 LINE",
"224 42 OFFCURVE",
"243 40 OFFCURVE",
"254 40 CURVE SMOOTH",
"309 40 OFFCURVE",
"354 64 OFFCURVE",
"354 140 CURVE SMOOTH",
"354 216 OFFCURVE",
"309 240 OFFCURVE",
"254 240 CURVE SMOOTH",
"243 240 OFFCURVE",
"224 238 OFFCURVE",
"209 233 CURVE"
);
},
{
closed = 1;
nodes = (
"79 340 LINE SMOOTH",
"79 400 OFFCURVE",
"69 440 OFFCURVE",
"9 440 CURVE SMOOTH",
"-1 440 LINE",
"-1 470 LINE",
"119 470 LINE SMOOTH",
"189 470 OFFCURVE",
"209 439 OFFCURVE",
"209 340 CURVE SMOOTH",
"209 280 LINE",
"284 280 LINE SMOOTH",
"409 280 OFFCURVE",
"489 231 OFFCURVE",
"489 140 CURVE SMOOTH",
"489 49 OFFCURVE",
"409 0 OFFCURVE",
"284 0 CURVE SMOOTH",
"79 0 LINE"
);
}
);
width = 509;
}
);
leftKerningGroup = afii10067;
unicode = 044C;
},
{
glyphname = afii10095;
lastChange = "2015-07-31 18:27:43 +0000";
layers = (
{
layerId = UUID0;
name = Regular;
paths = (
{
closed = 1;
nodes = (
"130 435 OFFCURVE",
"80 390 OFFCURVE",
"75 305 CURVE",
"45 305 LINE",
"45 381 OFFCURVE",
"45 420 OFFCURVE",
"70 445 CURVE SMOOTH",
"95 470 OFFCURVE",
"149 480 OFFCURVE",
"225 480 CURVE SMOOTH",
"385 480 OFFCURVE",
"465 368 OFFCURVE",
"465 235 CURVE SMOOTH",
"465 102 OFFCURVE",
"385 -10 OFFCURVE",
"225 -10 CURVE SMOOTH",
"110 -10 OFFCURVE",
"60 50 OFFCURVE",
"31 95 CURVE",
"62 118 LINE",
"97 72 OFFCURVE",
"134 35 OFFCURVE",
"205 35 CURVE SMOOTH",
"281 35 OFFCURVE",
"324 91 OFFCURVE",
"329 210 CURVE",
"140 210 LINE",
"140 255 LINE",
"329 255 LINE",
"324 376 OFFCURVE",
"277 435 OFFCURVE",
"210 435 CURVE SMOOTH"
);
}
);
width = 501;
}
);
rightKerningGroup = afii10080;
unicode = 044D;
},
{
glyphname = afii10096;
lastChange = "2015-07-31 18:27:43 +0000";
layers = (
{
layerId = UUID0;
name = Regular;
paths = (
{
closed = 1;
nodes = (
"346 -10 OFFCURVE",
"257 87 OFFCURVE",
"249 215 CURVE",
"209 215 LINE",
"209 0 LINE",
"79 0 LINE",
"79 340 LINE SMOOTH",
"79 400 OFFCURVE",
"69 440 OFFCURVE",
"9 440 CURVE SMOOTH",
"-1 440 LINE",
"-1 470 LINE",
"119 470 LINE SMOOTH",
"189 470 OFFCURVE",
"209 439 OFFCURVE",
"209 340 CURVE SMOOTH",
"209 260 LINE",
"250 260 LINE",
"261 384 OFFCURVE",
"346 480 OFFCURVE",
"474 480 CURVE SMOOTH",
"610 480 OFFCURVE",
"699 372 OFFCURVE",
"699 235 CURVE SMOOTH",
"699 98 OFFCURVE",
"610 -10 OFFCURVE",
"474 -10 CURVE SMOOTH"
);
},
{
closed = 1;
nodes = (
"564 350 OFFCURVE",
"534 435 OFFCURVE",
"474 435 CURVE SMOOTH",
"414 435 OFFCURVE",
"384 350 OFFCURVE",
"384 235 CURVE SMOOTH",
"384 120 OFFCURVE",
"414 35 OFFCURVE",
"474 35 CURVE SMOOTH",
"534 35 OFFCURVE",
"564 120 OFFCURVE",
"564 235 CURVE SMOOTH"
);
}
);
width = 735;
}
);
leftKerningGroup = afii10067;
rightKerningGroup = afii10080;
unicode = 044E;
},
{
glyphname = afii10097;
lastChange = "2015-07-31 18:27:43 +0000";
layers = (
{
layerId = UUID0;
name = Regular;
paths = (
{
closed = 1;
nodes = (
"300 235 OFFCURVE",
"320 243 OFFCURVE",
"320 242 CURVE",
"320 423 LINE",
"320 422 OFFCURVE",
"300 430 OFFCURVE",
"275 430 CURVE SMOOTH",
"225 430 OFFCURVE",
"180 406 OFFCURVE",
"180 335 CURVE SMOOTH",
"180 264 OFFCURVE",
"224 235 OFFCURVE",
"275 235 CURVE SMOOTH"
);
},
{
closed = 1;
nodes = (
"450 0 LINE",
"320 0 LINE",
"320 194 LINE",
"276 194 LINE",
"216 75 LINE",
"187 15 OFFCURVE",
"152 -15 OFFCURVE",
"80 -15 CURVE SMOOTH",
"55 -15 OFFCURVE",
"30 -10 OFFCURVE",
"15 -5 CURVE",
"15 21 LINE",
"51 26 OFFCURVE",
"79 59 OFFCURVE",
"100 95 CURVE SMOOTH",
"160 199 LINE",
"89 210 OFFCURVE",
"45 260 OFFCURVE",
"45 325 CURVE SMOOTH",
"45 430 OFFCURVE",
"136 470 OFFCURVE",
"265 470 CURVE SMOOTH",
"525 470 LINE",
"525 440 LINE",
"520 440 LINE SMOOTH",
"460 440 OFFCURVE",
"450 400 OFFCURVE",
"450 340 CURVE SMOOTH"
);
}
);
width = 528;
}
);
unicode = 044F;
},
{
glyphname = afii10099;
lastChange = "2015-07-31 18:27:43 +0000";
layers = (
{
layerId = UUID0;
name = Regular;
paths = (
{
closed = 1;
nodes = (
"490 55 LINE SMOOTH",
"490 -76 OFFCURVE",
"422 -140 OFFCURVE",
"277 -140 CURVE",
"277 -115 LINE",
"333 -104 OFFCURVE",
"360 -56 OFFCURVE",
"360 55 CURVE SMOOTH",
"360 250 LINE SMOOTH",
"360 349 OFFCURVE",
"325 380 OFFCURVE",
"280 380 CURVE SMOOTH",
"249 380 OFFCURVE",
"215 360 OFFCURVE",
"190 332 CURVE",
"190 0 LINE",
"60 0 LINE",
"60 495 LINE",
"-10 495 LINE",
"-10 540 LINE",
"60 540 LINE",
"60 600 LINE",
"110 660 LINE",
"190 660 LINE",
"190 540 LINE",
"290 540 LINE",
"290 495 LINE",
"190 495 LINE",
"190 380 LINE",
"221 411 OFFCURVE",
"265 430 OFFCURVE",
"310 430 CURVE SMOOTH",
"405 430 OFFCURVE",
"490 395 OFFCURVE",
"490 250 CURVE SMOOTH"
);
}
);
width = 546;
}
);
leftKerningGroup = afii10108;
unicode = 0452;
},
{
glyphname = afii10101;
lastChange = "2015-07-31 18:27:43 +0000";
layers = (
{
layerId = UUID0;
name = Regular;
paths = (
{
closed = 1;
nodes = (
"224 435 OFFCURVE",
"177 376 OFFCURVE",
"172 255 CURVE",
"361 255 LINE",
"361 210 LINE",
"172 210 LINE",
"177 91 OFFCURVE",
"220 35 OFFCURVE",
"296 35 CURVE SMOOTH",
"365 35 OFFCURVE",
"404 71 OFFCURVE",
"439 118 CURVE",
"470 95 LINE",
"441 50 OFFCURVE",
"391 -10 OFFCURVE",
"276 -10 CURVE SMOOTH",
"116 -10 OFFCURVE",
"36 102 OFFCURVE",
"36 235 CURVE SMOOTH",
"36 368 OFFCURVE",
"116 480 OFFCURVE",
"276 480 CURVE SMOOTH",
"352 480 OFFCURVE",
"406 470 OFFCURVE",
"431 445 CURVE SMOOTH",
"456 420 OFFCURVE",
"456 381 OFFCURVE",
"456 305 CURVE",
"426 305 LINE",
"421 390 OFFCURVE",
"371 435 OFFCURVE",
"291 435 CURVE SMOOTH"
);
}
);
width = 501;
}
);
leftKerningGroup = afii10070;
unicode = 0454;
},
{
glyphname = afii10106;
lastChange = "2015-07-31 18:27:43 +0000";
layers = (
{
layerId = UUID0;
name = Regular;
paths = (
{
closed = 1;
nodes = (
"495 47 LINE",
"510 42 OFFCURVE",
"529 40 OFFCURVE",
"540 40 CURVE SMOOTH",
"595 40 OFFCURVE",
"640 64 OFFCURVE",
"640 140 CURVE SMOOTH",
"640 216 OFFCURVE",
"595 240 OFFCURVE",
"540 240 CURVE SMOOTH",
"529 240 OFFCURVE",
"510 238 OFFCURVE",
"495 233 CURVE"
);
},
{
closed = 1;
nodes = (
"132 401 OFFCURVE",
"121 440 OFFCURVE",
"57 440 CURVE",
"57 470 LINE",
"495 470 LINE",
"495 280 LINE",
"570 280 LINE SMOOTH",
"695 280 OFFCURVE",
"775 231 OFFCURVE",
"775 140 CURVE SMOOTH",
"775 49 OFFCURVE",
"695 0 OFFCURVE",
"570 0 CURVE SMOOTH",
"365 0 LINE",
"365 425 LINE",
"236 425 LINE",
"236 350 LINE SMOOTH",
"236 80 OFFCURVE",
"166 -15 OFFCURVE",
"66 -15 CURVE SMOOTH",
"45 -15 OFFCURVE",
"17 -10 OFFCURVE",
"6 -6 CURVE",
"6 23 LINE",
"75 34 OFFCURVE",
"132 90 OFFCURVE",
"132 350 CURVE SMOOTH"
);
}
);
width = 795;
}
);
leftKerningGroup = afii10077;
unicode = 0459;
},
{
glyphname = afii10107;
lastChange = "2015-07-31 18:27:43 +0000";
layers = (
{
layerId = UUID0;
name = Regular;
paths = (
{
closed = 1;
nodes = (
"359 225 LINE",
"209 225 LINE",
"209 0 LINE",
"79 0 LINE",
"79 340 LINE SMOOTH",
"79 400 OFFCURVE",
"69 440 OFFCURVE",
"9 440 CURVE SMOOTH",
"-1 440 LINE",
"-1 470 LINE",
"119 470 LINE SMOOTH",
"189 470 OFFCURVE",
"209 439 OFFCURVE",
"209 340 CURVE SMOOTH",
"209 270 LINE",
"359 270 LINE",
"359 470 LINE",
"489 470 LINE",
"489 270 LINE",
"564 270 LINE SMOOTH",
"689 270 OFFCURVE",
"769 220 OFFCURVE",
"769 135 CURVE SMOOTH",
"769 50 OFFCURVE",
"689 0 OFFCURVE",
"564 0 CURVE SMOOTH",
"359 0 LINE"
);
},
{
closed = 1;
nodes = (
"489 47 LINE",
"504 42 OFFCURVE",
"523 40 OFFCURVE",
"534 40 CURVE SMOOTH",
"589 40 OFFCURVE",
"634 64 OFFCURVE",
"634 135 CURVE SMOOTH",
"634 206 OFFCURVE",
"589 230 OFFCURVE",
"534 230 CURVE SMOOTH",
"523 230 OFFCURVE",
"504 228 OFFCURVE",
"489 223 CURVE"
);
}
);
width = 788;
}
);
leftKerningGroup = afii10067;
unicode = 045A;
},
{
glyphname = afii10108;
lastChange = "2015-07-31 18:27:43 +0000";
layers = (
{
layerId = UUID0;
name = Regular;
paths = (
{
closed = 1;
nodes = (
"190 495 LINE",
"190 380 LINE",
"221 411 OFFCURVE",
"265 430 OFFCURVE",
"310 430 CURVE SMOOTH",
"405 430 OFFCURVE",
"490 395 OFFCURVE",
"490 250 CURVE SMOOTH",
"490 0 LINE",
"360 0 LINE",
"360 250 LINE SMOOTH",
"360 349 OFFCURVE",
"325 380 OFFCURVE",
"280 380 CURVE SMOOTH",
"249 380 OFFCURVE",
"215 360 OFFCURVE",
"190 332 CURVE",
"190 0 LINE",
"60 0 LINE",
"60 495 LINE",
"-10 495 LINE",
"-10 540 LINE",
"60 540 LINE",
"60 600 LINE",
"110 660 LINE",
"190 660 LINE",
"190 540 LINE",
"290 540 LINE",
"290 495 LINE"
);
}
);
width = 546;
}
);
leftKerningGroup = afii10108;
unicode = 045B;
},
{
glyphname = afii10193;
lastChange = "2015-07-31 18:27:43 +0000";
layers = (
{
layerId = UUID0;
name = Regular;
paths = (
{
closed = 1;
nodes = (
"79 340 LINE SMOOTH",
"79 400 OFFCURVE",
"69 440 OFFCURVE",
"9 440 CURVE SMOOTH",
"-1 440 LINE",
"-1 470 LINE",
"119 470 LINE SMOOTH",
"189 470 OFFCURVE",
"209 439 OFFCURVE",
"209 340 CURVE SMOOTH",
"209 45 LINE",
"369 45 LINE",
"369 470 LINE",
"499 470 LINE",
"499 0 LINE",
"334 0 LINE",
"319 -150 LINE",
"259 -150 LINE",
"244 0 LINE",
"79 0 LINE"
);
}
);
width = 559;
}
);
leftKerningGroup = afii10067;
rightKerningGroup = afii10074;
unicode = 045F;
},
{
glyphname = afii10050;
lastChange = "2015-07-31 18:27:43 +0000";
layers = (
{
layerId = UUID0;
name = Regular;
paths = (
{
closed = 1;
nodes = (
"225 615 LINE",
"225 0 LINE",
"95 0 LINE",
"95 530 LINE SMOOTH",
"95 590 OFFCURVE",
"85 630 OFFCURVE",
"25 630 CURVE SMOOTH",
"15 630 LINE",
"15 660 LINE",
"374 660 LINE SMOOTH",
"454 660 OFFCURVE",
"499 693 OFFCURVE",
"499 780 CURVE",
"529 780 LINE",
"529 695 LINE SMOOTH",
"529 655 OFFCURVE",
"513 615 OFFCURVE",
"444 615 CURVE SMOOTH"
);
}
);
width = 538;
}
);
leftKerningGroup = afii10018;
unicode = 0490;
},
{
glyphname = afii10098;
lastChange = "2015-07-31 18:27:43 +0000";
layers = (
{
layerId = UUID0;
name = Regular;
paths = (
{
closed = 1;
nodes = (
"204 425 LINE",
"204 0 LINE",
"74 0 LINE",
"74 340 LINE SMOOTH",
"74 400 OFFCURVE",
"64 440 OFFCURVE",
"4 440 CURVE SMOOTH",
"-1 440 LINE",
"-1 470 LINE",
"294 470 LINE SMOOTH",
"354 470 OFFCURVE",
"389 499 OFFCURVE",
"389 575 CURVE",
"419 575 LINE",
"419 505 LINE SMOOTH",
"419 465 OFFCURVE",
"404 425 OFFCURVE",
"344 425 CURVE SMOOTH"
);
}
);
width = 433;
}
);
leftKerningGroup = afii10067;
unicode = 0491;
},
{
glyphname = endash;
lastChange = "2015-07-31 18:27:43 +0000";
layers = (
{
layerId = UUID0;
name = Regular;
paths = (
{
closed = 1;
nodes = (
"558 227 LINE",
"64 227 LINE",
"64 292 LINE",
"558 292 LINE"
);
}
);
width = 622;
}
);
leftKerningGroup = emdash;
rightKerningGroup = emdash;
unicode = 2013;
},
{
glyphname = emdash;
lastChange = "2015-07-31 18:27:43 +0000";
layers = (
{
layerId = UUID0;
name = Regular;
paths = (
{
closed = 1;
nodes = (
"828 227 LINE",
"64 227 LINE",
"64 292 LINE",
"828 292 LINE"
);
}
);
width = 892;
}
);
leftKerningGroup = emdash;
rightKerningGroup = emdash;
unicode = 2014;
},
{
glyphname = quoteleft;
lastChange = "2015-07-31 18:27:43 +0000";
layers = (
{
layerId = UUID0;
name = Regular;
paths = (
{
closed = 1;
nodes = (
"109 542 LINE",
"148 542 OFFCURVE",
"170 517 OFFCURVE",
"170 481 CURVE SMOOTH",
"170 445 OFFCURVE",
"148 420 OFFCURVE",
"109 420 CURVE SMOOTH",
"65 420 OFFCURVE",
"43 458 OFFCURVE",
"43 498 CURVE SMOOTH",
"43 574 OFFCURVE",
"73 632 OFFCURVE",
"158 688 CURVE",
"176 664 LINE",
"143 642 OFFCURVE",
"94 599 OFFCURVE",
"94 539 CURVE"
);
}
);
width = 216;
}
);
leftKerningGroup = quotedblleft;
rightKerningGroup = quotedblleft;
unicode = 2018;
},
{
glyphname = quoteright;
lastChange = "2015-07-31 18:27:43 +0000";
layers = (
{
layerId = UUID0;
name = Regular;
paths = (
{
closed = 1;
nodes = (
"115 558 LINE",
"76 558 OFFCURVE",
"54 583 OFFCURVE",
"54 619 CURVE SMOOTH",
"54 655 OFFCURVE",
"76 680 OFFCURVE",
"115 680 CURVE SMOOTH",
"159 680 OFFCURVE",
"181 642 OFFCURVE",
"181 602 CURVE SMOOTH",
"181 526 OFFCURVE",
"151 468 OFFCURVE",
"66 412 CURVE",
"48 436 LINE",
"81 458 OFFCURVE",
"130 501 OFFCURVE",
"130 561 CURVE"
);
}
);
width = 218;
}
);
leftKerningGroup = quotedblright;
rightKerningGroup = quotedblright;
unicode = 2019;
},
{
glyphname = quotesinglbase;
lastChange = "2015-07-31 18:27:43 +0000";
layers = (
{
layerId = UUID0;
name = Regular;
paths = (
{
closed = 1;
nodes = (
"112 -14 LINE",
"73 -14 OFFCURVE",
"51 11 OFFCURVE",
"51 47 CURVE SMOOTH",
"51 83 OFFCURVE",
"73 108 OFFCURVE",
"112 108 CURVE SMOOTH",
"156 108 OFFCURVE",
"178 70 OFFCURVE",
"178 30 CURVE SMOOTH",
"178 -46 OFFCURVE",
"148 -104 OFFCURVE",
"63 -160 CURVE",
"45 -136 LINE",
"78 -114 OFFCURVE",
"127 -71 OFFCURVE",
"127 -11 CURVE"
);
}
);
width = 228;
}
);
leftKerningGroup = quotedblbase;
rightKerningGroup = quotedblbase;
unicode = 201A;
},
{
glyphname = quotedblleft;
lastChange = "2015-07-31 18:27:43 +0000";
layers = (
{
layerId = UUID0;
name = Regular;
paths = (
{
closed = 1;
nodes = (
"109 542 LINE",
"148 542 OFFCURVE",
"170 517 OFFCURVE",
"170 481 CURVE SMOOTH",
"170 445 OFFCURVE",
"148 420 OFFCURVE",
"109 420 CURVE SMOOTH",
"65 420 OFFCURVE",
"43 458 OFFCURVE",
"43 498 CURVE SMOOTH",
"43 574 OFFCURVE",
"73 632 OFFCURVE",
"158 688 CURVE",
"176 664 LINE",
"143 642 OFFCURVE",
"94 599 OFFCURVE",
"94 539 CURVE"
);
},
{
closed = 1;
nodes = (
"291 542 LINE",
"330 542 OFFCURVE",
"352 517 OFFCURVE",
"352 481 CURVE SMOOTH",
"352 445 OFFCURVE",
"330 420 OFFCURVE",
"291 420 CURVE SMOOTH",
"247 420 OFFCURVE",
"225 458 OFFCURVE",
"225 498 CURVE SMOOTH",
"225 574 OFFCURVE",
"255 632 OFFCURVE",
"340 688 CURVE",
"358 664 LINE",
"325 642 OFFCURVE",
"276 599 OFFCURVE",
"276 539 CURVE"
);
}
);
width = 398;
}
);
leftKerningGroup = quotedblleft;
rightKerningGroup = quotedblleft;
unicode = 201C;
},
{
glyphname = quotedblright;
lastChange = "2015-07-31 18:27:43 +0000";
layers = (
{
layerId = UUID0;
name = Regular;
paths = (
{
closed = 1;
nodes = (
"297 558 LINE",
"258 558 OFFCURVE",
"236 583 OFFCURVE",
"236 619 CURVE SMOOTH",
"236 655 OFFCURVE",
"258 680 OFFCURVE",
"297 680 CURVE SMOOTH",
"341 680 OFFCURVE",
"363 642 OFFCURVE",
"363 602 CURVE SMOOTH",
"363 526 OFFCURVE",
"333 468 OFFCURVE",
"248 412 CURVE",
"230 436 LINE",
"263 458 OFFCURVE",
"312 501 OFFCURVE",
"312 561 CURVE"
);
},
{
closed = 1;
nodes = (
"115 558 LINE",
"76 558 OFFCURVE",
"54 583 OFFCURVE",
"54 619 CURVE SMOOTH",
"54 655 OFFCURVE",
"76 680 OFFCURVE",
"115 680 CURVE SMOOTH",
"159 680 OFFCURVE",
"181 642 OFFCURVE",
"181 602 CURVE SMOOTH",
"181 526 OFFCURVE",
"151 468 OFFCURVE",
"66 412 CURVE",
"48 436 LINE",
"81 458 OFFCURVE",
"130 501 OFFCURVE",
"130 561 CURVE"
);
}
);
width = 400;
}
);
leftKerningGroup = quotedblright;
rightKerningGroup = quotedblright;
unicode = 201D;
},
{
glyphname = quotedblbase;
lastChange = "2015-07-31 18:27:43 +0000";
layers = (
{
layerId = UUID0;
name = Regular;
paths = (
{
closed = 1;
nodes = (
"112 -14 LINE",
"73 -14 OFFCURVE",
"51 11 OFFCURVE",
"51 47 CURVE SMOOTH",
"51 83 OFFCURVE",
"73 108 OFFCURVE",
"112 108 CURVE SMOOTH",
"156 108 OFFCURVE",
"178 70 OFFCURVE",
"178 30 CURVE SMOOTH",
"178 -46 OFFCURVE",
"148 -104 OFFCURVE",
"63 -160 CURVE",
"45 -136 LINE",
"78 -114 OFFCURVE",
"127 -71 OFFCURVE",
"127 -11 CURVE"
);
},
{
closed = 1;
nodes = (
"294 -14 LINE",
"255 -14 OFFCURVE",
"233 11 OFFCURVE",
"233 47 CURVE SMOOTH",
"233 83 OFFCURVE",
"255 108 OFFCURVE",
"294 108 CURVE SMOOTH",
"338 108 OFFCURVE",
"360 70 OFFCURVE",
"360 30 CURVE SMOOTH",
"360 -46 OFFCURVE",
"330 -104 OFFCURVE",
"245 -160 CURVE",
"227 -136 LINE",
"260 -114 OFFCURVE",
"309 -71 OFFCURVE",
"309 -11 CURVE"
);
}
);
width = 410;
}
);
leftKerningGroup = quotedblbase;
rightKerningGroup = quotedblbase;
unicode = 201E;
},
{
glyphname = dagger;
lastChange = "2015-07-31 18:27:43 +0000";
layers = (
{
layerId = UUID0;
name = Regular;
paths = (
{
closed = 1;
nodes = (
"25 475 LINE",
"204 475 LINE",
"204 680 LINE",
"334 680 LINE",
"334 475 LINE",
"514 475 LINE",
"514 405 LINE",
"334 405 LINE",
"334 -190 LINE",
"204 -190 LINE",
"204 405 LINE",
"25 405 LINE"
);
}
);
width = 539;
}
);
unicode = 2020;
},
{
glyphname = daggerdbl;
lastChange = "2015-07-31 18:27:43 +0000";
layers = (
{
layerId = UUID0;
name = Regular;
paths = (
{
closed = 1;
nodes = (
"36 475 LINE",
"215 475 LINE",
"215 680 LINE",
"345 680 LINE",
"345 475 LINE",
"525 475 LINE",
"525 405 LINE",
"345 405 LINE",
"345 85 LINE",
"525 85 LINE",
"525 15 LINE",
"345 15 LINE",
"345 -190 LINE",
"215 -190 LINE",
"215 15 LINE",
"36 15 LINE",
"36 85 LINE",
"215 85 LINE",
"215 405 LINE",
"36 405 LINE"
);
}
);
width = 561;
}
);
unicode = 2021;
},
{
glyphname = bullet;
lastChange = "2015-07-31 18:27:43 +0000";
layers = (
{
layerId = UUID0;
name = Regular;
paths = (
{
closed = 1;
nodes = (
"254 453 OFFCURVE",
"310 402 OFFCURVE",
"310 330 CURVE SMOOTH",
"310 258 OFFCURVE",
"254 207 OFFCURVE",
"175 207 CURVE SMOOTH",
"96 207 OFFCURVE",
"40 258 OFFCURVE",
"40 330 CURVE SMOOTH",
"40 402 OFFCURVE",
"96 453 OFFCURVE",
"175 453 CURVE SMOOTH"
);
}
);
width = 350;
}
);
unicode = 2022;
},
{
glyphname = ellipsis;
lastChange = "2015-07-31 18:27:43 +0000";
layers = (
{
layerId = UUID0;
name = Regular;
paths = (
{
closed = 1;
nodes = (
"173 11 OFFCURVE",
"151 -14 OFFCURVE",
"112 -14 CURVE SMOOTH",
"73 -14 OFFCURVE",
"51 11 OFFCURVE",
"51 47 CURVE SMOOTH",
"51 83 OFFCURVE",
"73 108 OFFCURVE",
"112 108 CURVE SMOOTH",
"151 108 OFFCURVE",
"173 83 OFFCURVE",
"173 47 CURVE SMOOTH"
);
},
{
closed = 1;
nodes = (
"383 11 OFFCURVE",
"361 -14 OFFCURVE",
"322 -14 CURVE SMOOTH",
"283 -14 OFFCURVE",
"261 11 OFFCURVE",
"261 47 CURVE SMOOTH",
"261 83 OFFCURVE",
"283 108 OFFCURVE",
"322 108 CURVE SMOOTH",
"361 108 OFFCURVE",
"383 83 OFFCURVE",
"383 47 CURVE SMOOTH"
);
},
{
closed = 1;
nodes = (
"593 11 OFFCURVE",
"571 -14 OFFCURVE",
"532 -14 CURVE SMOOTH",
"493 -14 OFFCURVE",
"471 11 OFFCURVE",
"471 47 CURVE SMOOTH",
"471 83 OFFCURVE",
"493 108 OFFCURVE",
"532 108 CURVE SMOOTH",
"571 108 OFFCURVE",
"593 83 OFFCURVE",
"593 47 CURVE SMOOTH"
);
}
);
width = 644;
}
);
leftKerningGroup = quotedblbase;
unicode = 2026;
},
{
glyphname = perthousand;
lastChange = "2015-07-31 18:27:43 +0000";
layers = (
{
layerId = UUID0;
name = Regular;
paths = (
{
closed = 1;
nodes = (
"86 0 LINE",
"570 660 LINE",
"676 660 LINE",
"192 0 LINE"
);
},
{
closed = 1;
nodes = (
"648 271 OFFCURVE",
"709 221 OFFCURVE",
"709 133 CURVE SMOOTH",
"709 45 OFFCURVE",
"648 -5 OFFCURVE",
"551 -5 CURVE SMOOTH",
"451 -5 OFFCURVE",
"391 45 OFFCURVE",
"391 133 CURVE SMOOTH",
"391 221 OFFCURVE",
"451 271 OFFCURVE",
"551 271 CURVE SMOOTH"
);
},
{
closed = 1;
nodes = (
"498 231 OFFCURVE",
"471 197 OFFCURVE",
"471 133 CURVE SMOOTH",
"471 69 OFFCURVE",
"498 35 OFFCURVE",
"550 35 CURVE SMOOTH",
"602 35 OFFCURVE",
"629 69 OFFCURVE",
"629 133 CURVE SMOOTH",
"629 197 OFFCURVE",
"601 231 OFFCURVE",
"549 231 CURVE SMOOTH"
);
},
{
closed = 1;
nodes = (
"290 665 OFFCURVE",
"351 615 OFFCURVE",
"351 527 CURVE SMOOTH",
"351 439 OFFCURVE",
"290 389 OFFCURVE",
"193 389 CURVE SMOOTH",
"93 389 OFFCURVE",
"33 439 OFFCURVE",
"33 527 CURVE SMOOTH",
"33 615 OFFCURVE",
"93 665 OFFCURVE",
"193 665 CURVE SMOOTH"
);
},
{
closed = 1;
nodes = (
"140 625 OFFCURVE",
"113 591 OFFCURVE",
"113 527 CURVE SMOOTH",
"113 463 OFFCURVE",
"140 429 OFFCURVE",
"192 429 CURVE SMOOTH",
"244 429 OFFCURVE",
"271 463 OFFCURVE",
"271 527 CURVE SMOOTH",
"271 591 OFFCURVE",
"243 625 OFFCURVE",
"191 625 CURVE SMOOTH"
);
},
{
closed = 1;
nodes = (
"982 271 OFFCURVE",
"1043 221 OFFCURVE",
"1043 133 CURVE SMOOTH",
"1043 45 OFFCURVE",
"982 -5 OFFCURVE",
"885 -5 CURVE SMOOTH",
"785 -5 OFFCURVE",
"725 45 OFFCURVE",
"725 133 CURVE SMOOTH",
"725 221 OFFCURVE",
"785 271 OFFCURVE",
"885 271 CURVE SMOOTH"
);
},
{
closed = 1;
nodes = (
"832 231 OFFCURVE",
"805 197 OFFCURVE",
"805 133 CURVE SMOOTH",
"805 69 OFFCURVE",
"832 35 OFFCURVE",
"884 35 CURVE SMOOTH",
"936 35 OFFCURVE",
"963 69 OFFCURVE",
"963 133 CURVE SMOOTH",
"963 197 OFFCURVE",
"935 231 OFFCURVE",
"883 231 CURVE SMOOTH"
);
}
);
width = 1070;
}
);
unicode = 2030;
},
{
glyphname = guilsinglleft;
lastChange = "2015-07-31 18:27:43 +0000";
layers = (
{
layerId = UUID0;
name = Regular;
paths = (
{
closed = 1;
nodes = (
"253 30 LINE",
"189 30 LINE",
"31 225 LINE",
"189 420 LINE",
"253 420 LINE",
"156 226 LINE"
);
}
);
width = 294;
}
);
leftKerningGroup = guilsinglleft;
unicode = 2039;
},
{
glyphname = guilsinglright;
lastChange = "2015-07-31 18:27:43 +0000";
layers = (
{
layerId = UUID0;
name = Regular;
paths = (
{
closed = 1;
nodes = (
"138 226 LINE",
"41 420 LINE",
"105 420 LINE",
"263 225 LINE",
"105 30 LINE",
"41 30 LINE"
);
}
);
width = 294;
}
);
leftKerningGroup = guilsinglright;
rightKerningGroup = guilsinglright;
unicode = 203A;
},
{
glyphname = Euro;
lastChange = "2015-07-31 18:27:43 +0000";
layers = (
{
layerId = UUID0;
name = Regular;
paths = (
{
closed = 1;
nodes = (
"649 447 LINE",
"624 568 OFFCURVE",
"557 635 OFFCURVE",
"446 635 CURVE SMOOTH",
"338 635 OFFCURVE",
"249 579 OFFCURVE",
"230 400 CURVE",
"425 400 LINE",
"413 355 LINE",
"226 355 LINE",
"226 320 LINE",
"226 295 LINE",
"410 295 LINE",
"398 250 LINE",
"230 250 LINE",
"246 126 OFFCURVE",
"313 25 OFFCURVE",
"446 25 CURVE SMOOTH",
"538 25 OFFCURVE",
"621 75 OFFCURVE",
"669 168 CURVE",
"704 141 LINE",
"641 30 OFFCURVE",
"556 -20 OFFCURVE",
"416 -20 CURVE SMOOTH",
"231 -20 OFFCURVE",
"118 93 OFFCURVE",
"91 250 CURVE",
"26 250 LINE",
"38 295 LINE",
"86 295 LINE",
"86 320 LINE SMOOTH",
"86 332 OFFCURVE",
"86 343 OFFCURVE",
"87 355 CURVE",
"41 355 LINE",
"53 400 LINE",
"93 400 LINE",
"125 562 OFFCURVE",
"254 680 OFFCURVE",
"416 680 CURVE SMOOTH",
"541 680 OFFCURVE",
"616 642 OFFCURVE",
"653 599 CURVE",
"680 564 OFFCURVE",
"679 506 OFFCURVE",
"679 447 CURVE"
);
}
);
width = 741;
}
);
unicode = 20AC;
},
{
glyphname = afii61352;
lastChange = "2015-07-31 18:27:43 +0000";
layers = (
{
layerId = UUID0;
name = Regular;
paths = (
{
closed = 1;
nodes = (
"574 200 LINE",
"574 660 LINE",
"624 660 LINE",
"624 -3 LINE",
"578 -3 LINE",
"154 495 LINE",
"154 0 LINE",
"104 0 LINE",
"104 540 LINE SMOOTH",
"104 591 OFFCURVE",
"84 630 OFFCURVE",
"14 630 CURVE SMOOTH",
"9 630 LINE",
"9 660 LINE",
"79 660 LINE SMOOTH",
"155 660 OFFCURVE",
"199 640 OFFCURVE",
"230 600 CURVE"
);
},
{
closed = 1;
nodes = (
"783 630 OFFCURVE",
"744 591 OFFCURVE",
"744 520 CURVE SMOOTH",
"744 449 OFFCURVE",
"783 410 OFFCURVE",
"834 410 CURVE SMOOTH",
"885 410 OFFCURVE",
"924 449 OFFCURVE",
"924 520 CURVE SMOOTH",
"924 591 OFFCURVE",
"885 630 OFFCURVE",
"834 630 CURVE SMOOTH"
);
},
{
closed = 1;
nodes = (
"944 680 OFFCURVE",
"1004 610 OFFCURVE",
"1004 520 CURVE SMOOTH",
"1004 430 OFFCURVE",
"944 360 OFFCURVE",
"834 360 CURVE SMOOTH",
"724 360 OFFCURVE",
"664 430 OFFCURVE",
"664 520 CURVE SMOOTH",
"664 610 OFFCURVE",
"724 680 OFFCURVE",
"834 680 CURVE SMOOTH"
);
},
{
closed = 1;
nodes = (
"994 247 LINE",
"674 247 LINE",
"674 312 LINE",
"994 312 LINE"
);
}
);
width = 1039;
}
);
unicode = 2116;
},
{
glyphname = trademark;
lastChange = "2015-07-31 18:27:43 +0000";
layers = (
{
layerId = UUID0;
name = Regular;
paths = (
{
closed = 1;
nodes = (
"406 660 LINE",
"406 628 LINE",
"285 628 LINE",
"285 297 LINE",
"189 297 LINE",
"189 628 LINE",
"143 628 LINE SMOOTH",
"98 628 OFFCURVE",
"67 600 OFFCURVE",
"67 543 CURVE",
"51 543 LINE",
"51 594 LINE SMOOTH",
"51 627 OFFCURVE",
"64 660 OFFCURVE",
"123 660 CURVE SMOOTH"
);
},
{
closed = 1;
nodes = (
"849 438 LINE SMOOTH",
"849 343 OFFCURVE",
"865 310 OFFCURVE",
"897 302 CURVE",
"897 290 LINE",
"801 290 OFFCURVE",
"753 327 OFFCURVE",
"753 438 CURVE SMOOTH",
"753 556 LINE",
"637 297 LINE",
"612 297 LINE",
"467 572 LINE",
"467 297 LINE",
"429 297 LINE",
"429 660 LINE",
"517 660 LINE",
"645 417 LINE",
"754 660 LINE",
"849 660 LINE"
);
}
);
width = 940;
}
);
unicode = 2122;
},
{
color = (0,243,255,1);
glyphname = Breve;
lastChange = "2015-07-31 18:27:43 +0000";
layers = (
{
layerId = UUID0;
name = Regular;
paths = (
{
closed = 1;
nodes = (
"217 575 OFFCURVE",
"254 600 OFFCURVE",
"274 625 CURVE",
"302 604 LINE",
"277 548 OFFCURVE",
"226 510 OFFCURVE",
"161 510 CURVE SMOOTH",
"96 510 OFFCURVE",
"45 548 OFFCURVE",
"20 604 CURVE",
"48 625 LINE",
"68 600 OFFCURVE",
"105 575 OFFCURVE",
"161 575 CURVE SMOOTH"
);
}
);
width = 322;
}
);
unicode = F406;
},
{
glyphname = dieresis.alt1;
lastChange = "2015-07-31 18:27:43 +0000";
layers = (
{
layerId = UUID0;
name = Regular;
paths = (
{
closed = 1;
nodes = (
"132 560 OFFCURVE",
"111 535 OFFCURVE",
"76 535 CURVE SMOOTH",
"41 535 OFFCURVE",
"20 560 OFFCURVE",
"20 591 CURVE SMOOTH",
"20 622 OFFCURVE",
"41 647 OFFCURVE",
"76 647 CURVE SMOOTH",
"111 647 OFFCURVE",
"132 622 OFFCURVE",
"132 591 CURVE SMOOTH"
);
},
{
closed = 1;
nodes = (
"312 560 OFFCURVE",
"291 535 OFFCURVE",
"256 535 CURVE SMOOTH",
"221 535 OFFCURVE",
"200 560 OFFCURVE",
"200 591 CURVE SMOOTH",
"200 622 OFFCURVE",
"221 647 OFFCURVE",
"256 647 CURVE SMOOTH",
"291 647 OFFCURVE",
"312 622 OFFCURVE",
"312 591 CURVE SMOOTH"
);
}
);
width = 332;
}
);
},
{
glyphname = dieresis.alt2;
lastChange = "2015-07-31 18:27:43 +0000";
layers = (
{
layerId = UUID0;
name = Regular;
paths = (
{
closed = 1;
nodes = (
"132 755 OFFCURVE",
"111 730 OFFCURVE",
"76 730 CURVE SMOOTH",
"41 730 OFFCURVE",
"20 755 OFFCURVE",
"20 786 CURVE SMOOTH",
"20 817 OFFCURVE",
"41 842 OFFCURVE",
"76 842 CURVE SMOOTH",
"111 842 OFFCURVE",
"132 817 OFFCURVE",
"132 786 CURVE SMOOTH"
);
},
{
closed = 1;
nodes = (
"312 755 OFFCURVE",
"291 730 OFFCURVE",
"256 730 CURVE SMOOTH",
"221 730 OFFCURVE",
"200 755 OFFCURVE",
"200 786 CURVE SMOOTH",
"200 817 OFFCURVE",
"221 842 OFFCURVE",
"256 842 CURVE SMOOTH",
"291 842 OFFCURVE",
"312 817 OFFCURVE",
"312 786 CURVE SMOOTH"
);
}
);
width = 332;
}
);
},
{
glyphname = grave.alt1;
lastChange = "2015-07-31 18:27:43 +0000";
layers = (
{
layerId = UUID0;
name = Regular;
paths = (
{
closed = 1;
nodes = (
"20 665 LINE",
"139 665 LINE",
"181 525 LINE",
"126 525 LINE"
);
}
);
width = 201;
}
);
},
{
color = (0,243,255,1);
glyphname = acute.alt1;
lastChange = "2015-07-31 18:27:43 +0000";
layers = (
{
layerId = UUID0;
name = Regular;
paths = (
{
closed = 1;
nodes = (
"75 525 LINE",
"20 525 LINE",
"62 665 LINE",
"181 665 LINE"
);
}
);
width = 201;
}
);
},
{
color = (0,243,255,1);
glyphname = circumflex.alt1;
lastChange = "2015-07-31 18:27:43 +0000";
layers = (
{
layerId = UUID0;
name = Regular;
paths = (
{
closed = 1;
nodes = (
"165 740 LINE",
"80 660 LINE",
"20 660 LINE",
"100 785 LINE",
"230 785 LINE",
"310 660 LINE",
"250 660 LINE"
);
}
);
width = 330;
}
);
},
{
glyphname = "hamza-ar";
lastChange = "2015-07-31 23:49:43 +0000";
layers = (
{
anchors = (
{
name = bottom;
position = "{240, -30}";
},
{
name = top;
position = "{240, 480}";
}
);
layerId = UUID0;
name = Regular;
paths = (
{
closed = 1;
nodes = (
"98 22 OFFCURVE",
"373 33 OFFCURVE",
"397 33 CURVE",
"440 35 OFFCURVE",
"444 133 OFFCURVE",
"390 133 CURVE SMOOTH",
"373 133 OFFCURVE",
"348 124 OFFCURVE",
"319 124 CURVE SMOOTH",
"245 124 OFFCURVE",
"199 181 OFFCURVE",
"199 236 CURVE SMOOTH",
"199 283 OFFCURVE",
"234 319 OFFCURVE",
"234 319 CURVE",
"286 319 OFFCURVE",
"281 250 OFFCURVE",
"281 250 CURVE SMOOTH",
"281 250 OFFCURVE",
"386 207 OFFCURVE",
"386 301 CURVE SMOOTH",
"386 366 OFFCURVE",
"335 393 OFFCURVE",
"264 393 CURVE SMOOTH",
"127 393 OFFCURVE",
"71 292 OFFCURVE",
"71 218 CURVE SMOOTH",
"71 133 OFFCURVE",
"145 98 OFFCURVE",
"145 98 CURVE SMOOTH",
"15 98 OFFCURVE",
"38 -16 OFFCURVE",
"98 -29 CURVE"
);
}
);
width = 480;
}
);
unicode = 0621;
},
{
glyphname = "alef-ar";
lastChange = "2015-08-01 01:31:24 +0000";
layers = (
{
anchors = (
{
name = bottom;
position = "{161, -30}";
},
{
name = top;
position = "{130, 700}";
}
);
layerId = UUID0;
name = Regular;
paths = (
{
closed = 1;
nodes = (
"210 0 OFFCURVE",
"226 35 OFFCURVE",
"226 66 CURVE SMOOTH",
"226 540 LINE SMOOTH",
"226 609 OFFCURVE",
"188 660 OFFCURVE",
"130 660 CURVE SMOOTH",
"70 660 OFFCURVE",
"50 610 OFFCURVE",
"50 594 CURVE",
"61 588 OFFCURVE",
"96 584 OFFCURVE",
"96 513 CURVE SMOOTH",
"96 68 LINE SMOOTH",
"96 35 OFFCURVE",
"112 0 OFFCURVE",
"161 0 CURVE SMOOTH"
);
}
);
width = 276;
}
);
unicode = 0627;
},
{
glyphname = "alef-ar.fina";
lastChange = "2015-08-01 02:04:49 +0000";
layers = (
{
anchors = (
{
name = bottom;
position = "{161, -30}";
},
{
name = entry;
position = "{319, 48}";
},
{
name = top;
position = "{130, 700}";
}
);
layerId = UUID0;
name = Regular;
paths = (
{
closed = 1;
nodes = (
"242 96 OFFCURVE",
"226 117 OFFCURVE",
"226 160 CURVE SMOOTH",
"226 540 LINE SMOOTH",
"226 609 OFFCURVE",
"188 660 OFFCURVE",
"130 660 CURVE SMOOTH",
"70 660 OFFCURVE",
"50 610 OFFCURVE",
"50 594 CURVE",
"61 588 OFFCURVE",
"96 584 OFFCURVE",
"96 513 CURVE SMOOTH",
"96 160 LINE SMOOTH",
"97 75 OFFCURVE",
"137 0 OFFCURVE",
"226 0 CURVE SMOOTH",
"339 0 LINE",
"339 96 LINE",
"269 96 LINE SMOOTH"
);
}
);
width = 319;
}
);
unicode = FE8E;
},
{
glyphname = "alef-ar.short";
lastChange = "2015-08-01 02:05:28 +0000";
layers = (
{
anchors = (
{
name = bottom;
position = "{161, -60}";
},
{
name = top;
position = "{130, 620}";
}
);
layerId = UUID0;
name = Regular;
paths = (
{
closed = 1;
nodes = (
"210 0 OFFCURVE",
"226 35 OFFCURVE",
"226 66 CURVE SMOOTH",
"226 479 LINE SMOOTH",
"226 548 OFFCURVE",
"188 599 OFFCURVE",
"130 599 CURVE SMOOTH",
"70 599 OFFCURVE",
"50 549 OFFCURVE",
"50 533 CURVE",
"61 527 OFFCURVE",
"96 523 OFFCURVE",
"96 452 CURVE SMOOTH",
"96 68 LINE SMOOTH",
"96 35 OFFCURVE",
"112 0 OFFCURVE",
"161 0 CURVE SMOOTH"
);
}
);
width = 276;
}
);
},
{
glyphname = "alef-ar.fina.short";
lastChange = "2015-08-01 02:04:34 +0000";
layers = (
{
anchors = (
{
name = bottom;
position = "{161, -60}";
},
{
name = entry;
position = "{319, 48}";
},
{
name = top;
position = "{130, 620}";
}
);
layerId = UUID0;
name = Regular;
paths = (
{
closed = 1;
nodes = (
"242 96 OFFCURVE",
"226 117 OFFCURVE",
"226 160 CURVE SMOOTH",
"226 479 LINE SMOOTH",
"226 548 OFFCURVE",
"188 599 OFFCURVE",
"130 599 CURVE SMOOTH",
"70 599 OFFCURVE",
"50 549 OFFCURVE",
"50 533 CURVE",
"61 527 OFFCURVE",
"96 523 OFFCURVE",
"96 452 CURVE SMOOTH",
"96 160 LINE SMOOTH",
"96 75 OFFCURVE",
"137 0 OFFCURVE",
"226 0 CURVE SMOOTH",
"339 0 LINE",
"339 96 LINE",
"269 96 LINE SMOOTH"
);
}
);
width = 319;
}
);
},
{
glyphname = "dotlessbeh-ar";
lastChange = "2015-08-02 01:59:28 +0000";
layers = (
{
anchors = (
{
name = bottom;
position = "{414, -60}";
},
{
name = top;
position = "{414, 480}";
}
);
layerId = UUID0;
name = Regular;
paths = (
{
closed = 1;
nodes = (
"588 480 OFFCURVE",
"565 440 OFFCURVE",
"565 419 CURVE",
"605 388 OFFCURVE",
"633 363 OFFCURVE",
"633 258 CURVE SMOOTH",
"633 144 OFFCURVE",
"600 96 OFFCURVE",
"564 96 CURVE SMOOTH",
"238 96 LINE SMOOTH",
"211 96 OFFCURVE",
"195 117 OFFCURVE",
"195 160 CURVE SMOOTH",
"195 365 LINE SMOOTH",
"195 398 OFFCURVE",
"179 433 OFFCURVE",
"130 433 CURVE SMOOTH",
"81 433 OFFCURVE",
"65 398 OFFCURVE",
"65 367 CURVE SMOOTH",
"65 160 LINE SMOOTH",
"65 75 OFFCURVE",
"106 0 OFFCURVE",
"195 0 CURVE SMOOTH",
"566 0 LINE SMOOTH",
"703 0 OFFCURVE",
"763 140 OFFCURVE",
"763 285 CURVE SMOOTH",
"763 404 OFFCURVE",
"723 480 OFFCURVE",
"647 480 CURVE SMOOTH"
);
}
);
width = 828;
}
);
unicode = 066E;
},
{
glyphname = "dotlessbeh-ar.fina";
lastChange = "2015-08-02 01:59:32 +0000";
layers = (
{
anchors = (
{
name = bottom;
position = "{414, -60}";
},
{
name = entry;
position = "{860, 48}";
},
{
name = top;
position = "{414, 480}";
}
);
layerId = UUID0;
name = Regular;
paths = (
{
closed = 1;
nodes = (
"750 148 OFFCURVE",
"763 216 OFFCURVE",
"763 285 CURVE SMOOTH",
"763 404 OFFCURVE",
"723 480 OFFCURVE",
"647 480 CURVE SMOOTH",
"588 480 OFFCURVE",
"565 440 OFFCURVE",
"565 419 CURVE",
"605 388 OFFCURVE",
"633 363 OFFCURVE",
"633 258 CURVE SMOOTH",
"633 144 OFFCURVE",
"600 96 OFFCURVE",
"564 96 CURVE SMOOTH",
"238 96 LINE SMOOTH",
"211 96 OFFCURVE",
"195 117 OFFCURVE",
"195 160 CURVE SMOOTH",
"195 365 LINE SMOOTH",
"195 398 OFFCURVE",
"179 433 OFFCURVE",
"130 433 CURVE SMOOTH",
"81 433 OFFCURVE",
"65 398 OFFCURVE",
"65 367 CURVE SMOOTH",
"65 160 LINE SMOOTH",
"65 75 OFFCURVE",
"106 0 OFFCURVE",
"195 0 CURVE SMOOTH",
"566 0 LINE SMOOTH",
"607 0 OFFCURVE",
"641 12 OFFCURVE",
"668 34 CURVE",
"699 11 OFFCURVE",
"735 0 OFFCURVE",
"774 0 CURVE SMOOTH",
"880 0 LINE",
"880 96 LINE",
"721 96 LINE"
);
}
);
width = 860;
}
);
},
{
glyphname = "dotlessbeh-ar.medi";
lastChange = "2015-08-01 01:49:26 +0000";
layers = (
{
anchors = (
{
name = bottom;
position = "{157, -60}";
},
{
name = entry;
position = "{339, 49}";
},
{
name = exit;
position = "{0, 49}";
},
{
name = top;
position = "{157, 525}";
}
);
layerId = UUID0;
name = Regular;
paths = (
{
closed = 1;
nodes = (
"238 96 OFFCURVE",
"222 117 OFFCURVE",
"222 160 CURVE SMOOTH",
"222 412 LINE SMOOTH",
"222 445 OFFCURVE",
"206 480 OFFCURVE",
"157 480 CURVE SMOOTH",
"108 480 OFFCURVE",
"92 445 OFFCURVE",
"92 414 CURVE SMOOTH",
"92 175 LINE SMOOTH",
"92 136 OFFCURVE",
"76 96 OFFCURVE",
"49 96 CURVE SMOOTH",
"-20 96 LINE",
"-20 0 LINE",
"8 0 LINE SMOOTH",
"49 0 OFFCURVE",
"71 13 OFFCURVE",
"98 35 CURVE",
"126 13 OFFCURVE",
"159 0 OFFCURVE",
"196 0 CURVE SMOOTH",
"359 0 LINE",
"359 96 LINE",
"265 96 LINE SMOOTH"
);
}
);
width = 339;
}
);
},
{
glyphname = "dotlessbeh-ar.init";
lastChange = "2015-08-02 01:59:37 +0000";
layers = (
{
anchors = (
{
name = bottom;
position = "{171, -60}";
},
{
name = exit;
position = "{0, 48}";
},
{
name = top;
position = "{175, 525}";
}
);
layerId = UUID0;
name = Regular;
paths = (
{
closed = 1;
nodes = (
"116 480 OFFCURVE",
"93 440 OFFCURVE",
"93 419 CURVE",
"133 388 OFFCURVE",
"161 363 OFFCURVE",
"161 258 CURVE SMOOTH",
"161 144 OFFCURVE",
"128 96 OFFCURVE",
"92 96 CURVE SMOOTH",
"-20 96 LINE",
"-20 0 LINE",
"94 0 LINE SMOOTH",
"231 0 OFFCURVE",
"291 140 OFFCURVE",
"291 285 CURVE SMOOTH",
"291 404 OFFCURVE",
"251 480 OFFCURVE",
"175 480 CURVE SMOOTH"
);
}
);
width = 356;
}
);
},
{
glyphname = "hah-ar";
lastChange = "2015-08-05 19:00:57 +0000";
layers = (
{
anchors = (
{
name = bottom;
position = "{335, -292}";
},
{
name = center;
position = "{378, -120}";
},
{
name = top;
position = "{335, 525}";
}
);
layerId = UUID0;
name = Regular;
paths = (
{
closed = 1;
nodes = (
"240 -266 OFFCURVE",
"251 -226 OFFCURVE",
"251 -226 CURVE SMOOTH",
"251 -226 OFFCURVE",
"175 -178 OFFCURVE",
"175 0 CURVE",
"230 0 OFFCURVE",
"412 0 OFFCURVE",
"412 0 CURVE",
"575 0 OFFCURVE",
"604 181 OFFCURVE",
"604 242 CURVE SMOOTH",
"604 374 OFFCURVE",
"469 480 OFFCURVE",
"369 480 CURVE SMOOTH",
"352 480 OFFCURVE",
"279 477 OFFCURVE",
"253 477 CURVE SMOOTH",
"159 477 OFFCURVE",
"141 517 OFFCURVE",
"141 517 CURVE SMOOTH",
"141 517 OFFCURVE",
"116 519 OFFCURVE",
"116 480 CURVE SMOOTH",
"116 437 OFFCURVE",
"146 386 OFFCURVE",
"212 386 CURVE SMOOTH",
"219 386 OFFCURVE",
"294 386 OFFCURVE",
"310 386 CURVE SMOOTH",
"381 386 OFFCURVE",
"474 356 OFFCURVE",
"474 233 CURVE SMOOTH",
"474 154 OFFCURVE",
"436 99 OFFCURVE",
"408 96 CURVE",
"189 96 LINE SMOOTH",
"99 96 OFFCURVE",
"65 18 OFFCURVE",
"65 -72 CURVE SMOOTH",
"65 -147 OFFCURVE",
"89 -266 OFFCURVE",
"184 -266 CURVE SMOOTH"
);
}
);
width = 669;
}
);
unicode = 062D;
},
{
glyphname = "hah-ar.fina";
lastChange = "2015-08-02 02:00:49 +0000";
layers = (
{
anchors = (
{
name = bottom;
position = "{335, -292}";
},
{
name = center;
position = "{378, -120}";
},
{
name = entry;
position = "{671, 48}";
},
{
name = top;
position = "{335, 525}";
}
);
layerId = UUID0;
name = Regular;
paths = (
{
closed = 1;
nodes = (
"597 149 OFFCURVE",
"604 211 OFFCURVE",
"604 242 CURVE SMOOTH",
"604 374 OFFCURVE",
"469 480 OFFCURVE",
"369 480 CURVE SMOOTH",
"352 480 OFFCURVE",
"279 477 OFFCURVE",
"253 477 CURVE SMOOTH",
"159 477 OFFCURVE",
"141 517 OFFCURVE",
"141 517 CURVE SMOOTH",
"141 517 OFFCURVE",
"116 519 OFFCURVE",
"116 480 CURVE SMOOTH",
"116 437 OFFCURVE",
"146 386 OFFCURVE",
"212 386 CURVE SMOOTH",
"219 386 OFFCURVE",
"294 386 OFFCURVE",
"310 386 CURVE SMOOTH",
"381 386 OFFCURVE",
"474 356 OFFCURVE",
"474 233 CURVE SMOOTH",
"474 154 OFFCURVE",
"436 99 OFFCURVE",
"408 96 CURVE",
"189 96 LINE SMOOTH",
"99 96 OFFCURVE",
"65 18 OFFCURVE",
"65 -72 CURVE SMOOTH",
"65 -147 OFFCURVE",
"89 -266 OFFCURVE",
"184 -266 CURVE SMOOTH",
"240 -266 OFFCURVE",
"251 -226 OFFCURVE",
"251 -226 CURVE SMOOTH",
"251 -226 OFFCURVE",
"175 -178 OFFCURVE",
"175 0 CURVE",
"230 0 OFFCURVE",
"412 0 OFFCURVE",
"412 0 CURVE",
"456 0 OFFCURVE",
"490 13 OFFCURVE",
"517 34 CURVE",
"547 10 OFFCURVE",
"584 0 OFFCURVE",
"622 0 CURVE SMOOTH",
"691 0 LINE",
"691 96 LINE",
"568 96 LINE"
);
}
);
width = 671;
}
);
unicode = FEA2;
},
{
glyphname = "hah-ar.medi";
lastChange = "2015-08-02 00:49:34 +0000";
layers = (
{
anchors = (
{
name = bottom;
position = "{281, -60}";
},
{
name = entry;
position = "{552, 48}";
},
{
name = exit;
position = "{0, 48}";
},
{
name = top;
position = "{281, 525}";
}
);
layerId = UUID0;
name = Regular;
paths = (
{
closed = 1;
nodes = (
"504 149 OFFCURVE",
"511 211 OFFCURVE",
"511 242 CURVE SMOOTH",
"511 374 OFFCURVE",
"376 480 OFFCURVE",
"276 480 CURVE SMOOTH",
"259 480 OFFCURVE",
"186 477 OFFCURVE",
"160 477 CURVE SMOOTH",
"66 477 OFFCURVE",
"48 517 OFFCURVE",
"48 517 CURVE SMOOTH",
"48 517 OFFCURVE",
"23 519 OFFCURVE",
"23 480 CURVE SMOOTH",
"23 437 OFFCURVE",
"53 386 OFFCURVE",
"119 386 CURVE SMOOTH",
"126 386 OFFCURVE",
"201 386 OFFCURVE",
"217 386 CURVE SMOOTH",
"288 386 OFFCURVE",
"381 356 OFFCURVE",
"381 233 CURVE SMOOTH",
"381 154 OFFCURVE",
"343 99 OFFCURVE",
"315 96 CURVE",
"-20 96 LINE",
"-20 0 LINE",
"52 0 OFFCURVE",
"319 0 OFFCURVE",
"319 0 CURVE",
"363 0 OFFCURVE",
"397 13 OFFCURVE",
"424 34 CURVE",
"454 10 OFFCURVE",
"491 0 OFFCURVE",
"529 0 CURVE SMOOTH",
"572 0 LINE",
"572 96 LINE",
"475 96 LINE"
);
}
);
width = 552;
}
);
unicode = FEA4;
},
{
glyphname = "hah-ar.init";
lastChange = "2015-08-02 02:00:52 +0000";
layers = (
{
anchors = (
{
name = bottom;
position = "{281, -60}";
},
{
name = exit;
position = "{0, 48}";
},
{
name = top;
position = "{281, 525}";
}
);
layerId = UUID0;
name = Regular;
paths = (
{
closed = 1;
nodes = (
"259 480 OFFCURVE",
"186 477 OFFCURVE",
"160 477 CURVE SMOOTH",
"66 477 OFFCURVE",
"48 517 OFFCURVE",
"48 517 CURVE SMOOTH",
"48 517 OFFCURVE",
"23 519 OFFCURVE",
"23 480 CURVE SMOOTH",
"23 437 OFFCURVE",
"53 386 OFFCURVE",
"119 386 CURVE SMOOTH",
"126 386 OFFCURVE",
"201 386 OFFCURVE",
"217 386 CURVE SMOOTH",
"288 386 OFFCURVE",
"381 356 OFFCURVE",
"381 233 CURVE SMOOTH",
"381 154 OFFCURVE",
"343 99 OFFCURVE",
"315 96 CURVE",
"-20 96 LINE",
"-20 0 LINE",
"53 0 OFFCURVE",
"319 0 OFFCURVE",
"319 0 CURVE",
"482 0 OFFCURVE",
"511 181 OFFCURVE",
"511 242 CURVE SMOOTH",
"511 374 OFFCURVE",
"376 480 OFFCURVE",
"276 480 CURVE SMOOTH"
);
}
);
width = 576;
}
);
unicode = FEA3;
},
{
glyphname = "dal-ar";
lastChange = "2015-08-05 19:06:57 +0000";
layers = (
{
anchors = (
{
name = bottom;
position = "{259, -60}";
},
{
name = top;
position = "{259, 525}";
}
);
layerId = UUID0;
name = Regular;
paths = (
{
closed = 1;
nodes = (
"261 0 LINE SMOOTH",
"421 0 OFFCURVE",
"452 178 OFFCURVE",
"452 249 CURVE SMOOTH",
"452 402 OFFCURVE",
"309 480 OFFCURVE",
"231 480 CURVE SMOOTH",
"192 480 OFFCURVE",
"65 461 OFFCURVE",
"65 367 CURVE SMOOTH",
"65 316 OFFCURVE",
"101 293 OFFCURVE",
"136 293 CURVE SMOOTH",
"163 293 OFFCURVE",
"199 307 OFFCURVE",
"199 307 CURVE",
"199 399 OFFCURVE",
"245 396 OFFCURVE",
"245 396 CURVE SMOOTH",
"245 396 OFFCURVE",
"322 353 OFFCURVE",
"322 241 CURVE SMOOTH",
"322 165 OFFCURVE",
"286 96 OFFCURVE",
"169 96 CURVE SMOOTH",
"107 96 LINE SMOOTH",
"69 96 OFFCURVE",
"65 64 OFFCURVE",
"65 48 CURVE SMOOTH",
"65 32 OFFCURVE",
"69 0 OFFCURVE",
"107 0 CURVE SMOOTH"
);
}
);
width = 517;
}
);
unicode = 062F;
},
{
glyphname = "dal-ar.fina";
lastChange = "2015-08-05 19:07:05 +0000";
layers = (
{
anchors = (
{
name = bottom;
position = "{259, -60}";
},
{
name = entry;
position = "{551, 48}";
},
{
name = top;
position = "{259, 525}";
}
);
layerId = UUID0;
name = Regular;
paths = (
{
closed = 1;
nodes = (
"444 149 OFFCURVE",
"452 213 OFFCURVE",
"452 249 CURVE SMOOTH",
"452 402 OFFCURVE",
"309 480 OFFCURVE",
"231 480 CURVE SMOOTH",
"192 480 OFFCURVE",
"65 461 OFFCURVE",
"65 367 CURVE SMOOTH",
"65 316 OFFCURVE",
"101 293 OFFCURVE",
"136 293 CURVE SMOOTH",
"163 293 OFFCURVE",
"199 307 OFFCURVE",
"199 307 CURVE",
"199 399 OFFCURVE",
"245 396 OFFCURVE",
"245 396 CURVE SMOOTH",
"245 396 OFFCURVE",
"322 353 OFFCURVE",
"322 241 CURVE SMOOTH",
"322 165 OFFCURVE",
"286 96 OFFCURVE",
"169 96 CURVE SMOOTH",
"107 96 LINE SMOOTH",
"69 96 OFFCURVE",
"65 64 OFFCURVE",
"65 48 CURVE SMOOTH",
"65 32 OFFCURVE",
"69 0 OFFCURVE",
"107 0 CURVE SMOOTH",
"261 0 LINE SMOOTH",
"302 0 OFFCURVE",
"334 11 OFFCURVE",
"359 30 CURVE",
"388 9 OFFCURVE",
"424 0 OFFCURVE",
"460 0 CURVE SMOOTH",
"571 0 LINE",
"571 95 LINE",
"415 95 LINE"
);
}
);
width = 551;
}
);
unicode = FEAA;
},
{
glyphname = "reh-ar";
lastChange = "2015-08-02 02:01:42 +0000";
layers = (
{
anchors = (
{
name = bottom;
position = "{210, -280}";
},
{
name = top;
position = "{210, 525}";
}
);
layerId = UUID0;
name = Regular;
paths = (
{
closed = 1;
nodes = (
"275 456 OFFCURVE",
"248 480 OFFCURVE",
"210 480 CURVE SMOOTH",
"172 480 OFFCURVE",
"145 456 OFFCURVE",
"145 418 CURVE SMOOTH",
"145 -72 LINE SMOOTH",
"145 -119 OFFCURVE",
"102 -133 OFFCURVE",
"66 -133 CURVE SMOOTH",
"6 -133 OFFCURVE",
"-44 -94 OFFCURVE",
"-44 -94 CURVE SMOOTH",
"-44 -94 OFFCURVE",
"-65 -229 OFFCURVE",
"98 -229 CURVE SMOOTH",
"253 -229 OFFCURVE",
"275 -107 OFFCURVE",
"275 -48 CURVE SMOOTH",
"275 416 LINE SMOOTH"
);
}
);
width = 340;
}
);
unicode = 0631;
},
{
glyphname = "reh-ar.fina";
lastChange = "2015-08-02 01:22:41 +0000";
layers = (
{
anchors = (
{
name = bottom;
position = "{210, -280}";
},
{
name = entry;
position = "{371, 48}";
},
{
name = top;
position = "{210, 525}";
}
);
layerId = UUID0;
name = Regular;
paths = (
{
closed = 1;
nodes = (
"275 96 LINE",
"275 416 LINE SMOOTH",
"275 456 OFFCURVE",
"248 480 OFFCURVE",
"210 480 CURVE SMOOTH",
"172 480 OFFCURVE",
"145 456 OFFCURVE",
"145 418 CURVE SMOOTH",
"145 -72 LINE SMOOTH",
"145 -119 OFFCURVE",
"102 -133 OFFCURVE",
"66 -133 CURVE SMOOTH",
"6 -133 OFFCURVE",
"-44 -94 OFFCURVE",
"-44 -94 CURVE SMOOTH",
"-44 -94 OFFCURVE",
"-65 -229 OFFCURVE",
"98 -229 CURVE SMOOTH",
"253 -229 OFFCURVE",
"275 -107 OFFCURVE",
"275 -48 CURVE SMOOTH",
"275 34 LINE",
"305 10 OFFCURVE",
"327 0 OFFCURVE",
"366 0 CURVE SMOOTH",
"391 0 LINE",
"391 96 LINE"
);
}
);
width = 371;
}
);
unicode = FEAE;
},
